<svg width="40" height="40" viewBox="0 0 40 40" fill="none" xmlns="http://www.w3.org/2000/svg">
<g clip-path="url(#clip0_420_3735)">
<path d="M17.6417 17.645C17.0167 18.2703 16.6656 19.1182 16.6658 20.0023C16.6659 20.8863 17.0173 21.7341 17.6425 22.3592C18.2678 22.9842 19.1157 23.3352 19.9998 23.3351C20.8839 23.3349 21.7317 22.9836 22.3567 22.3583" stroke="#374151" stroke-width="2.5" stroke-linecap="round" stroke-linejoin="round"/>
<path d="M27.8017 27.7883C25.4637 29.2511 22.7578 30.0182 20 30C14 30 9 26.6667 5 20C7.12 16.4667 9.52 13.87 12.2 12.21M16.9667 10.3C17.9651 10.0979 18.9814 9.99738 20 10C26 10 31 13.3333 35 20C33.89 21.85 32.7017 23.445 31.4367 24.7833" stroke="#374151" stroke-width="2.5" stroke-linecap="round" stroke-linejoin="round"/>
<path d="M5 5L35 35" stroke="#374151" stroke-width="2.5" stroke-linecap="round" stroke-linejoin="round"/>
</g>
<defs>
<clipPath id="clip0_420_3735">
<rect width="40" height="40" fill="white"/>
</clipPath>
</defs>
</svg>
