<svg width="360" height="636" viewBox="0 0 360 636" fill="none" xmlns="http://www.w3.org/2000/svg">
<path d="M-178.355 228.324C-178.355 231.264 -180.738 233.647 -183.677 233.647C-186.617 233.647 -189 231.264 -189 228.324C-189 225.383 -186.617 223 -183.677 223C-180.738 223 -178.355 225.383 -178.355 228.324Z" fill="#F8FAFC"/>
<path d="M-146.419 228.324C-146.419 231.264 -148.802 233.647 -151.742 233.647C-154.682 233.647 -157.065 231.264 -157.065 228.324C-157.065 225.383 -154.682 223 -151.742 223C-148.802 223 -146.419 225.383 -146.419 228.324Z" fill="#F8FAFC"/>
<path d="M-114.484 228.324C-114.484 231.264 -116.867 233.647 -119.806 233.647C-122.746 233.647 -125.129 231.264 -125.129 228.324C-125.129 225.383 -122.746 223 -119.806 223C-116.867 223 -114.484 225.383 -114.484 228.324Z" fill="#F8FAFC"/>
<path d="M-82.5484 228.324C-82.5484 231.264 -84.9314 233.647 -87.871 233.647C-90.8105 233.647 -93.1935 231.264 -93.1935 228.324C-93.1935 225.383 -90.8105 223 -87.871 223C-84.9314 223 -82.5484 225.383 -82.5484 228.324Z" fill="#F8FAFC"/>
<path d="M-50.6129 228.324C-50.6129 231.264 -52.9959 233.647 -55.9355 233.647C-58.8751 233.647 -61.2581 231.264 -61.2581 228.324C-61.2581 225.383 -58.8751 223 -55.9355 223C-52.9959 223 -50.6129 225.383 -50.6129 228.324Z" fill="#F8FAFC"/>
<path d="M-18.6774 228.324C-18.6774 231.264 -21.0604 233.647 -24 233.647C-26.9396 233.647 -29.3226 231.264 -29.3226 228.324C-29.3226 225.383 -26.9396 223 -24 223C-21.0604 223 -18.6774 225.383 -18.6774 228.324Z" fill="#F8FAFC"/>
<path d="M13.2581 228.324C13.2581 231.264 10.8751 233.647 7.9355 233.647C4.99591 233.647 2.61292 231.264 2.61292 228.324C2.61292 225.383 4.99591 223 7.9355 223C10.8751 223 13.2581 225.383 13.2581 228.324Z" fill="#F8FAFC"/>
<path d="M45.1936 228.324C45.1936 231.264 42.8106 233.647 39.871 233.647C36.9314 233.647 34.5484 231.264 34.5484 228.324C34.5484 225.383 36.9314 223 39.871 223C42.8106 223 45.1936 225.383 45.1936 228.324Z" fill="#F8FAFC"/>
<path d="M77.1291 228.324C77.1291 231.264 74.746 233.647 71.8065 233.647C68.8669 233.647 66.4839 231.264 66.4839 228.324C66.4839 225.383 68.8669 223 71.8065 223C74.746 223 77.1291 225.383 77.1291 228.324Z" fill="#F8FAFC"/>
<path d="M109.065 228.324C109.065 231.264 106.682 233.647 103.742 233.647C100.802 233.647 98.4194 231.264 98.4194 228.324C98.4194 225.383 100.802 223 103.742 223C106.682 223 109.065 225.383 109.065 228.324Z" fill="#F8FAFC"/>
<path d="M141 228.324C141 231.264 138.617 233.647 135.677 233.647C132.738 233.647 130.355 231.264 130.355 228.324C130.355 225.383 132.738 223 135.677 223C138.617 223 141 225.383 141 228.324Z" fill="#F8FAFC"/>
<path d="M-178.355 260.265C-178.355 263.205 -180.738 265.588 -183.677 265.588C-186.617 265.588 -189 263.205 -189 260.265C-189 257.325 -186.617 254.941 -183.677 254.941C-180.738 254.941 -178.355 257.325 -178.355 260.265Z" fill="#F8FAFC"/>
<path d="M-146.419 260.265C-146.419 263.205 -148.802 265.588 -151.742 265.588C-154.682 265.588 -157.065 263.205 -157.065 260.265C-157.065 257.325 -154.682 254.941 -151.742 254.941C-148.802 254.941 -146.419 257.325 -146.419 260.265Z" fill="#F8FAFC"/>
<path d="M-114.484 260.265C-114.484 263.205 -116.867 265.588 -119.806 265.588C-122.746 265.588 -125.129 263.205 -125.129 260.265C-125.129 257.325 -122.746 254.941 -119.806 254.941C-116.867 254.941 -114.484 257.325 -114.484 260.265Z" fill="#F8FAFC"/>
<path d="M-82.5484 260.265C-82.5484 263.205 -84.9314 265.588 -87.871 265.588C-90.8105 265.588 -93.1935 263.205 -93.1935 260.265C-93.1935 257.325 -90.8105 254.941 -87.871 254.941C-84.9314 254.941 -82.5484 257.325 -82.5484 260.265Z" fill="#F8FAFC"/>
<path d="M-50.6129 260.265C-50.6129 263.205 -52.9959 265.588 -55.9355 265.588C-58.8751 265.588 -61.2581 263.205 -61.2581 260.265C-61.2581 257.325 -58.8751 254.941 -55.9355 254.941C-52.9959 254.941 -50.6129 257.325 -50.6129 260.265Z" fill="#F8FAFC"/>
<path d="M-18.6774 260.265C-18.6774 263.205 -21.0604 265.588 -24 265.588C-26.9396 265.588 -29.3226 263.205 -29.3226 260.265C-29.3226 257.325 -26.9396 254.941 -24 254.941C-21.0604 254.941 -18.6774 257.325 -18.6774 260.265Z" fill="#F8FAFC"/>
<path d="M13.2581 260.265C13.2581 263.205 10.8751 265.588 7.9355 265.588C4.99591 265.588 2.61292 263.205 2.61292 260.265C2.61292 257.325 4.99591 254.941 7.9355 254.941C10.8751 254.941 13.2581 257.325 13.2581 260.265Z" fill="#F8FAFC"/>
<path d="M45.1936 260.265C45.1936 263.205 42.8106 265.588 39.871 265.588C36.9314 265.588 34.5484 263.205 34.5484 260.265C34.5484 257.325 36.9314 254.941 39.871 254.941C42.8106 254.941 45.1936 257.325 45.1936 260.265Z" fill="#F8FAFC"/>
<path d="M77.1291 260.265C77.1291 263.205 74.746 265.588 71.8065 265.588C68.8669 265.588 66.4839 263.205 66.4839 260.265C66.4839 257.325 68.8669 254.941 71.8065 254.941C74.746 254.941 77.1291 257.325 77.1291 260.265Z" fill="#F8FAFC"/>
<path d="M109.065 260.265C109.065 263.205 106.682 265.588 103.742 265.588C100.802 265.588 98.4194 263.205 98.4194 260.265C98.4194 257.325 100.802 254.941 103.742 254.941C106.682 254.941 109.065 257.325 109.065 260.265Z" fill="#F8FAFC"/>
<path d="M141 260.265C141 263.205 138.617 265.588 135.677 265.588C132.738 265.588 130.355 263.205 130.355 260.265C130.355 257.325 132.738 254.941 135.677 254.941C138.617 254.941 141 257.325 141 260.265Z" fill="#F8FAFC"/>
<path d="M-178.355 292.206C-178.355 295.146 -180.738 297.529 -183.677 297.529C-186.617 297.529 -189 295.146 -189 292.206C-189 289.266 -186.617 286.882 -183.677 286.882C-180.738 286.882 -178.355 289.266 -178.355 292.206Z" fill="#F8FAFC"/>
<path d="M-146.419 292.206C-146.419 295.146 -148.802 297.529 -151.742 297.529C-154.682 297.529 -157.065 295.146 -157.065 292.206C-157.065 289.266 -154.682 286.882 -151.742 286.882C-148.802 286.882 -146.419 289.266 -146.419 292.206Z" fill="#F8FAFC"/>
<path d="M-114.484 292.206C-114.484 295.146 -116.867 297.529 -119.806 297.529C-122.746 297.529 -125.129 295.146 -125.129 292.206C-125.129 289.266 -122.746 286.882 -119.806 286.882C-116.867 286.882 -114.484 289.266 -114.484 292.206Z" fill="#F8FAFC"/>
<path d="M-82.5484 292.206C-82.5484 295.146 -84.9314 297.529 -87.871 297.529C-90.8105 297.529 -93.1935 295.146 -93.1935 292.206C-93.1935 289.266 -90.8105 286.882 -87.871 286.882C-84.9314 286.882 -82.5484 289.266 -82.5484 292.206Z" fill="#F8FAFC"/>
<path d="M-50.6129 292.206C-50.6129 295.146 -52.9959 297.529 -55.9355 297.529C-58.8751 297.529 -61.2581 295.146 -61.2581 292.206C-61.2581 289.266 -58.8751 286.882 -55.9355 286.882C-52.9959 286.882 -50.6129 289.266 -50.6129 292.206Z" fill="#F8FAFC"/>
<path d="M-18.6774 292.206C-18.6774 295.146 -21.0604 297.529 -24 297.529C-26.9396 297.529 -29.3226 295.146 -29.3226 292.206C-29.3226 289.266 -26.9396 286.882 -24 286.882C-21.0604 286.882 -18.6774 289.266 -18.6774 292.206Z" fill="#F8FAFC"/>
<path d="M13.2581 292.206C13.2581 295.146 10.8751 297.529 7.9355 297.529C4.99591 297.529 2.61292 295.146 2.61292 292.206C2.61292 289.266 4.99591 286.882 7.9355 286.882C10.8751 286.882 13.2581 289.266 13.2581 292.206Z" fill="#F8FAFC"/>
<path d="M45.1936 292.206C45.1936 295.146 42.8106 297.529 39.871 297.529C36.9314 297.529 34.5484 295.146 34.5484 292.206C34.5484 289.266 36.9314 286.882 39.871 286.882C42.8106 286.882 45.1936 289.266 45.1936 292.206Z" fill="#F8FAFC"/>
<path d="M77.1291 292.206C77.1291 295.146 74.746 297.529 71.8065 297.529C68.8669 297.529 66.4839 295.146 66.4839 292.206C66.4839 289.266 68.8669 286.882 71.8065 286.882C74.746 286.882 77.1291 289.266 77.1291 292.206Z" fill="#F8FAFC"/>
<path d="M109.065 292.206C109.065 295.146 106.682 297.529 103.742 297.529C100.802 297.529 98.4194 295.146 98.4194 292.206C98.4194 289.266 100.802 286.882 103.742 286.882C106.682 286.882 109.065 289.266 109.065 292.206Z" fill="#F8FAFC"/>
<path d="M141 292.206C141 295.146 138.617 297.529 135.677 297.529C132.738 297.529 130.355 295.146 130.355 292.206C130.355 289.266 132.738 286.882 135.677 286.882C138.617 286.882 141 289.266 141 292.206Z" fill="#F8FAFC"/>
<path d="M-178.355 324.147C-178.355 327.087 -180.738 329.471 -183.677 329.471C-186.617 329.471 -189 327.087 -189 324.147C-189 321.207 -186.617 318.824 -183.677 318.824C-180.738 318.824 -178.355 321.207 -178.355 324.147Z" fill="#F8FAFC"/>
<path d="M-146.419 324.147C-146.419 327.087 -148.802 329.471 -151.742 329.471C-154.682 329.471 -157.065 327.087 -157.065 324.147C-157.065 321.207 -154.682 318.824 -151.742 318.824C-148.802 318.824 -146.419 321.207 -146.419 324.147Z" fill="#F8FAFC"/>
<path d="M-114.484 324.147C-114.484 327.087 -116.867 329.471 -119.806 329.471C-122.746 329.471 -125.129 327.087 -125.129 324.147C-125.129 321.207 -122.746 318.824 -119.806 318.824C-116.867 318.824 -114.484 321.207 -114.484 324.147Z" fill="#F8FAFC"/>
<path d="M-82.5484 324.147C-82.5484 327.087 -84.9314 329.471 -87.871 329.471C-90.8105 329.471 -93.1935 327.087 -93.1935 324.147C-93.1935 321.207 -90.8105 318.824 -87.871 318.824C-84.9314 318.824 -82.5484 321.207 -82.5484 324.147Z" fill="#F8FAFC"/>
<path d="M-50.6129 324.147C-50.6129 327.087 -52.9959 329.471 -55.9355 329.471C-58.8751 329.471 -61.2581 327.087 -61.2581 324.147C-61.2581 321.207 -58.8751 318.824 -55.9355 318.824C-52.9959 318.824 -50.6129 321.207 -50.6129 324.147Z" fill="#F8FAFC"/>
<path d="M-18.6774 324.147C-18.6774 327.087 -21.0604 329.471 -24 329.471C-26.9396 329.471 -29.3226 327.087 -29.3226 324.147C-29.3226 321.207 -26.9396 318.824 -24 318.824C-21.0604 318.824 -18.6774 321.207 -18.6774 324.147Z" fill="#F8FAFC"/>
<path d="M13.2581 324.147C13.2581 327.087 10.8751 329.471 7.9355 329.471C4.99591 329.471 2.61292 327.087 2.61292 324.147C2.61292 321.207 4.99591 318.824 7.9355 318.824C10.8751 318.824 13.2581 321.207 13.2581 324.147Z" fill="#F8FAFC"/>
<path d="M45.1936 324.147C45.1936 327.087 42.8106 329.471 39.871 329.471C36.9314 329.471 34.5484 327.087 34.5484 324.147C34.5484 321.207 36.9314 318.824 39.871 318.824C42.8106 318.824 45.1936 321.207 45.1936 324.147Z" fill="#F8FAFC"/>
<path d="M77.1291 324.147C77.1291 327.087 74.746 329.471 71.8065 329.471C68.8669 329.471 66.4839 327.087 66.4839 324.147C66.4839 321.207 68.8669 318.824 71.8065 318.824C74.746 318.824 77.1291 321.207 77.1291 324.147Z" fill="#F8FAFC"/>
<path d="M109.065 324.147C109.065 327.087 106.682 329.471 103.742 329.471C100.802 329.471 98.4194 327.087 98.4194 324.147C98.4194 321.207 100.802 318.824 103.742 318.824C106.682 318.824 109.065 321.207 109.065 324.147Z" fill="#F8FAFC"/>
<path d="M141 324.147C141 327.087 138.617 329.471 135.677 329.471C132.738 329.471 130.355 327.087 130.355 324.147C130.355 321.207 132.738 318.824 135.677 318.824C138.617 318.824 141 321.207 141 324.147Z" fill="#F8FAFC"/>
<path d="M-178.355 356.088C-178.355 359.028 -180.738 361.412 -183.677 361.412C-186.617 361.412 -189 359.028 -189 356.088C-189 353.148 -186.617 350.765 -183.677 350.765C-180.738 350.765 -178.355 353.148 -178.355 356.088Z" fill="#F8FAFC"/>
<path d="M-146.419 356.088C-146.419 359.028 -148.802 361.412 -151.742 361.412C-154.682 361.412 -157.065 359.028 -157.065 356.088C-157.065 353.148 -154.682 350.765 -151.742 350.765C-148.802 350.765 -146.419 353.148 -146.419 356.088Z" fill="#F8FAFC"/>
<path d="M-114.484 356.088C-114.484 359.028 -116.867 361.412 -119.806 361.412C-122.746 361.412 -125.129 359.028 -125.129 356.088C-125.129 353.148 -122.746 350.765 -119.806 350.765C-116.867 350.765 -114.484 353.148 -114.484 356.088Z" fill="#F8FAFC"/>
<path d="M-82.5484 356.088C-82.5484 359.028 -84.9314 361.412 -87.871 361.412C-90.8105 361.412 -93.1935 359.028 -93.1935 356.088C-93.1935 353.148 -90.8105 350.765 -87.871 350.765C-84.9314 350.765 -82.5484 353.148 -82.5484 356.088Z" fill="#F8FAFC"/>
<path d="M-50.6129 356.088C-50.6129 359.028 -52.9959 361.412 -55.9355 361.412C-58.8751 361.412 -61.2581 359.028 -61.2581 356.088C-61.2581 353.148 -58.8751 350.765 -55.9355 350.765C-52.9959 350.765 -50.6129 353.148 -50.6129 356.088Z" fill="#F8FAFC"/>
<path d="M-18.6774 356.088C-18.6774 359.028 -21.0604 361.412 -24 361.412C-26.9396 361.412 -29.3226 359.028 -29.3226 356.088C-29.3226 353.148 -26.9396 350.765 -24 350.765C-21.0604 350.765 -18.6774 353.148 -18.6774 356.088Z" fill="#F8FAFC"/>
<path d="M13.2581 356.088C13.2581 359.028 10.8751 361.412 7.9355 361.412C4.99591 361.412 2.61292 359.028 2.61292 356.088C2.61292 353.148 4.99591 350.765 7.9355 350.765C10.8751 350.765 13.2581 353.148 13.2581 356.088Z" fill="#F8FAFC"/>
<path d="M45.1936 356.088C45.1936 359.028 42.8106 361.412 39.871 361.412C36.9314 361.412 34.5484 359.028 34.5484 356.088C34.5484 353.148 36.9314 350.765 39.871 350.765C42.8106 350.765 45.1936 353.148 45.1936 356.088Z" fill="#F8FAFC"/>
<path d="M77.1291 356.088C77.1291 359.028 74.746 361.412 71.8065 361.412C68.8669 361.412 66.4839 359.028 66.4839 356.088C66.4839 353.148 68.8669 350.765 71.8065 350.765C74.746 350.765 77.1291 353.148 77.1291 356.088Z" fill="#F8FAFC"/>
<path d="M109.065 356.088C109.065 359.028 106.682 361.412 103.742 361.412C100.802 361.412 98.4194 359.028 98.4194 356.088C98.4194 353.148 100.802 350.765 103.742 350.765C106.682 350.765 109.065 353.148 109.065 356.088Z" fill="#F8FAFC"/>
<path d="M141 356.088C141 359.028 138.617 361.412 135.677 361.412C132.738 361.412 130.355 359.028 130.355 356.088C130.355 353.148 132.738 350.765 135.677 350.765C138.617 350.765 141 353.148 141 356.088Z" fill="#F8FAFC"/>
<path d="M-178.355 388.029C-178.355 390.97 -180.738 393.353 -183.677 393.353C-186.617 393.353 -189 390.97 -189 388.029C-189 385.089 -186.617 382.706 -183.677 382.706C-180.738 382.706 -178.355 385.089 -178.355 388.029Z" fill="#F8FAFC"/>
<path d="M-146.419 388.029C-146.419 390.97 -148.802 393.353 -151.742 393.353C-154.682 393.353 -157.065 390.97 -157.065 388.029C-157.065 385.089 -154.682 382.706 -151.742 382.706C-148.802 382.706 -146.419 385.089 -146.419 388.029Z" fill="#F8FAFC"/>
<path d="M-114.484 388.029C-114.484 390.97 -116.867 393.353 -119.806 393.353C-122.746 393.353 -125.129 390.97 -125.129 388.029C-125.129 385.089 -122.746 382.706 -119.806 382.706C-116.867 382.706 -114.484 385.089 -114.484 388.029Z" fill="#F8FAFC"/>
<path d="M-82.5484 388.029C-82.5484 390.97 -84.9314 393.353 -87.871 393.353C-90.8105 393.353 -93.1935 390.97 -93.1935 388.029C-93.1935 385.089 -90.8105 382.706 -87.871 382.706C-84.9314 382.706 -82.5484 385.089 -82.5484 388.029Z" fill="#F8FAFC"/>
<path d="M-50.6129 388.029C-50.6129 390.97 -52.9959 393.353 -55.9355 393.353C-58.8751 393.353 -61.2581 390.97 -61.2581 388.029C-61.2581 385.089 -58.8751 382.706 -55.9355 382.706C-52.9959 382.706 -50.6129 385.089 -50.6129 388.029Z" fill="#F8FAFC"/>
<path d="M-18.6774 388.029C-18.6774 390.97 -21.0604 393.353 -24 393.353C-26.9396 393.353 -29.3226 390.97 -29.3226 388.029C-29.3226 385.089 -26.9396 382.706 -24 382.706C-21.0604 382.706 -18.6774 385.089 -18.6774 388.029Z" fill="#F8FAFC"/>
<path d="M13.2581 388.029C13.2581 390.97 10.8751 393.353 7.9355 393.353C4.99591 393.353 2.61292 390.97 2.61292 388.029C2.61292 385.089 4.99591 382.706 7.9355 382.706C10.8751 382.706 13.2581 385.089 13.2581 388.029Z" fill="#F8FAFC"/>
<path d="M45.1936 388.029C45.1936 390.97 42.8106 393.353 39.871 393.353C36.9314 393.353 34.5484 390.97 34.5484 388.029C34.5484 385.089 36.9314 382.706 39.871 382.706C42.8106 382.706 45.1936 385.089 45.1936 388.029Z" fill="#F8FAFC"/>
<path d="M77.1291 388.029C77.1291 390.97 74.746 393.353 71.8065 393.353C68.8669 393.353 66.4839 390.97 66.4839 388.029C66.4839 385.089 68.8669 382.706 71.8065 382.706C74.746 382.706 77.1291 385.089 77.1291 388.029Z" fill="#F8FAFC"/>
<path d="M109.065 388.029C109.065 390.97 106.682 393.353 103.742 393.353C100.802 393.353 98.4194 390.97 98.4194 388.029C98.4194 385.089 100.802 382.706 103.742 382.706C106.682 382.706 109.065 385.089 109.065 388.029Z" fill="#F8FAFC"/>
<path d="M141 388.029C141 390.97 138.617 393.353 135.677 393.353C132.738 393.353 130.355 390.97 130.355 388.029C130.355 385.089 132.738 382.706 135.677 382.706C138.617 382.706 141 385.089 141 388.029Z" fill="#F8FAFC"/>
<path d="M-178.355 419.971C-178.355 422.911 -180.738 425.294 -183.677 425.294C-186.617 425.294 -189 422.911 -189 419.971C-189 417.03 -186.617 414.647 -183.677 414.647C-180.738 414.647 -178.355 417.03 -178.355 419.971Z" fill="#F8FAFC"/>
<path d="M-146.419 419.971C-146.419 422.911 -148.802 425.294 -151.742 425.294C-154.682 425.294 -157.065 422.911 -157.065 419.971C-157.065 417.03 -154.682 414.647 -151.742 414.647C-148.802 414.647 -146.419 417.03 -146.419 419.971Z" fill="#F8FAFC"/>
<path d="M-114.484 419.971C-114.484 422.911 -116.867 425.294 -119.806 425.294C-122.746 425.294 -125.129 422.911 -125.129 419.971C-125.129 417.03 -122.746 414.647 -119.806 414.647C-116.867 414.647 -114.484 417.03 -114.484 419.971Z" fill="#F8FAFC"/>
<path d="M-82.5484 419.971C-82.5484 422.911 -84.9314 425.294 -87.871 425.294C-90.8105 425.294 -93.1935 422.911 -93.1935 419.971C-93.1935 417.03 -90.8105 414.647 -87.871 414.647C-84.9314 414.647 -82.5484 417.03 -82.5484 419.971Z" fill="#F8FAFC"/>
<path d="M-50.6129 419.971C-50.6129 422.911 -52.9959 425.294 -55.9355 425.294C-58.8751 425.294 -61.2581 422.911 -61.2581 419.971C-61.2581 417.03 -58.8751 414.647 -55.9355 414.647C-52.9959 414.647 -50.6129 417.03 -50.6129 419.971Z" fill="#F8FAFC"/>
<path d="M-18.6774 419.971C-18.6774 422.911 -21.0604 425.294 -24 425.294C-26.9396 425.294 -29.3226 422.911 -29.3226 419.971C-29.3226 417.03 -26.9396 414.647 -24 414.647C-21.0604 414.647 -18.6774 417.03 -18.6774 419.971Z" fill="#F8FAFC"/>
<path d="M13.2581 419.971C13.2581 422.911 10.8751 425.294 7.9355 425.294C4.99591 425.294 2.61292 422.911 2.61292 419.971C2.61292 417.03 4.99591 414.647 7.9355 414.647C10.8751 414.647 13.2581 417.03 13.2581 419.971Z" fill="#F8FAFC"/>
<path d="M45.1936 419.971C45.1936 422.911 42.8106 425.294 39.871 425.294C36.9314 425.294 34.5484 422.911 34.5484 419.971C34.5484 417.03 36.9314 414.647 39.871 414.647C42.8106 414.647 45.1936 417.03 45.1936 419.971Z" fill="#F8FAFC"/>
<path d="M77.1291 419.971C77.1291 422.911 74.746 425.294 71.8065 425.294C68.8669 425.294 66.4839 422.911 66.4839 419.971C66.4839 417.03 68.8669 414.647 71.8065 414.647C74.746 414.647 77.1291 417.03 77.1291 419.971Z" fill="#F8FAFC"/>
<path d="M109.065 419.971C109.065 422.911 106.682 425.294 103.742 425.294C100.802 425.294 98.4194 422.911 98.4194 419.971C98.4194 417.03 100.802 414.647 103.742 414.647C106.682 414.647 109.065 417.03 109.065 419.971Z" fill="#F8FAFC"/>
<path d="M141 419.971C141 422.911 138.617 425.294 135.677 425.294C132.738 425.294 130.355 422.911 130.355 419.971C130.355 417.03 132.738 414.647 135.677 414.647C138.617 414.647 141 417.03 141 419.971Z" fill="#F8FAFC"/>
<path d="M-178.355 451.912C-178.355 454.852 -180.738 457.235 -183.677 457.235C-186.617 457.235 -189 454.852 -189 451.912C-189 448.972 -186.617 446.588 -183.677 446.588C-180.738 446.588 -178.355 448.972 -178.355 451.912Z" fill="#F8FAFC"/>
<path d="M-146.419 451.912C-146.419 454.852 -148.802 457.235 -151.742 457.235C-154.682 457.235 -157.065 454.852 -157.065 451.912C-157.065 448.972 -154.682 446.588 -151.742 446.588C-148.802 446.588 -146.419 448.972 -146.419 451.912Z" fill="#F8FAFC"/>
<path d="M-114.484 451.912C-114.484 454.852 -116.867 457.235 -119.806 457.235C-122.746 457.235 -125.129 454.852 -125.129 451.912C-125.129 448.972 -122.746 446.588 -119.806 446.588C-116.867 446.588 -114.484 448.972 -114.484 451.912Z" fill="#F8FAFC"/>
<path d="M-82.5484 451.912C-82.5484 454.852 -84.9314 457.235 -87.871 457.235C-90.8105 457.235 -93.1935 454.852 -93.1935 451.912C-93.1935 448.972 -90.8105 446.588 -87.871 446.588C-84.9314 446.588 -82.5484 448.972 -82.5484 451.912Z" fill="#F8FAFC"/>
<path d="M-50.6129 451.912C-50.6129 454.852 -52.9959 457.235 -55.9355 457.235C-58.8751 457.235 -61.2581 454.852 -61.2581 451.912C-61.2581 448.972 -58.8751 446.588 -55.9355 446.588C-52.9959 446.588 -50.6129 448.972 -50.6129 451.912Z" fill="#F8FAFC"/>
<path d="M-18.6774 451.912C-18.6774 454.852 -21.0604 457.235 -24 457.235C-26.9396 457.235 -29.3226 454.852 -29.3226 451.912C-29.3226 448.972 -26.9396 446.588 -24 446.588C-21.0604 446.588 -18.6774 448.972 -18.6774 451.912Z" fill="#F8FAFC"/>
<path d="M13.2581 451.912C13.2581 454.852 10.8751 457.235 7.9355 457.235C4.99591 457.235 2.61292 454.852 2.61292 451.912C2.61292 448.972 4.99591 446.588 7.9355 446.588C10.8751 446.588 13.2581 448.972 13.2581 451.912Z" fill="#F8FAFC"/>
<path d="M45.1936 451.912C45.1936 454.852 42.8106 457.235 39.871 457.235C36.9314 457.235 34.5484 454.852 34.5484 451.912C34.5484 448.972 36.9314 446.588 39.871 446.588C42.8106 446.588 45.1936 448.972 45.1936 451.912Z" fill="#F8FAFC"/>
<path d="M77.1291 451.912C77.1291 454.852 74.746 457.235 71.8065 457.235C68.8669 457.235 66.4839 454.852 66.4839 451.912C66.4839 448.972 68.8669 446.588 71.8065 446.588C74.746 446.588 77.1291 448.972 77.1291 451.912Z" fill="#F8FAFC"/>
<path d="M109.065 451.912C109.065 454.852 106.682 457.235 103.742 457.235C100.802 457.235 98.4194 454.852 98.4194 451.912C98.4194 448.972 100.802 446.588 103.742 446.588C106.682 446.588 109.065 448.972 109.065 451.912Z" fill="#F8FAFC"/>
<path d="M141 451.912C141 454.852 138.617 457.235 135.677 457.235C132.738 457.235 130.355 454.852 130.355 451.912C130.355 448.972 132.738 446.588 135.677 446.588C138.617 446.588 141 448.972 141 451.912Z" fill="#F8FAFC"/>
<path d="M-178.355 483.853C-178.355 486.793 -180.738 489.176 -183.677 489.176C-186.617 489.176 -189 486.793 -189 483.853C-189 480.913 -186.617 478.529 -183.677 478.529C-180.738 478.529 -178.355 480.913 -178.355 483.853Z" fill="#F8FAFC"/>
<path d="M-146.419 483.853C-146.419 486.793 -148.802 489.176 -151.742 489.176C-154.682 489.176 -157.065 486.793 -157.065 483.853C-157.065 480.913 -154.682 478.529 -151.742 478.529C-148.802 478.529 -146.419 480.913 -146.419 483.853Z" fill="#F8FAFC"/>
<path d="M-114.484 483.853C-114.484 486.793 -116.867 489.176 -119.806 489.176C-122.746 489.176 -125.129 486.793 -125.129 483.853C-125.129 480.913 -122.746 478.529 -119.806 478.529C-116.867 478.529 -114.484 480.913 -114.484 483.853Z" fill="#F8FAFC"/>
<path d="M-82.5484 483.853C-82.5484 486.793 -84.9314 489.176 -87.871 489.176C-90.8105 489.176 -93.1935 486.793 -93.1935 483.853C-93.1935 480.913 -90.8105 478.529 -87.871 478.529C-84.9314 478.529 -82.5484 480.913 -82.5484 483.853Z" fill="#F8FAFC"/>
<path d="M-50.6129 483.853C-50.6129 486.793 -52.9959 489.176 -55.9355 489.176C-58.8751 489.176 -61.2581 486.793 -61.2581 483.853C-61.2581 480.913 -58.8751 478.529 -55.9355 478.529C-52.9959 478.529 -50.6129 480.913 -50.6129 483.853Z" fill="#F8FAFC"/>
<path d="M-18.6774 483.853C-18.6774 486.793 -21.0604 489.176 -24 489.176C-26.9396 489.176 -29.3226 486.793 -29.3226 483.853C-29.3226 480.913 -26.9396 478.529 -24 478.529C-21.0604 478.529 -18.6774 480.913 -18.6774 483.853Z" fill="#F8FAFC"/>
<path d="M13.2581 483.853C13.2581 486.793 10.8751 489.176 7.9355 489.176C4.99591 489.176 2.61292 486.793 2.61292 483.853C2.61292 480.913 4.99591 478.529 7.9355 478.529C10.8751 478.529 13.2581 480.913 13.2581 483.853Z" fill="#F8FAFC"/>
<path d="M45.1936 483.853C45.1936 486.793 42.8106 489.176 39.871 489.176C36.9314 489.176 34.5484 486.793 34.5484 483.853C34.5484 480.913 36.9314 478.529 39.871 478.529C42.8106 478.529 45.1936 480.913 45.1936 483.853Z" fill="#F8FAFC"/>
<path d="M77.1291 483.853C77.1291 486.793 74.746 489.176 71.8065 489.176C68.8669 489.176 66.4839 486.793 66.4839 483.853C66.4839 480.913 68.8669 478.529 71.8065 478.529C74.746 478.529 77.1291 480.913 77.1291 483.853Z" fill="#F8FAFC"/>
<path d="M109.065 483.853C109.065 486.793 106.682 489.176 103.742 489.176C100.802 489.176 98.4194 486.793 98.4194 483.853C98.4194 480.913 100.802 478.529 103.742 478.529C106.682 478.529 109.065 480.913 109.065 483.853Z" fill="#F8FAFC"/>
<path d="M141 483.853C141 486.793 138.617 489.176 135.677 489.176C132.738 489.176 130.355 486.793 130.355 483.853C130.355 480.913 132.738 478.529 135.677 478.529C138.617 478.529 141 480.913 141 483.853Z" fill="#F8FAFC"/>
<path d="M-178.355 515.794C-178.355 518.734 -180.738 521.118 -183.677 521.118C-186.617 521.118 -189 518.734 -189 515.794C-189 512.854 -186.617 510.471 -183.677 510.471C-180.738 510.471 -178.355 512.854 -178.355 515.794Z" fill="#F8FAFC"/>
<path d="M-146.419 515.794C-146.419 518.734 -148.802 521.118 -151.742 521.118C-154.682 521.118 -157.065 518.734 -157.065 515.794C-157.065 512.854 -154.682 510.471 -151.742 510.471C-148.802 510.471 -146.419 512.854 -146.419 515.794Z" fill="#F8FAFC"/>
<path d="M-114.484 515.794C-114.484 518.734 -116.867 521.118 -119.806 521.118C-122.746 521.118 -125.129 518.734 -125.129 515.794C-125.129 512.854 -122.746 510.471 -119.806 510.471C-116.867 510.471 -114.484 512.854 -114.484 515.794Z" fill="#F8FAFC"/>
<path d="M-82.5484 515.794C-82.5484 518.734 -84.9314 521.118 -87.871 521.118C-90.8105 521.118 -93.1935 518.734 -93.1935 515.794C-93.1935 512.854 -90.8105 510.471 -87.871 510.471C-84.9314 510.471 -82.5484 512.854 -82.5484 515.794Z" fill="#F8FAFC"/>
<path d="M-50.6129 515.794C-50.6129 518.734 -52.9959 521.118 -55.9355 521.118C-58.8751 521.118 -61.2581 518.734 -61.2581 515.794C-61.2581 512.854 -58.8751 510.471 -55.9355 510.471C-52.9959 510.471 -50.6129 512.854 -50.6129 515.794Z" fill="#F8FAFC"/>
<path d="M-18.6774 515.794C-18.6774 518.734 -21.0604 521.118 -24 521.118C-26.9396 521.118 -29.3226 518.734 -29.3226 515.794C-29.3226 512.854 -26.9396 510.471 -24 510.471C-21.0604 510.471 -18.6774 512.854 -18.6774 515.794Z" fill="#F8FAFC"/>
<path d="M13.2581 515.794C13.2581 518.734 10.8751 521.118 7.9355 521.118C4.99591 521.118 2.61292 518.734 2.61292 515.794C2.61292 512.854 4.99591 510.471 7.9355 510.471C10.8751 510.471 13.2581 512.854 13.2581 515.794Z" fill="#F8FAFC"/>
<path d="M45.1936 515.794C45.1936 518.734 42.8106 521.118 39.871 521.118C36.9314 521.118 34.5484 518.734 34.5484 515.794C34.5484 512.854 36.9314 510.471 39.871 510.471C42.8106 510.471 45.1936 512.854 45.1936 515.794Z" fill="#F8FAFC"/>
<path d="M77.1291 515.794C77.1291 518.734 74.746 521.118 71.8065 521.118C68.8669 521.118 66.4839 518.734 66.4839 515.794C66.4839 512.854 68.8669 510.471 71.8065 510.471C74.746 510.471 77.1291 512.854 77.1291 515.794Z" fill="#F8FAFC"/>
<path d="M109.065 515.794C109.065 518.734 106.682 521.118 103.742 521.118C100.802 521.118 98.4194 518.734 98.4194 515.794C98.4194 512.854 100.802 510.471 103.742 510.471C106.682 510.471 109.065 512.854 109.065 515.794Z" fill="#F8FAFC"/>
<path d="M141 515.794C141 518.734 138.617 521.118 135.677 521.118C132.738 521.118 130.355 518.734 130.355 515.794C130.355 512.854 132.738 510.471 135.677 510.471C138.617 510.471 141 512.854 141 515.794Z" fill="#F8FAFC"/>
<path d="M-178.355 547.735C-178.355 550.675 -180.738 553.059 -183.677 553.059C-186.617 553.059 -189 550.675 -189 547.735C-189 544.795 -186.617 542.412 -183.677 542.412C-180.738 542.412 -178.355 544.795 -178.355 547.735Z" fill="#F8FAFC"/>
<path d="M-146.419 547.735C-146.419 550.675 -148.802 553.059 -151.742 553.059C-154.682 553.059 -157.065 550.675 -157.065 547.735C-157.065 544.795 -154.682 542.412 -151.742 542.412C-148.802 542.412 -146.419 544.795 -146.419 547.735Z" fill="#F8FAFC"/>
<path d="M-114.484 547.735C-114.484 550.675 -116.867 553.059 -119.806 553.059C-122.746 553.059 -125.129 550.675 -125.129 547.735C-125.129 544.795 -122.746 542.412 -119.806 542.412C-116.867 542.412 -114.484 544.795 -114.484 547.735Z" fill="#F8FAFC"/>
<path d="M-82.5484 547.735C-82.5484 550.675 -84.9314 553.059 -87.871 553.059C-90.8105 553.059 -93.1935 550.675 -93.1935 547.735C-93.1935 544.795 -90.8105 542.412 -87.871 542.412C-84.9314 542.412 -82.5484 544.795 -82.5484 547.735Z" fill="#F8FAFC"/>
<path d="M-50.6129 547.735C-50.6129 550.675 -52.9959 553.059 -55.9355 553.059C-58.8751 553.059 -61.2581 550.675 -61.2581 547.735C-61.2581 544.795 -58.8751 542.412 -55.9355 542.412C-52.9959 542.412 -50.6129 544.795 -50.6129 547.735Z" fill="#F8FAFC"/>
<path d="M-18.6774 547.735C-18.6774 550.675 -21.0604 553.059 -24 553.059C-26.9396 553.059 -29.3226 550.675 -29.3226 547.735C-29.3226 544.795 -26.9396 542.412 -24 542.412C-21.0604 542.412 -18.6774 544.795 -18.6774 547.735Z" fill="#F8FAFC"/>
<path d="M13.2581 547.735C13.2581 550.675 10.8751 553.059 7.9355 553.059C4.99591 553.059 2.61292 550.675 2.61292 547.735C2.61292 544.795 4.99591 542.412 7.9355 542.412C10.8751 542.412 13.2581 544.795 13.2581 547.735Z" fill="#F8FAFC"/>
<path d="M45.1936 547.735C45.1936 550.675 42.8106 553.059 39.871 553.059C36.9314 553.059 34.5484 550.675 34.5484 547.735C34.5484 544.795 36.9314 542.412 39.871 542.412C42.8106 542.412 45.1936 544.795 45.1936 547.735Z" fill="#F8FAFC"/>
<path d="M77.1291 547.735C77.1291 550.675 74.746 553.059 71.8065 553.059C68.8669 553.059 66.4839 550.675 66.4839 547.735C66.4839 544.795 68.8669 542.412 71.8065 542.412C74.746 542.412 77.1291 544.795 77.1291 547.735Z" fill="#F8FAFC"/>
<path d="M109.065 547.735C109.065 550.675 106.682 553.059 103.742 553.059C100.802 553.059 98.4194 550.675 98.4194 547.735C98.4194 544.795 100.802 542.412 103.742 542.412C106.682 542.412 109.065 544.795 109.065 547.735Z" fill="#F8FAFC"/>
<path d="M141 547.735C141 550.675 138.617 553.059 135.677 553.059C132.738 553.059 130.355 550.675 130.355 547.735C130.355 544.795 132.738 542.412 135.677 542.412C138.617 542.412 141 544.795 141 547.735Z" fill="#F8FAFC"/>
<path d="M-178.355 579.676C-178.355 582.617 -180.738 585 -183.677 585C-186.617 585 -189 582.617 -189 579.676C-189 576.736 -186.617 574.353 -183.677 574.353C-180.738 574.353 -178.355 576.736 -178.355 579.676Z" fill="#F8FAFC"/>
<path d="M-146.419 579.676C-146.419 582.617 -148.802 585 -151.742 585C-154.682 585 -157.065 582.617 -157.065 579.676C-157.065 576.736 -154.682 574.353 -151.742 574.353C-148.802 574.353 -146.419 576.736 -146.419 579.676Z" fill="#F8FAFC"/>
<path d="M-114.484 579.676C-114.484 582.617 -116.867 585 -119.806 585C-122.746 585 -125.129 582.617 -125.129 579.676C-125.129 576.736 -122.746 574.353 -119.806 574.353C-116.867 574.353 -114.484 576.736 -114.484 579.676Z" fill="#F8FAFC"/>
<path d="M-82.5484 579.676C-82.5484 582.617 -84.9314 585 -87.871 585C-90.8105 585 -93.1935 582.617 -93.1935 579.676C-93.1935 576.736 -90.8105 574.353 -87.871 574.353C-84.9314 574.353 -82.5484 576.736 -82.5484 579.676Z" fill="#F8FAFC"/>
<path d="M-50.6129 579.676C-50.6129 582.617 -52.9959 585 -55.9355 585C-58.8751 585 -61.2581 582.617 -61.2581 579.676C-61.2581 576.736 -58.8751 574.353 -55.9355 574.353C-52.9959 574.353 -50.6129 576.736 -50.6129 579.676Z" fill="#F8FAFC"/>
<path d="M-18.6774 579.676C-18.6774 582.617 -21.0604 585 -24 585C-26.9396 585 -29.3226 582.617 -29.3226 579.676C-29.3226 576.736 -26.9396 574.353 -24 574.353C-21.0604 574.353 -18.6774 576.736 -18.6774 579.676Z" fill="#F8FAFC"/>
<path d="M13.2581 579.676C13.2581 582.617 10.8751 585 7.9355 585C4.99591 585 2.61292 582.617 2.61292 579.676C2.61292 576.736 4.99591 574.353 7.9355 574.353C10.8751 574.353 13.2581 576.736 13.2581 579.676Z" fill="#F8FAFC"/>
<path d="M45.1936 579.676C45.1936 582.617 42.8106 585 39.871 585C36.9314 585 34.5484 582.617 34.5484 579.676C34.5484 576.736 36.9314 574.353 39.871 574.353C42.8106 574.353 45.1936 576.736 45.1936 579.676Z" fill="#F8FAFC"/>
<path d="M77.1291 579.676C77.1291 582.617 74.746 585 71.8065 585C68.8669 585 66.4839 582.617 66.4839 579.676C66.4839 576.736 68.8669 574.353 71.8065 574.353C74.746 574.353 77.1291 576.736 77.1291 579.676Z" fill="#F8FAFC"/>
<path d="M109.065 579.676C109.065 582.617 106.682 585 103.742 585C100.802 585 98.4194 582.617 98.4194 579.676C98.4194 576.736 100.802 574.353 103.742 574.353C106.682 574.353 109.065 576.736 109.065 579.676Z" fill="#F8FAFC"/>
<path d="M141 579.676C141 582.617 138.617 585 135.677 585C132.738 585 130.355 582.617 130.355 579.676C130.355 576.736 132.738 574.353 135.677 574.353C138.617 574.353 141 576.736 141 579.676Z" fill="#F8FAFC"/>
<g opacity="0.3" filter="url(#filter0_f_439_715)">
<circle cx="-4" cy="268" r="240" fill="#BFDBFE"/>
</g>
<path d="M137.645 -71.6765C137.645 -68.7364 135.262 -66.3529 132.323 -66.3529C129.383 -66.3529 127 -68.7364 127 -71.6765C127 -74.6166 129.383 -77 132.323 -77C135.262 -77 137.645 -74.6166 137.645 -71.6765Z" fill="#F8FAFC"/>
<path d="M169.581 -71.6765C169.581 -68.7364 167.198 -66.3529 164.258 -66.3529C161.318 -66.3529 158.935 -68.7364 158.935 -71.6765C158.935 -74.6166 161.318 -77 164.258 -77C167.198 -77 169.581 -74.6166 169.581 -71.6765Z" fill="#F8FAFC"/>
<path d="M201.516 -71.6765C201.516 -68.7364 199.133 -66.3529 196.194 -66.3529C193.254 -66.3529 190.871 -68.7364 190.871 -71.6765C190.871 -74.6166 193.254 -77 196.194 -77C199.133 -77 201.516 -74.6166 201.516 -71.6765Z" fill="#F8FAFC"/>
<path d="M233.452 -71.6765C233.452 -68.7364 231.069 -66.3529 228.129 -66.3529C225.189 -66.3529 222.806 -68.7364 222.806 -71.6765C222.806 -74.6166 225.189 -77 228.129 -77C231.069 -77 233.452 -74.6166 233.452 -71.6765Z" fill="#F8FAFC"/>
<path d="M265.387 -71.6765C265.387 -68.7364 263.004 -66.3529 260.065 -66.3529C257.125 -66.3529 254.742 -68.7364 254.742 -71.6765C254.742 -74.6166 257.125 -77 260.065 -77C263.004 -77 265.387 -74.6166 265.387 -71.6765Z" fill="#F8FAFC"/>
<path d="M297.323 -71.6765C297.323 -68.7364 294.94 -66.3529 292 -66.3529C289.06 -66.3529 286.677 -68.7364 286.677 -71.6765C286.677 -74.6166 289.06 -77 292 -77C294.94 -77 297.323 -74.6166 297.323 -71.6765Z" fill="#F8FAFC"/>
<path d="M329.258 -71.6765C329.258 -68.7364 326.875 -66.3529 323.936 -66.3529C320.996 -66.3529 318.613 -68.7364 318.613 -71.6765C318.613 -74.6166 320.996 -77 323.936 -77C326.875 -77 329.258 -74.6166 329.258 -71.6765Z" fill="#F8FAFC"/>
<path d="M361.194 -71.6765C361.194 -68.7364 358.811 -66.3529 355.871 -66.3529C352.931 -66.3529 350.548 -68.7364 350.548 -71.6765C350.548 -74.6166 352.931 -77 355.871 -77C358.811 -77 361.194 -74.6166 361.194 -71.6765Z" fill="#F8FAFC"/>
<path d="M393.129 -71.6765C393.129 -68.7364 390.746 -66.3529 387.806 -66.3529C384.867 -66.3529 382.484 -68.7364 382.484 -71.6765C382.484 -74.6166 384.867 -77 387.806 -77C390.746 -77 393.129 -74.6166 393.129 -71.6765Z" fill="#F8FAFC"/>
<path d="M425.065 -71.6765C425.065 -68.7364 422.682 -66.3529 419.742 -66.3529C416.802 -66.3529 414.419 -68.7364 414.419 -71.6765C414.419 -74.6166 416.802 -77 419.742 -77C422.682 -77 425.065 -74.6166 425.065 -71.6765Z" fill="#F8FAFC"/>
<path d="M457 -71.6765C457 -68.7364 454.617 -66.3529 451.677 -66.3529C448.738 -66.3529 446.355 -68.7364 446.355 -71.6765C446.355 -74.6166 448.738 -77 451.677 -77C454.617 -77 457 -74.6166 457 -71.6765Z" fill="#F8FAFC"/>
<path d="M137.645 -39.7353C137.645 -36.7952 135.262 -34.4118 132.323 -34.4118C129.383 -34.4118 127 -36.7952 127 -39.7353C127 -42.6754 129.383 -45.0588 132.323 -45.0588C135.262 -45.0588 137.645 -42.6754 137.645 -39.7353Z" fill="#F8FAFC"/>
<path d="M169.581 -39.7353C169.581 -36.7952 167.198 -34.4118 164.258 -34.4118C161.318 -34.4118 158.935 -36.7952 158.935 -39.7353C158.935 -42.6754 161.318 -45.0588 164.258 -45.0588C167.198 -45.0588 169.581 -42.6754 169.581 -39.7353Z" fill="#F8FAFC"/>
<path d="M201.516 -39.7353C201.516 -36.7952 199.133 -34.4118 196.194 -34.4118C193.254 -34.4118 190.871 -36.7952 190.871 -39.7353C190.871 -42.6754 193.254 -45.0588 196.194 -45.0588C199.133 -45.0588 201.516 -42.6754 201.516 -39.7353Z" fill="#F8FAFC"/>
<path d="M233.452 -39.7353C233.452 -36.7952 231.069 -34.4118 228.129 -34.4118C225.189 -34.4118 222.806 -36.7952 222.806 -39.7353C222.806 -42.6754 225.189 -45.0588 228.129 -45.0588C231.069 -45.0588 233.452 -42.6754 233.452 -39.7353Z" fill="#F8FAFC"/>
<path d="M265.387 -39.7353C265.387 -36.7952 263.004 -34.4118 260.065 -34.4118C257.125 -34.4118 254.742 -36.7952 254.742 -39.7353C254.742 -42.6754 257.125 -45.0588 260.065 -45.0588C263.004 -45.0588 265.387 -42.6754 265.387 -39.7353Z" fill="#F8FAFC"/>
<path d="M297.323 -39.7353C297.323 -36.7952 294.94 -34.4118 292 -34.4118C289.06 -34.4118 286.677 -36.7952 286.677 -39.7353C286.677 -42.6754 289.06 -45.0588 292 -45.0588C294.94 -45.0588 297.323 -42.6754 297.323 -39.7353Z" fill="#F8FAFC"/>
<path d="M329.258 -39.7353C329.258 -36.7952 326.875 -34.4118 323.936 -34.4118C320.996 -34.4118 318.613 -36.7952 318.613 -39.7353C318.613 -42.6754 320.996 -45.0588 323.936 -45.0588C326.875 -45.0588 329.258 -42.6754 329.258 -39.7353Z" fill="#F8FAFC"/>
<path d="M361.194 -39.7353C361.194 -36.7952 358.811 -34.4118 355.871 -34.4118C352.931 -34.4118 350.548 -36.7952 350.548 -39.7353C350.548 -42.6754 352.931 -45.0588 355.871 -45.0588C358.811 -45.0588 361.194 -42.6754 361.194 -39.7353Z" fill="#F8FAFC"/>
<path d="M393.129 -39.7353C393.129 -36.7952 390.746 -34.4118 387.806 -34.4118C384.867 -34.4118 382.484 -36.7952 382.484 -39.7353C382.484 -42.6754 384.867 -45.0588 387.806 -45.0588C390.746 -45.0588 393.129 -42.6754 393.129 -39.7353Z" fill="#F8FAFC"/>
<path d="M425.065 -39.7353C425.065 -36.7952 422.682 -34.4118 419.742 -34.4118C416.802 -34.4118 414.419 -36.7952 414.419 -39.7353C414.419 -42.6754 416.802 -45.0588 419.742 -45.0588C422.682 -45.0588 425.065 -42.6754 425.065 -39.7353Z" fill="#F8FAFC"/>
<path d="M457 -39.7353C457 -36.7952 454.617 -34.4118 451.677 -34.4118C448.738 -34.4118 446.355 -36.7952 446.355 -39.7353C446.355 -42.6754 448.738 -45.0588 451.677 -45.0588C454.617 -45.0588 457 -42.6754 457 -39.7353Z" fill="#F8FAFC"/>
<path d="M137.645 -7.79412C137.645 -4.85402 135.262 -2.47059 132.323 -2.47059C129.383 -2.47059 127 -4.85402 127 -7.79412C127 -10.7342 129.383 -13.1176 132.323 -13.1176C135.262 -13.1176 137.645 -10.7342 137.645 -7.79412Z" fill="#F8FAFC"/>
<path d="M169.581 -7.79412C169.581 -4.85402 167.198 -2.47059 164.258 -2.47059C161.318 -2.47059 158.935 -4.85402 158.935 -7.79412C158.935 -10.7342 161.318 -13.1176 164.258 -13.1176C167.198 -13.1176 169.581 -10.7342 169.581 -7.79412Z" fill="#F8FAFC"/>
<path d="M201.516 -7.79412C201.516 -4.85402 199.133 -2.47059 196.194 -2.47059C193.254 -2.47059 190.871 -4.85402 190.871 -7.79412C190.871 -10.7342 193.254 -13.1176 196.194 -13.1176C199.133 -13.1176 201.516 -10.7342 201.516 -7.79412Z" fill="#F8FAFC"/>
<path d="M233.452 -7.79412C233.452 -4.85402 231.069 -2.47059 228.129 -2.47059C225.189 -2.47059 222.806 -4.85402 222.806 -7.79412C222.806 -10.7342 225.189 -13.1176 228.129 -13.1176C231.069 -13.1176 233.452 -10.7342 233.452 -7.79412Z" fill="#F8FAFC"/>
<path d="M265.387 -7.79412C265.387 -4.85402 263.004 -2.47059 260.065 -2.47059C257.125 -2.47059 254.742 -4.85402 254.742 -7.79412C254.742 -10.7342 257.125 -13.1176 260.065 -13.1176C263.004 -13.1176 265.387 -10.7342 265.387 -7.79412Z" fill="#F8FAFC"/>
<path d="M297.323 -7.79412C297.323 -4.85402 294.94 -2.47059 292 -2.47059C289.06 -2.47059 286.677 -4.85402 286.677 -7.79412C286.677 -10.7342 289.06 -13.1176 292 -13.1176C294.94 -13.1176 297.323 -10.7342 297.323 -7.79412Z" fill="#F8FAFC"/>
<path d="M329.258 -7.79412C329.258 -4.85402 326.875 -2.47059 323.936 -2.47059C320.996 -2.47059 318.613 -4.85402 318.613 -7.79412C318.613 -10.7342 320.996 -13.1176 323.936 -13.1176C326.875 -13.1176 329.258 -10.7342 329.258 -7.79412Z" fill="#F8FAFC"/>
<path d="M361.194 -7.79412C361.194 -4.85402 358.811 -2.47059 355.871 -2.47059C352.931 -2.47059 350.548 -4.85402 350.548 -7.79412C350.548 -10.7342 352.931 -13.1176 355.871 -13.1176C358.811 -13.1176 361.194 -10.7342 361.194 -7.79412Z" fill="#F8FAFC"/>
<path d="M393.129 -7.79412C393.129 -4.85402 390.746 -2.47059 387.806 -2.47059C384.867 -2.47059 382.484 -4.85402 382.484 -7.79412C382.484 -10.7342 384.867 -13.1176 387.806 -13.1176C390.746 -13.1176 393.129 -10.7342 393.129 -7.79412Z" fill="#F8FAFC"/>
<path d="M425.065 -7.79412C425.065 -4.85402 422.682 -2.47059 419.742 -2.47059C416.802 -2.47059 414.419 -4.85402 414.419 -7.79412C414.419 -10.7342 416.802 -13.1176 419.742 -13.1176C422.682 -13.1176 425.065 -10.7342 425.065 -7.79412Z" fill="#F8FAFC"/>
<path d="M457 -7.79412C457 -4.85402 454.617 -2.47059 451.677 -2.47059C448.738 -2.47059 446.355 -4.85402 446.355 -7.79412C446.355 -10.7342 448.738 -13.1176 451.677 -13.1176C454.617 -13.1176 457 -10.7342 457 -7.79412Z" fill="#F8FAFC"/>
<path d="M137.645 24.1471C137.645 27.0872 135.262 29.4706 132.323 29.4706C129.383 29.4706 127 27.0872 127 24.1471C127 21.207 129.383 18.8235 132.323 18.8235C135.262 18.8235 137.645 21.207 137.645 24.1471Z" fill="#F8FAFC"/>
<path d="M169.581 24.1471C169.581 27.0872 167.198 29.4706 164.258 29.4706C161.318 29.4706 158.935 27.0872 158.935 24.1471C158.935 21.207 161.318 18.8235 164.258 18.8235C167.198 18.8235 169.581 21.207 169.581 24.1471Z" fill="#F8FAFC"/>
<path d="M201.516 24.1471C201.516 27.0872 199.133 29.4706 196.194 29.4706C193.254 29.4706 190.871 27.0872 190.871 24.1471C190.871 21.207 193.254 18.8235 196.194 18.8235C199.133 18.8235 201.516 21.207 201.516 24.1471Z" fill="#F8FAFC"/>
<path d="M233.452 24.1471C233.452 27.0872 231.069 29.4706 228.129 29.4706C225.189 29.4706 222.806 27.0872 222.806 24.1471C222.806 21.207 225.189 18.8235 228.129 18.8235C231.069 18.8235 233.452 21.207 233.452 24.1471Z" fill="#F8FAFC"/>
<path d="M265.387 24.1471C265.387 27.0872 263.004 29.4706 260.065 29.4706C257.125 29.4706 254.742 27.0872 254.742 24.1471C254.742 21.207 257.125 18.8235 260.065 18.8235C263.004 18.8235 265.387 21.207 265.387 24.1471Z" fill="#F8FAFC"/>
<path d="M297.323 24.1471C297.323 27.0872 294.94 29.4706 292 29.4706C289.06 29.4706 286.677 27.0872 286.677 24.1471C286.677 21.207 289.06 18.8235 292 18.8235C294.94 18.8235 297.323 21.207 297.323 24.1471Z" fill="#F8FAFC"/>
<path d="M329.258 24.1471C329.258 27.0872 326.875 29.4706 323.936 29.4706C320.996 29.4706 318.613 27.0872 318.613 24.1471C318.613 21.207 320.996 18.8235 323.936 18.8235C326.875 18.8235 329.258 21.207 329.258 24.1471Z" fill="#F8FAFC"/>
<path d="M361.194 24.1471C361.194 27.0872 358.811 29.4706 355.871 29.4706C352.931 29.4706 350.548 27.0872 350.548 24.1471C350.548 21.207 352.931 18.8235 355.871 18.8235C358.811 18.8235 361.194 21.207 361.194 24.1471Z" fill="#F8FAFC"/>
<path d="M393.129 24.1471C393.129 27.0872 390.746 29.4706 387.806 29.4706C384.867 29.4706 382.484 27.0872 382.484 24.1471C382.484 21.207 384.867 18.8235 387.806 18.8235C390.746 18.8235 393.129 21.207 393.129 24.1471Z" fill="#F8FAFC"/>
<path d="M425.065 24.1471C425.065 27.0872 422.682 29.4706 419.742 29.4706C416.802 29.4706 414.419 27.0872 414.419 24.1471C414.419 21.207 416.802 18.8235 419.742 18.8235C422.682 18.8235 425.065 21.207 425.065 24.1471Z" fill="#F8FAFC"/>
<path d="M457 24.1471C457 27.0872 454.617 29.4706 451.677 29.4706C448.738 29.4706 446.355 27.0872 446.355 24.1471C446.355 21.207 448.738 18.8235 451.677 18.8235C454.617 18.8235 457 21.207 457 24.1471Z" fill="#F8FAFC"/>
<path d="M137.645 56.0882C137.645 59.0283 135.262 61.4118 132.323 61.4118C129.383 61.4118 127 59.0283 127 56.0882C127 53.1481 129.383 50.7647 132.323 50.7647C135.262 50.7647 137.645 53.1481 137.645 56.0882Z" fill="#F8FAFC"/>
<path d="M169.581 56.0882C169.581 59.0283 167.198 61.4118 164.258 61.4118C161.318 61.4118 158.935 59.0283 158.935 56.0882C158.935 53.1481 161.318 50.7647 164.258 50.7647C167.198 50.7647 169.581 53.1481 169.581 56.0882Z" fill="#F8FAFC"/>
<path d="M201.516 56.0882C201.516 59.0283 199.133 61.4118 196.194 61.4118C193.254 61.4118 190.871 59.0283 190.871 56.0882C190.871 53.1481 193.254 50.7647 196.194 50.7647C199.133 50.7647 201.516 53.1481 201.516 56.0882Z" fill="#F8FAFC"/>
<path d="M233.452 56.0882C233.452 59.0283 231.069 61.4118 228.129 61.4118C225.189 61.4118 222.806 59.0283 222.806 56.0882C222.806 53.1481 225.189 50.7647 228.129 50.7647C231.069 50.7647 233.452 53.1481 233.452 56.0882Z" fill="#F8FAFC"/>
<path d="M265.387 56.0882C265.387 59.0283 263.004 61.4118 260.065 61.4118C257.125 61.4118 254.742 59.0283 254.742 56.0882C254.742 53.1481 257.125 50.7647 260.065 50.7647C263.004 50.7647 265.387 53.1481 265.387 56.0882Z" fill="#F8FAFC"/>
<path d="M297.323 56.0882C297.323 59.0283 294.94 61.4118 292 61.4118C289.06 61.4118 286.677 59.0283 286.677 56.0882C286.677 53.1481 289.06 50.7647 292 50.7647C294.94 50.7647 297.323 53.1481 297.323 56.0882Z" fill="#F8FAFC"/>
<path d="M329.258 56.0882C329.258 59.0283 326.875 61.4118 323.936 61.4118C320.996 61.4118 318.613 59.0283 318.613 56.0882C318.613 53.1481 320.996 50.7647 323.936 50.7647C326.875 50.7647 329.258 53.1481 329.258 56.0882Z" fill="#F8FAFC"/>
<path d="M361.194 56.0882C361.194 59.0283 358.811 61.4118 355.871 61.4118C352.931 61.4118 350.548 59.0283 350.548 56.0882C350.548 53.1481 352.931 50.7647 355.871 50.7647C358.811 50.7647 361.194 53.1481 361.194 56.0882Z" fill="#F8FAFC"/>
<path d="M393.129 56.0882C393.129 59.0283 390.746 61.4118 387.806 61.4118C384.867 61.4118 382.484 59.0283 382.484 56.0882C382.484 53.1481 384.867 50.7647 387.806 50.7647C390.746 50.7647 393.129 53.1481 393.129 56.0882Z" fill="#F8FAFC"/>
<path d="M425.065 56.0882C425.065 59.0283 422.682 61.4118 419.742 61.4118C416.802 61.4118 414.419 59.0283 414.419 56.0882C414.419 53.1481 416.802 50.7647 419.742 50.7647C422.682 50.7647 425.065 53.1481 425.065 56.0882Z" fill="#F8FAFC"/>
<path d="M457 56.0882C457 59.0283 454.617 61.4118 451.677 61.4118C448.738 61.4118 446.355 59.0283 446.355 56.0882C446.355 53.1481 448.738 50.7647 451.677 50.7647C454.617 50.7647 457 53.1481 457 56.0882Z" fill="#F8FAFC"/>
<path d="M137.645 88.0294C137.645 90.9695 135.262 93.3529 132.323 93.3529C129.383 93.3529 127 90.9695 127 88.0294C127 85.0893 129.383 82.7059 132.323 82.7059C135.262 82.7059 137.645 85.0893 137.645 88.0294Z" fill="#F8FAFC"/>
<path d="M169.581 88.0294C169.581 90.9695 167.198 93.3529 164.258 93.3529C161.318 93.3529 158.935 90.9695 158.935 88.0294C158.935 85.0893 161.318 82.7059 164.258 82.7059C167.198 82.7059 169.581 85.0893 169.581 88.0294Z" fill="#F8FAFC"/>
<path d="M201.516 88.0294C201.516 90.9695 199.133 93.3529 196.194 93.3529C193.254 93.3529 190.871 90.9695 190.871 88.0294C190.871 85.0893 193.254 82.7059 196.194 82.7059C199.133 82.7059 201.516 85.0893 201.516 88.0294Z" fill="#F8FAFC"/>
<path d="M233.452 88.0294C233.452 90.9695 231.069 93.3529 228.129 93.3529C225.189 93.3529 222.806 90.9695 222.806 88.0294C222.806 85.0893 225.189 82.7059 228.129 82.7059C231.069 82.7059 233.452 85.0893 233.452 88.0294Z" fill="#F8FAFC"/>
<path d="M265.387 88.0294C265.387 90.9695 263.004 93.3529 260.065 93.3529C257.125 93.3529 254.742 90.9695 254.742 88.0294C254.742 85.0893 257.125 82.7059 260.065 82.7059C263.004 82.7059 265.387 85.0893 265.387 88.0294Z" fill="#F8FAFC"/>
<path d="M297.323 88.0294C297.323 90.9695 294.94 93.3529 292 93.3529C289.06 93.3529 286.677 90.9695 286.677 88.0294C286.677 85.0893 289.06 82.7059 292 82.7059C294.94 82.7059 297.323 85.0893 297.323 88.0294Z" fill="#F8FAFC"/>
<path d="M329.258 88.0294C329.258 90.9695 326.875 93.3529 323.936 93.3529C320.996 93.3529 318.613 90.9695 318.613 88.0294C318.613 85.0893 320.996 82.7059 323.936 82.7059C326.875 82.7059 329.258 85.0893 329.258 88.0294Z" fill="#F8FAFC"/>
<path d="M361.194 88.0294C361.194 90.9695 358.811 93.3529 355.871 93.3529C352.931 93.3529 350.548 90.9695 350.548 88.0294C350.548 85.0893 352.931 82.7059 355.871 82.7059C358.811 82.7059 361.194 85.0893 361.194 88.0294Z" fill="#F8FAFC"/>
<path d="M393.129 88.0294C393.129 90.9695 390.746 93.3529 387.806 93.3529C384.867 93.3529 382.484 90.9695 382.484 88.0294C382.484 85.0893 384.867 82.7059 387.806 82.7059C390.746 82.7059 393.129 85.0893 393.129 88.0294Z" fill="#F8FAFC"/>
<path d="M425.065 88.0294C425.065 90.9695 422.682 93.3529 419.742 93.3529C416.802 93.3529 414.419 90.9695 414.419 88.0294C414.419 85.0893 416.802 82.7059 419.742 82.7059C422.682 82.7059 425.065 85.0893 425.065 88.0294Z" fill="#F8FAFC"/>
<path d="M457 88.0294C457 90.9695 454.617 93.3529 451.677 93.3529C448.738 93.3529 446.355 90.9695 446.355 88.0294C446.355 85.0893 448.738 82.7059 451.677 82.7059C454.617 82.7059 457 85.0893 457 88.0294Z" fill="#F8FAFC"/>
<path d="M137.645 119.971C137.645 122.911 135.262 125.294 132.323 125.294C129.383 125.294 127 122.911 127 119.971C127 117.03 129.383 114.647 132.323 114.647C135.262 114.647 137.645 117.03 137.645 119.971Z" fill="#F8FAFC"/>
<path d="M169.581 119.971C169.581 122.911 167.198 125.294 164.258 125.294C161.318 125.294 158.935 122.911 158.935 119.971C158.935 117.03 161.318 114.647 164.258 114.647C167.198 114.647 169.581 117.03 169.581 119.971Z" fill="#F8FAFC"/>
<path d="M201.516 119.971C201.516 122.911 199.133 125.294 196.194 125.294C193.254 125.294 190.871 122.911 190.871 119.971C190.871 117.03 193.254 114.647 196.194 114.647C199.133 114.647 201.516 117.03 201.516 119.971Z" fill="#F8FAFC"/>
<path d="M233.452 119.971C233.452 122.911 231.069 125.294 228.129 125.294C225.189 125.294 222.806 122.911 222.806 119.971C222.806 117.03 225.189 114.647 228.129 114.647C231.069 114.647 233.452 117.03 233.452 119.971Z" fill="#F8FAFC"/>
<path d="M265.387 119.971C265.387 122.911 263.004 125.294 260.065 125.294C257.125 125.294 254.742 122.911 254.742 119.971C254.742 117.03 257.125 114.647 260.065 114.647C263.004 114.647 265.387 117.03 265.387 119.971Z" fill="#F8FAFC"/>
<path d="M297.323 119.971C297.323 122.911 294.94 125.294 292 125.294C289.06 125.294 286.677 122.911 286.677 119.971C286.677 117.03 289.06 114.647 292 114.647C294.94 114.647 297.323 117.03 297.323 119.971Z" fill="#F8FAFC"/>
<path d="M329.258 119.971C329.258 122.911 326.875 125.294 323.936 125.294C320.996 125.294 318.613 122.911 318.613 119.971C318.613 117.03 320.996 114.647 323.936 114.647C326.875 114.647 329.258 117.03 329.258 119.971Z" fill="#F8FAFC"/>
<path d="M361.194 119.971C361.194 122.911 358.811 125.294 355.871 125.294C352.931 125.294 350.548 122.911 350.548 119.971C350.548 117.03 352.931 114.647 355.871 114.647C358.811 114.647 361.194 117.03 361.194 119.971Z" fill="#F8FAFC"/>
<path d="M393.129 119.971C393.129 122.911 390.746 125.294 387.806 125.294C384.867 125.294 382.484 122.911 382.484 119.971C382.484 117.03 384.867 114.647 387.806 114.647C390.746 114.647 393.129 117.03 393.129 119.971Z" fill="#F8FAFC"/>
<path d="M425.065 119.971C425.065 122.911 422.682 125.294 419.742 125.294C416.802 125.294 414.419 122.911 414.419 119.971C414.419 117.03 416.802 114.647 419.742 114.647C422.682 114.647 425.065 117.03 425.065 119.971Z" fill="#F8FAFC"/>
<path d="M457 119.971C457 122.911 454.617 125.294 451.677 125.294C448.738 125.294 446.355 122.911 446.355 119.971C446.355 117.03 448.738 114.647 451.677 114.647C454.617 114.647 457 117.03 457 119.971Z" fill="#F8FAFC"/>
<path d="M137.645 151.912C137.645 154.852 135.262 157.235 132.323 157.235C129.383 157.235 127 154.852 127 151.912C127 148.972 129.383 146.588 132.323 146.588C135.262 146.588 137.645 148.972 137.645 151.912Z" fill="#F8FAFC"/>
<path d="M169.581 151.912C169.581 154.852 167.198 157.235 164.258 157.235C161.318 157.235 158.935 154.852 158.935 151.912C158.935 148.972 161.318 146.588 164.258 146.588C167.198 146.588 169.581 148.972 169.581 151.912Z" fill="#F8FAFC"/>
<path d="M201.516 151.912C201.516 154.852 199.133 157.235 196.194 157.235C193.254 157.235 190.871 154.852 190.871 151.912C190.871 148.972 193.254 146.588 196.194 146.588C199.133 146.588 201.516 148.972 201.516 151.912Z" fill="#F8FAFC"/>
<path d="M233.452 151.912C233.452 154.852 231.069 157.235 228.129 157.235C225.189 157.235 222.806 154.852 222.806 151.912C222.806 148.972 225.189 146.588 228.129 146.588C231.069 146.588 233.452 148.972 233.452 151.912Z" fill="#F8FAFC"/>
<path d="M265.387 151.912C265.387 154.852 263.004 157.235 260.065 157.235C257.125 157.235 254.742 154.852 254.742 151.912C254.742 148.972 257.125 146.588 260.065 146.588C263.004 146.588 265.387 148.972 265.387 151.912Z" fill="#F8FAFC"/>
<path d="M297.323 151.912C297.323 154.852 294.94 157.235 292 157.235C289.06 157.235 286.677 154.852 286.677 151.912C286.677 148.972 289.06 146.588 292 146.588C294.94 146.588 297.323 148.972 297.323 151.912Z" fill="#F8FAFC"/>
<path d="M329.258 151.912C329.258 154.852 326.875 157.235 323.936 157.235C320.996 157.235 318.613 154.852 318.613 151.912C318.613 148.972 320.996 146.588 323.936 146.588C326.875 146.588 329.258 148.972 329.258 151.912Z" fill="#F8FAFC"/>
<path d="M361.194 151.912C361.194 154.852 358.811 157.235 355.871 157.235C352.931 157.235 350.548 154.852 350.548 151.912C350.548 148.972 352.931 146.588 355.871 146.588C358.811 146.588 361.194 148.972 361.194 151.912Z" fill="#F8FAFC"/>
<path d="M393.129 151.912C393.129 154.852 390.746 157.235 387.806 157.235C384.867 157.235 382.484 154.852 382.484 151.912C382.484 148.972 384.867 146.588 387.806 146.588C390.746 146.588 393.129 148.972 393.129 151.912Z" fill="#F8FAFC"/>
<path d="M425.065 151.912C425.065 154.852 422.682 157.235 419.742 157.235C416.802 157.235 414.419 154.852 414.419 151.912C414.419 148.972 416.802 146.588 419.742 146.588C422.682 146.588 425.065 148.972 425.065 151.912Z" fill="#F8FAFC"/>
<path d="M457 151.912C457 154.852 454.617 157.235 451.677 157.235C448.738 157.235 446.355 154.852 446.355 151.912C446.355 148.972 448.738 146.588 451.677 146.588C454.617 146.588 457 148.972 457 151.912Z" fill="#F8FAFC"/>
<path d="M137.645 183.853C137.645 186.793 135.262 189.176 132.323 189.176C129.383 189.176 127 186.793 127 183.853C127 180.913 129.383 178.529 132.323 178.529C135.262 178.529 137.645 180.913 137.645 183.853Z" fill="#F8FAFC"/>
<path d="M169.581 183.853C169.581 186.793 167.198 189.176 164.258 189.176C161.318 189.176 158.935 186.793 158.935 183.853C158.935 180.913 161.318 178.529 164.258 178.529C167.198 178.529 169.581 180.913 169.581 183.853Z" fill="#F8FAFC"/>
<path d="M201.516 183.853C201.516 186.793 199.133 189.176 196.194 189.176C193.254 189.176 190.871 186.793 190.871 183.853C190.871 180.913 193.254 178.529 196.194 178.529C199.133 178.529 201.516 180.913 201.516 183.853Z" fill="#F8FAFC"/>
<path d="M233.452 183.853C233.452 186.793 231.069 189.176 228.129 189.176C225.189 189.176 222.806 186.793 222.806 183.853C222.806 180.913 225.189 178.529 228.129 178.529C231.069 178.529 233.452 180.913 233.452 183.853Z" fill="#F8FAFC"/>
<path d="M265.387 183.853C265.387 186.793 263.004 189.176 260.065 189.176C257.125 189.176 254.742 186.793 254.742 183.853C254.742 180.913 257.125 178.529 260.065 178.529C263.004 178.529 265.387 180.913 265.387 183.853Z" fill="#F8FAFC"/>
<path d="M297.323 183.853C297.323 186.793 294.94 189.176 292 189.176C289.06 189.176 286.677 186.793 286.677 183.853C286.677 180.913 289.06 178.529 292 178.529C294.94 178.529 297.323 180.913 297.323 183.853Z" fill="#F8FAFC"/>
<path d="M329.258 183.853C329.258 186.793 326.875 189.176 323.936 189.176C320.996 189.176 318.613 186.793 318.613 183.853C318.613 180.913 320.996 178.529 323.936 178.529C326.875 178.529 329.258 180.913 329.258 183.853Z" fill="#F8FAFC"/>
<path d="M361.194 183.853C361.194 186.793 358.811 189.176 355.871 189.176C352.931 189.176 350.548 186.793 350.548 183.853C350.548 180.913 352.931 178.529 355.871 178.529C358.811 178.529 361.194 180.913 361.194 183.853Z" fill="#F8FAFC"/>
<path d="M393.129 183.853C393.129 186.793 390.746 189.176 387.806 189.176C384.867 189.176 382.484 186.793 382.484 183.853C382.484 180.913 384.867 178.529 387.806 178.529C390.746 178.529 393.129 180.913 393.129 183.853Z" fill="#F8FAFC"/>
<path d="M425.065 183.853C425.065 186.793 422.682 189.176 419.742 189.176C416.802 189.176 414.419 186.793 414.419 183.853C414.419 180.913 416.802 178.529 419.742 178.529C422.682 178.529 425.065 180.913 425.065 183.853Z" fill="#F8FAFC"/>
<path d="M457 183.853C457 186.793 454.617 189.176 451.677 189.176C448.738 189.176 446.355 186.793 446.355 183.853C446.355 180.913 448.738 178.529 451.677 178.529C454.617 178.529 457 180.913 457 183.853Z" fill="#F8FAFC"/>
<path d="M137.645 215.794C137.645 218.734 135.262 221.118 132.323 221.118C129.383 221.118 127 218.734 127 215.794C127 212.854 129.383 210.471 132.323 210.471C135.262 210.471 137.645 212.854 137.645 215.794Z" fill="#F8FAFC"/>
<path d="M169.581 215.794C169.581 218.734 167.198 221.118 164.258 221.118C161.318 221.118 158.935 218.734 158.935 215.794C158.935 212.854 161.318 210.471 164.258 210.471C167.198 210.471 169.581 212.854 169.581 215.794Z" fill="#F8FAFC"/>
<path d="M201.516 215.794C201.516 218.734 199.133 221.118 196.194 221.118C193.254 221.118 190.871 218.734 190.871 215.794C190.871 212.854 193.254 210.471 196.194 210.471C199.133 210.471 201.516 212.854 201.516 215.794Z" fill="#F8FAFC"/>
<path d="M233.452 215.794C233.452 218.734 231.069 221.118 228.129 221.118C225.189 221.118 222.806 218.734 222.806 215.794C222.806 212.854 225.189 210.471 228.129 210.471C231.069 210.471 233.452 212.854 233.452 215.794Z" fill="#F8FAFC"/>
<path d="M265.387 215.794C265.387 218.734 263.004 221.118 260.065 221.118C257.125 221.118 254.742 218.734 254.742 215.794C254.742 212.854 257.125 210.471 260.065 210.471C263.004 210.471 265.387 212.854 265.387 215.794Z" fill="#F8FAFC"/>
<path d="M297.323 215.794C297.323 218.734 294.94 221.118 292 221.118C289.06 221.118 286.677 218.734 286.677 215.794C286.677 212.854 289.06 210.471 292 210.471C294.94 210.471 297.323 212.854 297.323 215.794Z" fill="#F8FAFC"/>
<path d="M329.258 215.794C329.258 218.734 326.875 221.118 323.936 221.118C320.996 221.118 318.613 218.734 318.613 215.794C318.613 212.854 320.996 210.471 323.936 210.471C326.875 210.471 329.258 212.854 329.258 215.794Z" fill="#F8FAFC"/>
<path d="M361.194 215.794C361.194 218.734 358.811 221.118 355.871 221.118C352.931 221.118 350.548 218.734 350.548 215.794C350.548 212.854 352.931 210.471 355.871 210.471C358.811 210.471 361.194 212.854 361.194 215.794Z" fill="#F8FAFC"/>
<path d="M393.129 215.794C393.129 218.734 390.746 221.118 387.806 221.118C384.867 221.118 382.484 218.734 382.484 215.794C382.484 212.854 384.867 210.471 387.806 210.471C390.746 210.471 393.129 212.854 393.129 215.794Z" fill="#F8FAFC"/>
<path d="M425.065 215.794C425.065 218.734 422.682 221.118 419.742 221.118C416.802 221.118 414.419 218.734 414.419 215.794C414.419 212.854 416.802 210.471 419.742 210.471C422.682 210.471 425.065 212.854 425.065 215.794Z" fill="#F8FAFC"/>
<path d="M457 215.794C457 218.734 454.617 221.118 451.677 221.118C448.738 221.118 446.355 218.734 446.355 215.794C446.355 212.854 448.738 210.471 451.677 210.471C454.617 210.471 457 212.854 457 215.794Z" fill="#F8FAFC"/>
<path d="M137.645 247.735C137.645 250.675 135.262 253.059 132.323 253.059C129.383 253.059 127 250.675 127 247.735C127 244.795 129.383 242.412 132.323 242.412C135.262 242.412 137.645 244.795 137.645 247.735Z" fill="#F8FAFC"/>
<path d="M169.581 247.735C169.581 250.675 167.198 253.059 164.258 253.059C161.318 253.059 158.935 250.675 158.935 247.735C158.935 244.795 161.318 242.412 164.258 242.412C167.198 242.412 169.581 244.795 169.581 247.735Z" fill="#F8FAFC"/>
<path d="M201.516 247.735C201.516 250.675 199.133 253.059 196.194 253.059C193.254 253.059 190.871 250.675 190.871 247.735C190.871 244.795 193.254 242.412 196.194 242.412C199.133 242.412 201.516 244.795 201.516 247.735Z" fill="#F8FAFC"/>
<path d="M233.452 247.735C233.452 250.675 231.069 253.059 228.129 253.059C225.189 253.059 222.806 250.675 222.806 247.735C222.806 244.795 225.189 242.412 228.129 242.412C231.069 242.412 233.452 244.795 233.452 247.735Z" fill="#F8FAFC"/>
<path d="M265.387 247.735C265.387 250.675 263.004 253.059 260.065 253.059C257.125 253.059 254.742 250.675 254.742 247.735C254.742 244.795 257.125 242.412 260.065 242.412C263.004 242.412 265.387 244.795 265.387 247.735Z" fill="#F8FAFC"/>
<path d="M297.323 247.735C297.323 250.675 294.94 253.059 292 253.059C289.06 253.059 286.677 250.675 286.677 247.735C286.677 244.795 289.06 242.412 292 242.412C294.94 242.412 297.323 244.795 297.323 247.735Z" fill="#F8FAFC"/>
<path d="M329.258 247.735C329.258 250.675 326.875 253.059 323.936 253.059C320.996 253.059 318.613 250.675 318.613 247.735C318.613 244.795 320.996 242.412 323.936 242.412C326.875 242.412 329.258 244.795 329.258 247.735Z" fill="#F8FAFC"/>
<path d="M361.194 247.735C361.194 250.675 358.811 253.059 355.871 253.059C352.931 253.059 350.548 250.675 350.548 247.735C350.548 244.795 352.931 242.412 355.871 242.412C358.811 242.412 361.194 244.795 361.194 247.735Z" fill="#F8FAFC"/>
<path d="M393.129 247.735C393.129 250.675 390.746 253.059 387.806 253.059C384.867 253.059 382.484 250.675 382.484 247.735C382.484 244.795 384.867 242.412 387.806 242.412C390.746 242.412 393.129 244.795 393.129 247.735Z" fill="#F8FAFC"/>
<path d="M425.065 247.735C425.065 250.675 422.682 253.059 419.742 253.059C416.802 253.059 414.419 250.675 414.419 247.735C414.419 244.795 416.802 242.412 419.742 242.412C422.682 242.412 425.065 244.795 425.065 247.735Z" fill="#F8FAFC"/>
<path d="M457 247.735C457 250.675 454.617 253.059 451.677 253.059C448.738 253.059 446.355 250.675 446.355 247.735C446.355 244.795 448.738 242.412 451.677 242.412C454.617 242.412 457 244.795 457 247.735Z" fill="#F8FAFC"/>
<path d="M137.645 279.676C137.645 282.617 135.262 285 132.323 285C129.383 285 127 282.617 127 279.676C127 276.736 129.383 274.353 132.323 274.353C135.262 274.353 137.645 276.736 137.645 279.676Z" fill="#F8FAFC"/>
<path d="M169.581 279.676C169.581 282.617 167.198 285 164.258 285C161.318 285 158.935 282.617 158.935 279.676C158.935 276.736 161.318 274.353 164.258 274.353C167.198 274.353 169.581 276.736 169.581 279.676Z" fill="#F8FAFC"/>
<path d="M201.516 279.676C201.516 282.617 199.133 285 196.194 285C193.254 285 190.871 282.617 190.871 279.676C190.871 276.736 193.254 274.353 196.194 274.353C199.133 274.353 201.516 276.736 201.516 279.676Z" fill="#F8FAFC"/>
<path d="M233.452 279.676C233.452 282.617 231.069 285 228.129 285C225.189 285 222.806 282.617 222.806 279.676C222.806 276.736 225.189 274.353 228.129 274.353C231.069 274.353 233.452 276.736 233.452 279.676Z" fill="#F8FAFC"/>
<path d="M265.387 279.676C265.387 282.617 263.004 285 260.065 285C257.125 285 254.742 282.617 254.742 279.676C254.742 276.736 257.125 274.353 260.065 274.353C263.004 274.353 265.387 276.736 265.387 279.676Z" fill="#F8FAFC"/>
<path d="M297.323 279.676C297.323 282.617 294.94 285 292 285C289.06 285 286.677 282.617 286.677 279.676C286.677 276.736 289.06 274.353 292 274.353C294.94 274.353 297.323 276.736 297.323 279.676Z" fill="#F8FAFC"/>
<path d="M329.258 279.676C329.258 282.617 326.875 285 323.936 285C320.996 285 318.613 282.617 318.613 279.676C318.613 276.736 320.996 274.353 323.936 274.353C326.875 274.353 329.258 276.736 329.258 279.676Z" fill="#F8FAFC"/>
<path d="M361.194 279.676C361.194 282.617 358.811 285 355.871 285C352.931 285 350.548 282.617 350.548 279.676C350.548 276.736 352.931 274.353 355.871 274.353C358.811 274.353 361.194 276.736 361.194 279.676Z" fill="#F8FAFC"/>
<path d="M393.129 279.676C393.129 282.617 390.746 285 387.806 285C384.867 285 382.484 282.617 382.484 279.676C382.484 276.736 384.867 274.353 387.806 274.353C390.746 274.353 393.129 276.736 393.129 279.676Z" fill="#F8FAFC"/>
<path d="M425.065 279.676C425.065 282.617 422.682 285 419.742 285C416.802 285 414.419 282.617 414.419 279.676C414.419 276.736 416.802 274.353 419.742 274.353C422.682 274.353 425.065 276.736 425.065 279.676Z" fill="#F8FAFC"/>
<path d="M457 279.676C457 282.617 454.617 285 451.677 285C448.738 285 446.355 282.617 446.355 279.676C446.355 276.736 448.738 274.353 451.677 274.353C454.617 274.353 457 276.736 457 279.676Z" fill="#F8FAFC"/>
<defs>
<filter id="filter0_f_439_715" x="-372" y="-100" width="736" height="736" filterUnits="userSpaceOnUse" color-interpolation-filters="sRGB">
<feFlood flood-opacity="0" result="BackgroundImageFix"/>
<feBlend mode="normal" in="SourceGraphic" in2="BackgroundImageFix" result="shape"/>
<feGaussianBlur stdDeviation="64" result="effect1_foregroundBlur_439_715"/>
</filter>
</defs>
</svg>
