<svg width="1726" height="1004" viewBox="0 0 1726 1004" fill="none" xmlns="http://www.w3.org/2000/svg">
<path d="M240.645 522.324C240.645 525.264 238.262 527.647 235.323 527.647C232.383 527.647 230 525.264 230 522.324C230 519.383 232.383 517 235.323 517C238.262 517 240.645 519.383 240.645 522.324Z" fill="#F8FAFC"/>
<path d="M272.581 522.324C272.581 525.264 270.198 527.647 267.258 527.647C264.318 527.647 261.935 525.264 261.935 522.324C261.935 519.383 264.318 517 267.258 517C270.198 517 272.581 519.383 272.581 522.324Z" fill="#F8FAFC"/>
<path d="M304.516 522.324C304.516 525.264 302.133 527.647 299.194 527.647C296.254 527.647 293.871 525.264 293.871 522.324C293.871 519.383 296.254 517 299.194 517C302.133 517 304.516 519.383 304.516 522.324Z" fill="#F8FAFC"/>
<path d="M336.452 522.324C336.452 525.264 334.069 527.647 331.129 527.647C328.189 527.647 325.806 525.264 325.806 522.324C325.806 519.383 328.189 517 331.129 517C334.069 517 336.452 519.383 336.452 522.324Z" fill="#F8FAFC"/>
<path d="M368.387 522.324C368.387 525.264 366.004 527.647 363.065 527.647C360.125 527.647 357.742 525.264 357.742 522.324C357.742 519.383 360.125 517 363.065 517C366.004 517 368.387 519.383 368.387 522.324Z" fill="#F8FAFC"/>
<path d="M400.323 522.324C400.323 525.264 397.94 527.647 395 527.647C392.06 527.647 389.677 525.264 389.677 522.324C389.677 519.383 392.06 517 395 517C397.94 517 400.323 519.383 400.323 522.324Z" fill="#F8FAFC"/>
<path d="M432.258 522.324C432.258 525.264 429.875 527.647 426.935 527.647C423.996 527.647 421.613 525.264 421.613 522.324C421.613 519.383 423.996 517 426.935 517C429.875 517 432.258 519.383 432.258 522.324Z" fill="#F8FAFC"/>
<path d="M464.194 522.324C464.194 525.264 461.811 527.647 458.871 527.647C455.931 527.647 453.548 525.264 453.548 522.324C453.548 519.383 455.931 517 458.871 517C461.811 517 464.194 519.383 464.194 522.324Z" fill="#F8FAFC"/>
<path d="M496.129 522.324C496.129 525.264 493.746 527.647 490.806 527.647C487.867 527.647 485.484 525.264 485.484 522.324C485.484 519.383 487.867 517 490.806 517C493.746 517 496.129 519.383 496.129 522.324Z" fill="#F8FAFC"/>
<path d="M528.065 522.324C528.065 525.264 525.682 527.647 522.742 527.647C519.802 527.647 517.419 525.264 517.419 522.324C517.419 519.383 519.802 517 522.742 517C525.682 517 528.065 519.383 528.065 522.324Z" fill="#F8FAFC"/>
<path d="M560 522.324C560 525.264 557.617 527.647 554.677 527.647C551.738 527.647 549.355 525.264 549.355 522.324C549.355 519.383 551.738 517 554.677 517C557.617 517 560 519.383 560 522.324Z" fill="#F8FAFC"/>
<path d="M240.645 554.265C240.645 557.205 238.262 559.588 235.323 559.588C232.383 559.588 230 557.205 230 554.265C230 551.325 232.383 548.941 235.323 548.941C238.262 548.941 240.645 551.325 240.645 554.265Z" fill="#F8FAFC"/>
<path d="M272.581 554.265C272.581 557.205 270.198 559.588 267.258 559.588C264.318 559.588 261.935 557.205 261.935 554.265C261.935 551.325 264.318 548.941 267.258 548.941C270.198 548.941 272.581 551.325 272.581 554.265Z" fill="#F8FAFC"/>
<path d="M304.516 554.265C304.516 557.205 302.133 559.588 299.194 559.588C296.254 559.588 293.871 557.205 293.871 554.265C293.871 551.325 296.254 548.941 299.194 548.941C302.133 548.941 304.516 551.325 304.516 554.265Z" fill="#F8FAFC"/>
<path d="M336.452 554.265C336.452 557.205 334.069 559.588 331.129 559.588C328.189 559.588 325.806 557.205 325.806 554.265C325.806 551.325 328.189 548.941 331.129 548.941C334.069 548.941 336.452 551.325 336.452 554.265Z" fill="#F8FAFC"/>
<path d="M368.387 554.265C368.387 557.205 366.004 559.588 363.065 559.588C360.125 559.588 357.742 557.205 357.742 554.265C357.742 551.325 360.125 548.941 363.065 548.941C366.004 548.941 368.387 551.325 368.387 554.265Z" fill="#F8FAFC"/>
<path d="M400.323 554.265C400.323 557.205 397.94 559.588 395 559.588C392.06 559.588 389.677 557.205 389.677 554.265C389.677 551.325 392.06 548.941 395 548.941C397.94 548.941 400.323 551.325 400.323 554.265Z" fill="#F8FAFC"/>
<path d="M432.258 554.265C432.258 557.205 429.875 559.588 426.935 559.588C423.996 559.588 421.613 557.205 421.613 554.265C421.613 551.325 423.996 548.941 426.935 548.941C429.875 548.941 432.258 551.325 432.258 554.265Z" fill="#F8FAFC"/>
<path d="M464.194 554.265C464.194 557.205 461.811 559.588 458.871 559.588C455.931 559.588 453.548 557.205 453.548 554.265C453.548 551.325 455.931 548.941 458.871 548.941C461.811 548.941 464.194 551.325 464.194 554.265Z" fill="#F8FAFC"/>
<path d="M496.129 554.265C496.129 557.205 493.746 559.588 490.806 559.588C487.867 559.588 485.484 557.205 485.484 554.265C485.484 551.325 487.867 548.941 490.806 548.941C493.746 548.941 496.129 551.325 496.129 554.265Z" fill="#F8FAFC"/>
<path d="M528.065 554.265C528.065 557.205 525.682 559.588 522.742 559.588C519.802 559.588 517.419 557.205 517.419 554.265C517.419 551.325 519.802 548.941 522.742 548.941C525.682 548.941 528.065 551.325 528.065 554.265Z" fill="#F8FAFC"/>
<path d="M560 554.265C560 557.205 557.617 559.588 554.677 559.588C551.738 559.588 549.355 557.205 549.355 554.265C549.355 551.325 551.738 548.941 554.677 548.941C557.617 548.941 560 551.325 560 554.265Z" fill="#F8FAFC"/>
<path d="M240.645 586.206C240.645 589.146 238.262 591.529 235.323 591.529C232.383 591.529 230 589.146 230 586.206C230 583.266 232.383 580.882 235.323 580.882C238.262 580.882 240.645 583.266 240.645 586.206Z" fill="#F8FAFC"/>
<path d="M272.581 586.206C272.581 589.146 270.198 591.529 267.258 591.529C264.318 591.529 261.935 589.146 261.935 586.206C261.935 583.266 264.318 580.882 267.258 580.882C270.198 580.882 272.581 583.266 272.581 586.206Z" fill="#F8FAFC"/>
<path d="M304.516 586.206C304.516 589.146 302.133 591.529 299.194 591.529C296.254 591.529 293.871 589.146 293.871 586.206C293.871 583.266 296.254 580.882 299.194 580.882C302.133 580.882 304.516 583.266 304.516 586.206Z" fill="#F8FAFC"/>
<path d="M336.452 586.206C336.452 589.146 334.069 591.529 331.129 591.529C328.189 591.529 325.806 589.146 325.806 586.206C325.806 583.266 328.189 580.882 331.129 580.882C334.069 580.882 336.452 583.266 336.452 586.206Z" fill="#F8FAFC"/>
<path d="M368.387 586.206C368.387 589.146 366.004 591.529 363.065 591.529C360.125 591.529 357.742 589.146 357.742 586.206C357.742 583.266 360.125 580.882 363.065 580.882C366.004 580.882 368.387 583.266 368.387 586.206Z" fill="#F8FAFC"/>
<path d="M400.323 586.206C400.323 589.146 397.94 591.529 395 591.529C392.06 591.529 389.677 589.146 389.677 586.206C389.677 583.266 392.06 580.882 395 580.882C397.94 580.882 400.323 583.266 400.323 586.206Z" fill="#F8FAFC"/>
<path d="M432.258 586.206C432.258 589.146 429.875 591.529 426.935 591.529C423.996 591.529 421.613 589.146 421.613 586.206C421.613 583.266 423.996 580.882 426.935 580.882C429.875 580.882 432.258 583.266 432.258 586.206Z" fill="#F8FAFC"/>
<path d="M464.194 586.206C464.194 589.146 461.811 591.529 458.871 591.529C455.931 591.529 453.548 589.146 453.548 586.206C453.548 583.266 455.931 580.882 458.871 580.882C461.811 580.882 464.194 583.266 464.194 586.206Z" fill="#F8FAFC"/>
<path d="M496.129 586.206C496.129 589.146 493.746 591.529 490.806 591.529C487.867 591.529 485.484 589.146 485.484 586.206C485.484 583.266 487.867 580.882 490.806 580.882C493.746 580.882 496.129 583.266 496.129 586.206Z" fill="#F8FAFC"/>
<path d="M528.065 586.206C528.065 589.146 525.682 591.529 522.742 591.529C519.802 591.529 517.419 589.146 517.419 586.206C517.419 583.266 519.802 580.882 522.742 580.882C525.682 580.882 528.065 583.266 528.065 586.206Z" fill="#F8FAFC"/>
<path d="M560 586.206C560 589.146 557.617 591.529 554.677 591.529C551.738 591.529 549.355 589.146 549.355 586.206C549.355 583.266 551.738 580.882 554.677 580.882C557.617 580.882 560 583.266 560 586.206Z" fill="#F8FAFC"/>
<path d="M240.645 618.147C240.645 621.087 238.262 623.471 235.323 623.471C232.383 623.471 230 621.087 230 618.147C230 615.207 232.383 612.824 235.323 612.824C238.262 612.824 240.645 615.207 240.645 618.147Z" fill="#F8FAFC"/>
<path d="M272.581 618.147C272.581 621.087 270.198 623.471 267.258 623.471C264.318 623.471 261.935 621.087 261.935 618.147C261.935 615.207 264.318 612.824 267.258 612.824C270.198 612.824 272.581 615.207 272.581 618.147Z" fill="#F8FAFC"/>
<path d="M304.516 618.147C304.516 621.087 302.133 623.471 299.194 623.471C296.254 623.471 293.871 621.087 293.871 618.147C293.871 615.207 296.254 612.824 299.194 612.824C302.133 612.824 304.516 615.207 304.516 618.147Z" fill="#F8FAFC"/>
<path d="M336.452 618.147C336.452 621.087 334.069 623.471 331.129 623.471C328.189 623.471 325.806 621.087 325.806 618.147C325.806 615.207 328.189 612.824 331.129 612.824C334.069 612.824 336.452 615.207 336.452 618.147Z" fill="#F8FAFC"/>
<path d="M368.387 618.147C368.387 621.087 366.004 623.471 363.065 623.471C360.125 623.471 357.742 621.087 357.742 618.147C357.742 615.207 360.125 612.824 363.065 612.824C366.004 612.824 368.387 615.207 368.387 618.147Z" fill="#F8FAFC"/>
<path d="M400.323 618.147C400.323 621.087 397.94 623.471 395 623.471C392.06 623.471 389.677 621.087 389.677 618.147C389.677 615.207 392.06 612.824 395 612.824C397.94 612.824 400.323 615.207 400.323 618.147Z" fill="#F8FAFC"/>
<path d="M432.258 618.147C432.258 621.087 429.875 623.471 426.935 623.471C423.996 623.471 421.613 621.087 421.613 618.147C421.613 615.207 423.996 612.824 426.935 612.824C429.875 612.824 432.258 615.207 432.258 618.147Z" fill="#F8FAFC"/>
<path d="M464.194 618.147C464.194 621.087 461.811 623.471 458.871 623.471C455.931 623.471 453.548 621.087 453.548 618.147C453.548 615.207 455.931 612.824 458.871 612.824C461.811 612.824 464.194 615.207 464.194 618.147Z" fill="#F8FAFC"/>
<path d="M496.129 618.147C496.129 621.087 493.746 623.471 490.806 623.471C487.867 623.471 485.484 621.087 485.484 618.147C485.484 615.207 487.867 612.824 490.806 612.824C493.746 612.824 496.129 615.207 496.129 618.147Z" fill="#F8FAFC"/>
<path d="M528.065 618.147C528.065 621.087 525.682 623.471 522.742 623.471C519.802 623.471 517.419 621.087 517.419 618.147C517.419 615.207 519.802 612.824 522.742 612.824C525.682 612.824 528.065 615.207 528.065 618.147Z" fill="#F8FAFC"/>
<path d="M560 618.147C560 621.087 557.617 623.471 554.677 623.471C551.738 623.471 549.355 621.087 549.355 618.147C549.355 615.207 551.738 612.824 554.677 612.824C557.617 612.824 560 615.207 560 618.147Z" fill="#F8FAFC"/>
<path d="M240.645 650.088C240.645 653.028 238.262 655.412 235.323 655.412C232.383 655.412 230 653.028 230 650.088C230 647.148 232.383 644.765 235.323 644.765C238.262 644.765 240.645 647.148 240.645 650.088Z" fill="#F8FAFC"/>
<path d="M272.581 650.088C272.581 653.028 270.198 655.412 267.258 655.412C264.318 655.412 261.935 653.028 261.935 650.088C261.935 647.148 264.318 644.765 267.258 644.765C270.198 644.765 272.581 647.148 272.581 650.088Z" fill="#F8FAFC"/>
<path d="M304.516 650.088C304.516 653.028 302.133 655.412 299.194 655.412C296.254 655.412 293.871 653.028 293.871 650.088C293.871 647.148 296.254 644.765 299.194 644.765C302.133 644.765 304.516 647.148 304.516 650.088Z" fill="#F8FAFC"/>
<path d="M336.452 650.088C336.452 653.028 334.069 655.412 331.129 655.412C328.189 655.412 325.806 653.028 325.806 650.088C325.806 647.148 328.189 644.765 331.129 644.765C334.069 644.765 336.452 647.148 336.452 650.088Z" fill="#F8FAFC"/>
<path d="M368.387 650.088C368.387 653.028 366.004 655.412 363.065 655.412C360.125 655.412 357.742 653.028 357.742 650.088C357.742 647.148 360.125 644.765 363.065 644.765C366.004 644.765 368.387 647.148 368.387 650.088Z" fill="#F8FAFC"/>
<path d="M400.323 650.088C400.323 653.028 397.94 655.412 395 655.412C392.06 655.412 389.677 653.028 389.677 650.088C389.677 647.148 392.06 644.765 395 644.765C397.94 644.765 400.323 647.148 400.323 650.088Z" fill="#F8FAFC"/>
<path d="M432.258 650.088C432.258 653.028 429.875 655.412 426.935 655.412C423.996 655.412 421.613 653.028 421.613 650.088C421.613 647.148 423.996 644.765 426.935 644.765C429.875 644.765 432.258 647.148 432.258 650.088Z" fill="#F8FAFC"/>
<path d="M464.194 650.088C464.194 653.028 461.811 655.412 458.871 655.412C455.931 655.412 453.548 653.028 453.548 650.088C453.548 647.148 455.931 644.765 458.871 644.765C461.811 644.765 464.194 647.148 464.194 650.088Z" fill="#F8FAFC"/>
<path d="M496.129 650.088C496.129 653.028 493.746 655.412 490.806 655.412C487.867 655.412 485.484 653.028 485.484 650.088C485.484 647.148 487.867 644.765 490.806 644.765C493.746 644.765 496.129 647.148 496.129 650.088Z" fill="#F8FAFC"/>
<path d="M528.065 650.088C528.065 653.028 525.682 655.412 522.742 655.412C519.802 655.412 517.419 653.028 517.419 650.088C517.419 647.148 519.802 644.765 522.742 644.765C525.682 644.765 528.065 647.148 528.065 650.088Z" fill="#F8FAFC"/>
<path d="M560 650.088C560 653.028 557.617 655.412 554.677 655.412C551.738 655.412 549.355 653.028 549.355 650.088C549.355 647.148 551.738 644.765 554.677 644.765C557.617 644.765 560 647.148 560 650.088Z" fill="#F8FAFC"/>
<path d="M240.645 682.029C240.645 684.97 238.262 687.353 235.323 687.353C232.383 687.353 230 684.97 230 682.029C230 679.089 232.383 676.706 235.323 676.706C238.262 676.706 240.645 679.089 240.645 682.029Z" fill="#F8FAFC"/>
<path d="M272.581 682.029C272.581 684.97 270.198 687.353 267.258 687.353C264.318 687.353 261.935 684.97 261.935 682.029C261.935 679.089 264.318 676.706 267.258 676.706C270.198 676.706 272.581 679.089 272.581 682.029Z" fill="#F8FAFC"/>
<path d="M304.516 682.029C304.516 684.97 302.133 687.353 299.194 687.353C296.254 687.353 293.871 684.97 293.871 682.029C293.871 679.089 296.254 676.706 299.194 676.706C302.133 676.706 304.516 679.089 304.516 682.029Z" fill="#F8FAFC"/>
<path d="M336.452 682.029C336.452 684.97 334.069 687.353 331.129 687.353C328.189 687.353 325.806 684.97 325.806 682.029C325.806 679.089 328.189 676.706 331.129 676.706C334.069 676.706 336.452 679.089 336.452 682.029Z" fill="#F8FAFC"/>
<path d="M368.387 682.029C368.387 684.97 366.004 687.353 363.065 687.353C360.125 687.353 357.742 684.97 357.742 682.029C357.742 679.089 360.125 676.706 363.065 676.706C366.004 676.706 368.387 679.089 368.387 682.029Z" fill="#F8FAFC"/>
<path d="M400.323 682.029C400.323 684.97 397.94 687.353 395 687.353C392.06 687.353 389.677 684.97 389.677 682.029C389.677 679.089 392.06 676.706 395 676.706C397.94 676.706 400.323 679.089 400.323 682.029Z" fill="#F8FAFC"/>
<path d="M432.258 682.029C432.258 684.97 429.875 687.353 426.935 687.353C423.996 687.353 421.613 684.97 421.613 682.029C421.613 679.089 423.996 676.706 426.935 676.706C429.875 676.706 432.258 679.089 432.258 682.029Z" fill="#F8FAFC"/>
<path d="M464.194 682.029C464.194 684.97 461.811 687.353 458.871 687.353C455.931 687.353 453.548 684.97 453.548 682.029C453.548 679.089 455.931 676.706 458.871 676.706C461.811 676.706 464.194 679.089 464.194 682.029Z" fill="#F8FAFC"/>
<path d="M496.129 682.029C496.129 684.97 493.746 687.353 490.806 687.353C487.867 687.353 485.484 684.97 485.484 682.029C485.484 679.089 487.867 676.706 490.806 676.706C493.746 676.706 496.129 679.089 496.129 682.029Z" fill="#F8FAFC"/>
<path d="M528.065 682.029C528.065 684.97 525.682 687.353 522.742 687.353C519.802 687.353 517.419 684.97 517.419 682.029C517.419 679.089 519.802 676.706 522.742 676.706C525.682 676.706 528.065 679.089 528.065 682.029Z" fill="#F8FAFC"/>
<path d="M560 682.029C560 684.97 557.617 687.353 554.677 687.353C551.738 687.353 549.355 684.97 549.355 682.029C549.355 679.089 551.738 676.706 554.677 676.706C557.617 676.706 560 679.089 560 682.029Z" fill="#F8FAFC"/>
<path d="M240.645 713.971C240.645 716.911 238.262 719.294 235.323 719.294C232.383 719.294 230 716.911 230 713.971C230 711.03 232.383 708.647 235.323 708.647C238.262 708.647 240.645 711.03 240.645 713.971Z" fill="#F8FAFC"/>
<path d="M272.581 713.971C272.581 716.911 270.198 719.294 267.258 719.294C264.318 719.294 261.935 716.911 261.935 713.971C261.935 711.03 264.318 708.647 267.258 708.647C270.198 708.647 272.581 711.03 272.581 713.971Z" fill="#F8FAFC"/>
<path d="M304.516 713.971C304.516 716.911 302.133 719.294 299.194 719.294C296.254 719.294 293.871 716.911 293.871 713.971C293.871 711.03 296.254 708.647 299.194 708.647C302.133 708.647 304.516 711.03 304.516 713.971Z" fill="#F8FAFC"/>
<path d="M336.452 713.971C336.452 716.911 334.069 719.294 331.129 719.294C328.189 719.294 325.806 716.911 325.806 713.971C325.806 711.03 328.189 708.647 331.129 708.647C334.069 708.647 336.452 711.03 336.452 713.971Z" fill="#F8FAFC"/>
<path d="M368.387 713.971C368.387 716.911 366.004 719.294 363.065 719.294C360.125 719.294 357.742 716.911 357.742 713.971C357.742 711.03 360.125 708.647 363.065 708.647C366.004 708.647 368.387 711.03 368.387 713.971Z" fill="#F8FAFC"/>
<path d="M400.323 713.971C400.323 716.911 397.94 719.294 395 719.294C392.06 719.294 389.677 716.911 389.677 713.971C389.677 711.03 392.06 708.647 395 708.647C397.94 708.647 400.323 711.03 400.323 713.971Z" fill="#F8FAFC"/>
<path d="M432.258 713.971C432.258 716.911 429.875 719.294 426.935 719.294C423.996 719.294 421.613 716.911 421.613 713.971C421.613 711.03 423.996 708.647 426.935 708.647C429.875 708.647 432.258 711.03 432.258 713.971Z" fill="#F8FAFC"/>
<path d="M464.194 713.971C464.194 716.911 461.811 719.294 458.871 719.294C455.931 719.294 453.548 716.911 453.548 713.971C453.548 711.03 455.931 708.647 458.871 708.647C461.811 708.647 464.194 711.03 464.194 713.971Z" fill="#F8FAFC"/>
<path d="M496.129 713.971C496.129 716.911 493.746 719.294 490.806 719.294C487.867 719.294 485.484 716.911 485.484 713.971C485.484 711.03 487.867 708.647 490.806 708.647C493.746 708.647 496.129 711.03 496.129 713.971Z" fill="#F8FAFC"/>
<path d="M528.065 713.971C528.065 716.911 525.682 719.294 522.742 719.294C519.802 719.294 517.419 716.911 517.419 713.971C517.419 711.03 519.802 708.647 522.742 708.647C525.682 708.647 528.065 711.03 528.065 713.971Z" fill="#F8FAFC"/>
<path d="M560 713.971C560 716.911 557.617 719.294 554.677 719.294C551.738 719.294 549.355 716.911 549.355 713.971C549.355 711.03 551.738 708.647 554.677 708.647C557.617 708.647 560 711.03 560 713.971Z" fill="#F8FAFC"/>
<path d="M240.645 745.912C240.645 748.852 238.262 751.235 235.323 751.235C232.383 751.235 230 748.852 230 745.912C230 742.972 232.383 740.588 235.323 740.588C238.262 740.588 240.645 742.972 240.645 745.912Z" fill="#F8FAFC"/>
<path d="M272.581 745.912C272.581 748.852 270.198 751.235 267.258 751.235C264.318 751.235 261.935 748.852 261.935 745.912C261.935 742.972 264.318 740.588 267.258 740.588C270.198 740.588 272.581 742.972 272.581 745.912Z" fill="#F8FAFC"/>
<path d="M304.516 745.912C304.516 748.852 302.133 751.235 299.194 751.235C296.254 751.235 293.871 748.852 293.871 745.912C293.871 742.972 296.254 740.588 299.194 740.588C302.133 740.588 304.516 742.972 304.516 745.912Z" fill="#F8FAFC"/>
<path d="M336.452 745.912C336.452 748.852 334.069 751.235 331.129 751.235C328.189 751.235 325.806 748.852 325.806 745.912C325.806 742.972 328.189 740.588 331.129 740.588C334.069 740.588 336.452 742.972 336.452 745.912Z" fill="#F8FAFC"/>
<path d="M368.387 745.912C368.387 748.852 366.004 751.235 363.065 751.235C360.125 751.235 357.742 748.852 357.742 745.912C357.742 742.972 360.125 740.588 363.065 740.588C366.004 740.588 368.387 742.972 368.387 745.912Z" fill="#F8FAFC"/>
<path d="M400.323 745.912C400.323 748.852 397.94 751.235 395 751.235C392.06 751.235 389.677 748.852 389.677 745.912C389.677 742.972 392.06 740.588 395 740.588C397.94 740.588 400.323 742.972 400.323 745.912Z" fill="#F8FAFC"/>
<path d="M432.258 745.912C432.258 748.852 429.875 751.235 426.935 751.235C423.996 751.235 421.613 748.852 421.613 745.912C421.613 742.972 423.996 740.588 426.935 740.588C429.875 740.588 432.258 742.972 432.258 745.912Z" fill="#F8FAFC"/>
<path d="M464.194 745.912C464.194 748.852 461.811 751.235 458.871 751.235C455.931 751.235 453.548 748.852 453.548 745.912C453.548 742.972 455.931 740.588 458.871 740.588C461.811 740.588 464.194 742.972 464.194 745.912Z" fill="#F8FAFC"/>
<path d="M496.129 745.912C496.129 748.852 493.746 751.235 490.806 751.235C487.867 751.235 485.484 748.852 485.484 745.912C485.484 742.972 487.867 740.588 490.806 740.588C493.746 740.588 496.129 742.972 496.129 745.912Z" fill="#F8FAFC"/>
<path d="M528.065 745.912C528.065 748.852 525.682 751.235 522.742 751.235C519.802 751.235 517.419 748.852 517.419 745.912C517.419 742.972 519.802 740.588 522.742 740.588C525.682 740.588 528.065 742.972 528.065 745.912Z" fill="#F8FAFC"/>
<path d="M560 745.912C560 748.852 557.617 751.235 554.677 751.235C551.738 751.235 549.355 748.852 549.355 745.912C549.355 742.972 551.738 740.588 554.677 740.588C557.617 740.588 560 742.972 560 745.912Z" fill="#F8FAFC"/>
<path d="M240.645 777.853C240.645 780.793 238.262 783.176 235.323 783.176C232.383 783.176 230 780.793 230 777.853C230 774.913 232.383 772.529 235.323 772.529C238.262 772.529 240.645 774.913 240.645 777.853Z" fill="#F8FAFC"/>
<path d="M272.581 777.853C272.581 780.793 270.198 783.176 267.258 783.176C264.318 783.176 261.935 780.793 261.935 777.853C261.935 774.913 264.318 772.529 267.258 772.529C270.198 772.529 272.581 774.913 272.581 777.853Z" fill="#F8FAFC"/>
<path d="M304.516 777.853C304.516 780.793 302.133 783.176 299.194 783.176C296.254 783.176 293.871 780.793 293.871 777.853C293.871 774.913 296.254 772.529 299.194 772.529C302.133 772.529 304.516 774.913 304.516 777.853Z" fill="#F8FAFC"/>
<path d="M336.452 777.853C336.452 780.793 334.069 783.176 331.129 783.176C328.189 783.176 325.806 780.793 325.806 777.853C325.806 774.913 328.189 772.529 331.129 772.529C334.069 772.529 336.452 774.913 336.452 777.853Z" fill="#F8FAFC"/>
<path d="M368.387 777.853C368.387 780.793 366.004 783.176 363.065 783.176C360.125 783.176 357.742 780.793 357.742 777.853C357.742 774.913 360.125 772.529 363.065 772.529C366.004 772.529 368.387 774.913 368.387 777.853Z" fill="#F8FAFC"/>
<path d="M400.323 777.853C400.323 780.793 397.94 783.176 395 783.176C392.06 783.176 389.677 780.793 389.677 777.853C389.677 774.913 392.06 772.529 395 772.529C397.94 772.529 400.323 774.913 400.323 777.853Z" fill="#F8FAFC"/>
<path d="M432.258 777.853C432.258 780.793 429.875 783.176 426.935 783.176C423.996 783.176 421.613 780.793 421.613 777.853C421.613 774.913 423.996 772.529 426.935 772.529C429.875 772.529 432.258 774.913 432.258 777.853Z" fill="#F8FAFC"/>
<path d="M464.194 777.853C464.194 780.793 461.811 783.176 458.871 783.176C455.931 783.176 453.548 780.793 453.548 777.853C453.548 774.913 455.931 772.529 458.871 772.529C461.811 772.529 464.194 774.913 464.194 777.853Z" fill="#F8FAFC"/>
<path d="M496.129 777.853C496.129 780.793 493.746 783.176 490.806 783.176C487.867 783.176 485.484 780.793 485.484 777.853C485.484 774.913 487.867 772.529 490.806 772.529C493.746 772.529 496.129 774.913 496.129 777.853Z" fill="#F8FAFC"/>
<path d="M528.065 777.853C528.065 780.793 525.682 783.176 522.742 783.176C519.802 783.176 517.419 780.793 517.419 777.853C517.419 774.913 519.802 772.529 522.742 772.529C525.682 772.529 528.065 774.913 528.065 777.853Z" fill="#F8FAFC"/>
<path d="M560 777.853C560 780.793 557.617 783.176 554.677 783.176C551.738 783.176 549.355 780.793 549.355 777.853C549.355 774.913 551.738 772.529 554.677 772.529C557.617 772.529 560 774.913 560 777.853Z" fill="#F8FAFC"/>
<path d="M240.645 809.794C240.645 812.734 238.262 815.118 235.323 815.118C232.383 815.118 230 812.734 230 809.794C230 806.854 232.383 804.471 235.323 804.471C238.262 804.471 240.645 806.854 240.645 809.794Z" fill="#F8FAFC"/>
<path d="M272.581 809.794C272.581 812.734 270.198 815.118 267.258 815.118C264.318 815.118 261.935 812.734 261.935 809.794C261.935 806.854 264.318 804.471 267.258 804.471C270.198 804.471 272.581 806.854 272.581 809.794Z" fill="#F8FAFC"/>
<path d="M304.516 809.794C304.516 812.734 302.133 815.118 299.194 815.118C296.254 815.118 293.871 812.734 293.871 809.794C293.871 806.854 296.254 804.471 299.194 804.471C302.133 804.471 304.516 806.854 304.516 809.794Z" fill="#F8FAFC"/>
<path d="M336.452 809.794C336.452 812.734 334.069 815.118 331.129 815.118C328.189 815.118 325.806 812.734 325.806 809.794C325.806 806.854 328.189 804.471 331.129 804.471C334.069 804.471 336.452 806.854 336.452 809.794Z" fill="#F8FAFC"/>
<path d="M368.387 809.794C368.387 812.734 366.004 815.118 363.065 815.118C360.125 815.118 357.742 812.734 357.742 809.794C357.742 806.854 360.125 804.471 363.065 804.471C366.004 804.471 368.387 806.854 368.387 809.794Z" fill="#F8FAFC"/>
<path d="M400.323 809.794C400.323 812.734 397.94 815.118 395 815.118C392.06 815.118 389.677 812.734 389.677 809.794C389.677 806.854 392.06 804.471 395 804.471C397.94 804.471 400.323 806.854 400.323 809.794Z" fill="#F8FAFC"/>
<path d="M432.258 809.794C432.258 812.734 429.875 815.118 426.935 815.118C423.996 815.118 421.613 812.734 421.613 809.794C421.613 806.854 423.996 804.471 426.935 804.471C429.875 804.471 432.258 806.854 432.258 809.794Z" fill="#F8FAFC"/>
<path d="M464.194 809.794C464.194 812.734 461.811 815.118 458.871 815.118C455.931 815.118 453.548 812.734 453.548 809.794C453.548 806.854 455.931 804.471 458.871 804.471C461.811 804.471 464.194 806.854 464.194 809.794Z" fill="#F8FAFC"/>
<path d="M496.129 809.794C496.129 812.734 493.746 815.118 490.806 815.118C487.867 815.118 485.484 812.734 485.484 809.794C485.484 806.854 487.867 804.471 490.806 804.471C493.746 804.471 496.129 806.854 496.129 809.794Z" fill="#F8FAFC"/>
<path d="M528.065 809.794C528.065 812.734 525.682 815.118 522.742 815.118C519.802 815.118 517.419 812.734 517.419 809.794C517.419 806.854 519.802 804.471 522.742 804.471C525.682 804.471 528.065 806.854 528.065 809.794Z" fill="#F8FAFC"/>
<path d="M560 809.794C560 812.734 557.617 815.118 554.677 815.118C551.738 815.118 549.355 812.734 549.355 809.794C549.355 806.854 551.738 804.471 554.677 804.471C557.617 804.471 560 806.854 560 809.794Z" fill="#F8FAFC"/>
<path d="M240.645 841.735C240.645 844.675 238.262 847.059 235.323 847.059C232.383 847.059 230 844.675 230 841.735C230 838.795 232.383 836.412 235.323 836.412C238.262 836.412 240.645 838.795 240.645 841.735Z" fill="#F8FAFC"/>
<path d="M272.581 841.735C272.581 844.675 270.198 847.059 267.258 847.059C264.318 847.059 261.935 844.675 261.935 841.735C261.935 838.795 264.318 836.412 267.258 836.412C270.198 836.412 272.581 838.795 272.581 841.735Z" fill="#F8FAFC"/>
<path d="M304.516 841.735C304.516 844.675 302.133 847.059 299.194 847.059C296.254 847.059 293.871 844.675 293.871 841.735C293.871 838.795 296.254 836.412 299.194 836.412C302.133 836.412 304.516 838.795 304.516 841.735Z" fill="#F8FAFC"/>
<path d="M336.452 841.735C336.452 844.675 334.069 847.059 331.129 847.059C328.189 847.059 325.806 844.675 325.806 841.735C325.806 838.795 328.189 836.412 331.129 836.412C334.069 836.412 336.452 838.795 336.452 841.735Z" fill="#F8FAFC"/>
<path d="M368.387 841.735C368.387 844.675 366.004 847.059 363.065 847.059C360.125 847.059 357.742 844.675 357.742 841.735C357.742 838.795 360.125 836.412 363.065 836.412C366.004 836.412 368.387 838.795 368.387 841.735Z" fill="#F8FAFC"/>
<path d="M400.323 841.735C400.323 844.675 397.94 847.059 395 847.059C392.06 847.059 389.677 844.675 389.677 841.735C389.677 838.795 392.06 836.412 395 836.412C397.94 836.412 400.323 838.795 400.323 841.735Z" fill="#F8FAFC"/>
<path d="M432.258 841.735C432.258 844.675 429.875 847.059 426.935 847.059C423.996 847.059 421.613 844.675 421.613 841.735C421.613 838.795 423.996 836.412 426.935 836.412C429.875 836.412 432.258 838.795 432.258 841.735Z" fill="#F8FAFC"/>
<path d="M464.194 841.735C464.194 844.675 461.811 847.059 458.871 847.059C455.931 847.059 453.548 844.675 453.548 841.735C453.548 838.795 455.931 836.412 458.871 836.412C461.811 836.412 464.194 838.795 464.194 841.735Z" fill="#F8FAFC"/>
<path d="M496.129 841.735C496.129 844.675 493.746 847.059 490.806 847.059C487.867 847.059 485.484 844.675 485.484 841.735C485.484 838.795 487.867 836.412 490.806 836.412C493.746 836.412 496.129 838.795 496.129 841.735Z" fill="#F8FAFC"/>
<path d="M528.065 841.735C528.065 844.675 525.682 847.059 522.742 847.059C519.802 847.059 517.419 844.675 517.419 841.735C517.419 838.795 519.802 836.412 522.742 836.412C525.682 836.412 528.065 838.795 528.065 841.735Z" fill="#F8FAFC"/>
<path d="M560 841.735C560 844.675 557.617 847.059 554.677 847.059C551.738 847.059 549.355 844.675 549.355 841.735C549.355 838.795 551.738 836.412 554.677 836.412C557.617 836.412 560 838.795 560 841.735Z" fill="#F8FAFC"/>
<path d="M240.645 873.676C240.645 876.617 238.262 879 235.323 879C232.383 879 230 876.617 230 873.676C230 870.736 232.383 868.353 235.323 868.353C238.262 868.353 240.645 870.736 240.645 873.676Z" fill="#F8FAFC"/>
<path d="M272.581 873.676C272.581 876.617 270.198 879 267.258 879C264.318 879 261.935 876.617 261.935 873.676C261.935 870.736 264.318 868.353 267.258 868.353C270.198 868.353 272.581 870.736 272.581 873.676Z" fill="#F8FAFC"/>
<path d="M304.516 873.676C304.516 876.617 302.133 879 299.194 879C296.254 879 293.871 876.617 293.871 873.676C293.871 870.736 296.254 868.353 299.194 868.353C302.133 868.353 304.516 870.736 304.516 873.676Z" fill="#F8FAFC"/>
<path d="M336.452 873.676C336.452 876.617 334.069 879 331.129 879C328.189 879 325.806 876.617 325.806 873.676C325.806 870.736 328.189 868.353 331.129 868.353C334.069 868.353 336.452 870.736 336.452 873.676Z" fill="#F8FAFC"/>
<path d="M368.387 873.676C368.387 876.617 366.004 879 363.065 879C360.125 879 357.742 876.617 357.742 873.676C357.742 870.736 360.125 868.353 363.065 868.353C366.004 868.353 368.387 870.736 368.387 873.676Z" fill="#F8FAFC"/>
<path d="M400.323 873.676C400.323 876.617 397.94 879 395 879C392.06 879 389.677 876.617 389.677 873.676C389.677 870.736 392.06 868.353 395 868.353C397.94 868.353 400.323 870.736 400.323 873.676Z" fill="#F8FAFC"/>
<path d="M432.258 873.676C432.258 876.617 429.875 879 426.935 879C423.996 879 421.613 876.617 421.613 873.676C421.613 870.736 423.996 868.353 426.935 868.353C429.875 868.353 432.258 870.736 432.258 873.676Z" fill="#F8FAFC"/>
<path d="M464.194 873.676C464.194 876.617 461.811 879 458.871 879C455.931 879 453.548 876.617 453.548 873.676C453.548 870.736 455.931 868.353 458.871 868.353C461.811 868.353 464.194 870.736 464.194 873.676Z" fill="#F8FAFC"/>
<path d="M496.129 873.676C496.129 876.617 493.746 879 490.806 879C487.867 879 485.484 876.617 485.484 873.676C485.484 870.736 487.867 868.353 490.806 868.353C493.746 868.353 496.129 870.736 496.129 873.676Z" fill="#F8FAFC"/>
<path d="M528.065 873.676C528.065 876.617 525.682 879 522.742 879C519.802 879 517.419 876.617 517.419 873.676C517.419 870.736 519.802 868.353 522.742 868.353C525.682 868.353 528.065 870.736 528.065 873.676Z" fill="#F8FAFC"/>
<path d="M560 873.676C560 876.617 557.617 879 554.677 879C551.738 879 549.355 876.617 549.355 873.676C549.355 870.736 551.738 868.353 554.677 868.353C557.617 868.353 560 870.736 560 873.676Z" fill="#F8FAFC"/>
<path d="M708.645 5.32353C708.645 8.26363 706.262 10.6471 703.323 10.6471C700.383 10.6471 698 8.26363 698 5.32353C698 2.38343 700.383 0 703.323 0C706.262 0 708.645 2.38343 708.645 5.32353Z" fill="#F8FAFC"/>
<path d="M740.581 5.32353C740.581 8.26363 738.198 10.6471 735.258 10.6471C732.318 10.6471 729.935 8.26363 729.935 5.32353C729.935 2.38343 732.318 0 735.258 0C738.198 0 740.581 2.38343 740.581 5.32353Z" fill="#F8FAFC"/>
<path d="M772.516 5.32353C772.516 8.26363 770.133 10.6471 767.194 10.6471C764.254 10.6471 761.871 8.26363 761.871 5.32353C761.871 2.38343 764.254 0 767.194 0C770.133 0 772.516 2.38343 772.516 5.32353Z" fill="#F8FAFC"/>
<path d="M804.452 5.32353C804.452 8.26363 802.069 10.6471 799.129 10.6471C796.189 10.6471 793.806 8.26363 793.806 5.32353C793.806 2.38343 796.189 0 799.129 0C802.069 0 804.452 2.38343 804.452 5.32353Z" fill="#F8FAFC"/>
<path d="M836.387 5.32353C836.387 8.26363 834.004 10.6471 831.065 10.6471C828.125 10.6471 825.742 8.26363 825.742 5.32353C825.742 2.38343 828.125 0 831.065 0C834.004 0 836.387 2.38343 836.387 5.32353Z" fill="#F8FAFC"/>
<path d="M868.323 5.32353C868.323 8.26363 865.94 10.6471 863 10.6471C860.06 10.6471 857.677 8.26363 857.677 5.32353C857.677 2.38343 860.06 0 863 0C865.94 0 868.323 2.38343 868.323 5.32353Z" fill="#F8FAFC"/>
<path d="M900.258 5.32353C900.258 8.26363 897.875 10.6471 894.935 10.6471C891.996 10.6471 889.613 8.26363 889.613 5.32353C889.613 2.38343 891.996 0 894.935 0C897.875 0 900.258 2.38343 900.258 5.32353Z" fill="#F8FAFC"/>
<path d="M932.194 5.32353C932.194 8.26363 929.811 10.6471 926.871 10.6471C923.931 10.6471 921.548 8.26363 921.548 5.32353C921.548 2.38343 923.931 0 926.871 0C929.811 0 932.194 2.38343 932.194 5.32353Z" fill="#F8FAFC"/>
<path d="M964.129 5.32353C964.129 8.26363 961.746 10.6471 958.806 10.6471C955.867 10.6471 953.484 8.26363 953.484 5.32353C953.484 2.38343 955.867 0 958.806 0C961.746 0 964.129 2.38343 964.129 5.32353Z" fill="#F8FAFC"/>
<path d="M996.065 5.32353C996.065 8.26363 993.682 10.6471 990.742 10.6471C987.802 10.6471 985.419 8.26363 985.419 5.32353C985.419 2.38343 987.802 0 990.742 0C993.682 0 996.065 2.38343 996.065 5.32353Z" fill="#F8FAFC"/>
<path d="M1028 5.32353C1028 8.26363 1025.62 10.6471 1022.68 10.6471C1019.74 10.6471 1017.35 8.26363 1017.35 5.32353C1017.35 2.38343 1019.74 0 1022.68 0C1025.62 0 1028 2.38343 1028 5.32353Z" fill="#F8FAFC"/>
<path d="M708.645 37.2647C708.645 40.2048 706.262 42.5882 703.323 42.5882C700.383 42.5882 698 40.2048 698 37.2647C698 34.3246 700.383 31.9412 703.323 31.9412C706.262 31.9412 708.645 34.3246 708.645 37.2647Z" fill="#F8FAFC"/>
<path d="M740.581 37.2647C740.581 40.2048 738.198 42.5882 735.258 42.5882C732.318 42.5882 729.935 40.2048 729.935 37.2647C729.935 34.3246 732.318 31.9412 735.258 31.9412C738.198 31.9412 740.581 34.3246 740.581 37.2647Z" fill="#F8FAFC"/>
<path d="M772.516 37.2647C772.516 40.2048 770.133 42.5882 767.194 42.5882C764.254 42.5882 761.871 40.2048 761.871 37.2647C761.871 34.3246 764.254 31.9412 767.194 31.9412C770.133 31.9412 772.516 34.3246 772.516 37.2647Z" fill="#F8FAFC"/>
<path d="M804.452 37.2647C804.452 40.2048 802.069 42.5882 799.129 42.5882C796.189 42.5882 793.806 40.2048 793.806 37.2647C793.806 34.3246 796.189 31.9412 799.129 31.9412C802.069 31.9412 804.452 34.3246 804.452 37.2647Z" fill="#F8FAFC"/>
<path d="M836.387 37.2647C836.387 40.2048 834.004 42.5882 831.065 42.5882C828.125 42.5882 825.742 40.2048 825.742 37.2647C825.742 34.3246 828.125 31.9412 831.065 31.9412C834.004 31.9412 836.387 34.3246 836.387 37.2647Z" fill="#F8FAFC"/>
<path d="M868.323 37.2647C868.323 40.2048 865.94 42.5882 863 42.5882C860.06 42.5882 857.677 40.2048 857.677 37.2647C857.677 34.3246 860.06 31.9412 863 31.9412C865.94 31.9412 868.323 34.3246 868.323 37.2647Z" fill="#F8FAFC"/>
<path d="M900.258 37.2647C900.258 40.2048 897.875 42.5882 894.935 42.5882C891.996 42.5882 889.613 40.2048 889.613 37.2647C889.613 34.3246 891.996 31.9412 894.935 31.9412C897.875 31.9412 900.258 34.3246 900.258 37.2647Z" fill="#F8FAFC"/>
<path d="M932.194 37.2647C932.194 40.2048 929.811 42.5882 926.871 42.5882C923.931 42.5882 921.548 40.2048 921.548 37.2647C921.548 34.3246 923.931 31.9412 926.871 31.9412C929.811 31.9412 932.194 34.3246 932.194 37.2647Z" fill="#F8FAFC"/>
<path d="M964.129 37.2647C964.129 40.2048 961.746 42.5882 958.806 42.5882C955.867 42.5882 953.484 40.2048 953.484 37.2647C953.484 34.3246 955.867 31.9412 958.806 31.9412C961.746 31.9412 964.129 34.3246 964.129 37.2647Z" fill="#F8FAFC"/>
<path d="M996.065 37.2647C996.065 40.2048 993.682 42.5882 990.742 42.5882C987.802 42.5882 985.419 40.2048 985.419 37.2647C985.419 34.3246 987.802 31.9412 990.742 31.9412C993.682 31.9412 996.065 34.3246 996.065 37.2647Z" fill="#F8FAFC"/>
<path d="M1028 37.2647C1028 40.2048 1025.62 42.5882 1022.68 42.5882C1019.74 42.5882 1017.35 40.2048 1017.35 37.2647C1017.35 34.3246 1019.74 31.9412 1022.68 31.9412C1025.62 31.9412 1028 34.3246 1028 37.2647Z" fill="#F8FAFC"/>
<path d="M708.645 69.2059C708.645 72.146 706.262 74.5294 703.323 74.5294C700.383 74.5294 698 72.146 698 69.2059C698 66.2658 700.383 63.8824 703.323 63.8824C706.262 63.8824 708.645 66.2658 708.645 69.2059Z" fill="#F8FAFC"/>
<path d="M740.581 69.2059C740.581 72.146 738.198 74.5294 735.258 74.5294C732.318 74.5294 729.935 72.146 729.935 69.2059C729.935 66.2658 732.318 63.8824 735.258 63.8824C738.198 63.8824 740.581 66.2658 740.581 69.2059Z" fill="#F8FAFC"/>
<path d="M772.516 69.2059C772.516 72.146 770.133 74.5294 767.194 74.5294C764.254 74.5294 761.871 72.146 761.871 69.2059C761.871 66.2658 764.254 63.8824 767.194 63.8824C770.133 63.8824 772.516 66.2658 772.516 69.2059Z" fill="#F8FAFC"/>
<path d="M804.452 69.2059C804.452 72.146 802.069 74.5294 799.129 74.5294C796.189 74.5294 793.806 72.146 793.806 69.2059C793.806 66.2658 796.189 63.8824 799.129 63.8824C802.069 63.8824 804.452 66.2658 804.452 69.2059Z" fill="#F8FAFC"/>
<path d="M836.387 69.2059C836.387 72.146 834.004 74.5294 831.065 74.5294C828.125 74.5294 825.742 72.146 825.742 69.2059C825.742 66.2658 828.125 63.8824 831.065 63.8824C834.004 63.8824 836.387 66.2658 836.387 69.2059Z" fill="#F8FAFC"/>
<path d="M868.323 69.2059C868.323 72.146 865.94 74.5294 863 74.5294C860.06 74.5294 857.677 72.146 857.677 69.2059C857.677 66.2658 860.06 63.8824 863 63.8824C865.94 63.8824 868.323 66.2658 868.323 69.2059Z" fill="#F8FAFC"/>
<path d="M900.258 69.2059C900.258 72.146 897.875 74.5294 894.935 74.5294C891.996 74.5294 889.613 72.146 889.613 69.2059C889.613 66.2658 891.996 63.8824 894.935 63.8824C897.875 63.8824 900.258 66.2658 900.258 69.2059Z" fill="#F8FAFC"/>
<path d="M932.194 69.2059C932.194 72.146 929.811 74.5294 926.871 74.5294C923.931 74.5294 921.548 72.146 921.548 69.2059C921.548 66.2658 923.931 63.8824 926.871 63.8824C929.811 63.8824 932.194 66.2658 932.194 69.2059Z" fill="#F8FAFC"/>
<path d="M964.129 69.2059C964.129 72.146 961.746 74.5294 958.806 74.5294C955.867 74.5294 953.484 72.146 953.484 69.2059C953.484 66.2658 955.867 63.8824 958.806 63.8824C961.746 63.8824 964.129 66.2658 964.129 69.2059Z" fill="#F8FAFC"/>
<path d="M996.065 69.2059C996.065 72.146 993.682 74.5294 990.742 74.5294C987.802 74.5294 985.419 72.146 985.419 69.2059C985.419 66.2658 987.802 63.8824 990.742 63.8824C993.682 63.8824 996.065 66.2658 996.065 69.2059Z" fill="#F8FAFC"/>
<path d="M1028 69.2059C1028 72.146 1025.62 74.5294 1022.68 74.5294C1019.74 74.5294 1017.35 72.146 1017.35 69.2059C1017.35 66.2658 1019.74 63.8824 1022.68 63.8824C1025.62 63.8824 1028 66.2658 1028 69.2059Z" fill="#F8FAFC"/>
<path d="M708.645 101.147C708.645 104.087 706.262 106.471 703.323 106.471C700.383 106.471 698 104.087 698 101.147C698 98.207 700.383 95.8235 703.323 95.8235C706.262 95.8235 708.645 98.207 708.645 101.147Z" fill="#F8FAFC"/>
<path d="M740.581 101.147C740.581 104.087 738.198 106.471 735.258 106.471C732.318 106.471 729.935 104.087 729.935 101.147C729.935 98.207 732.318 95.8235 735.258 95.8235C738.198 95.8235 740.581 98.207 740.581 101.147Z" fill="#F8FAFC"/>
<path d="M772.516 101.147C772.516 104.087 770.133 106.471 767.194 106.471C764.254 106.471 761.871 104.087 761.871 101.147C761.871 98.207 764.254 95.8235 767.194 95.8235C770.133 95.8235 772.516 98.207 772.516 101.147Z" fill="#F8FAFC"/>
<path d="M804.452 101.147C804.452 104.087 802.069 106.471 799.129 106.471C796.189 106.471 793.806 104.087 793.806 101.147C793.806 98.207 796.189 95.8235 799.129 95.8235C802.069 95.8235 804.452 98.207 804.452 101.147Z" fill="#F8FAFC"/>
<path d="M836.387 101.147C836.387 104.087 834.004 106.471 831.065 106.471C828.125 106.471 825.742 104.087 825.742 101.147C825.742 98.207 828.125 95.8235 831.065 95.8235C834.004 95.8235 836.387 98.207 836.387 101.147Z" fill="#F8FAFC"/>
<path d="M868.323 101.147C868.323 104.087 865.94 106.471 863 106.471C860.06 106.471 857.677 104.087 857.677 101.147C857.677 98.207 860.06 95.8235 863 95.8235C865.94 95.8235 868.323 98.207 868.323 101.147Z" fill="#F8FAFC"/>
<path d="M900.258 101.147C900.258 104.087 897.875 106.471 894.935 106.471C891.996 106.471 889.613 104.087 889.613 101.147C889.613 98.207 891.996 95.8235 894.935 95.8235C897.875 95.8235 900.258 98.207 900.258 101.147Z" fill="#F8FAFC"/>
<path d="M932.194 101.147C932.194 104.087 929.811 106.471 926.871 106.471C923.931 106.471 921.548 104.087 921.548 101.147C921.548 98.207 923.931 95.8235 926.871 95.8235C929.811 95.8235 932.194 98.207 932.194 101.147Z" fill="#F8FAFC"/>
<path d="M964.129 101.147C964.129 104.087 961.746 106.471 958.806 106.471C955.867 106.471 953.484 104.087 953.484 101.147C953.484 98.207 955.867 95.8235 958.806 95.8235C961.746 95.8235 964.129 98.207 964.129 101.147Z" fill="#F8FAFC"/>
<path d="M996.065 101.147C996.065 104.087 993.682 106.471 990.742 106.471C987.802 106.471 985.419 104.087 985.419 101.147C985.419 98.207 987.802 95.8235 990.742 95.8235C993.682 95.8235 996.065 98.207 996.065 101.147Z" fill="#F8FAFC"/>
<path d="M1028 101.147C1028 104.087 1025.62 106.471 1022.68 106.471C1019.74 106.471 1017.35 104.087 1017.35 101.147C1017.35 98.207 1019.74 95.8235 1022.68 95.8235C1025.62 95.8235 1028 98.207 1028 101.147Z" fill="#F8FAFC"/>
<path d="M708.645 133.088C708.645 136.028 706.262 138.412 703.323 138.412C700.383 138.412 698 136.028 698 133.088C698 130.148 700.383 127.765 703.323 127.765C706.262 127.765 708.645 130.148 708.645 133.088Z" fill="#F8FAFC"/>
<path d="M740.581 133.088C740.581 136.028 738.198 138.412 735.258 138.412C732.318 138.412 729.935 136.028 729.935 133.088C729.935 130.148 732.318 127.765 735.258 127.765C738.198 127.765 740.581 130.148 740.581 133.088Z" fill="#F8FAFC"/>
<path d="M772.516 133.088C772.516 136.028 770.133 138.412 767.194 138.412C764.254 138.412 761.871 136.028 761.871 133.088C761.871 130.148 764.254 127.765 767.194 127.765C770.133 127.765 772.516 130.148 772.516 133.088Z" fill="#F8FAFC"/>
<path d="M804.452 133.088C804.452 136.028 802.069 138.412 799.129 138.412C796.189 138.412 793.806 136.028 793.806 133.088C793.806 130.148 796.189 127.765 799.129 127.765C802.069 127.765 804.452 130.148 804.452 133.088Z" fill="#F8FAFC"/>
<path d="M836.387 133.088C836.387 136.028 834.004 138.412 831.065 138.412C828.125 138.412 825.742 136.028 825.742 133.088C825.742 130.148 828.125 127.765 831.065 127.765C834.004 127.765 836.387 130.148 836.387 133.088Z" fill="#F8FAFC"/>
<path d="M868.323 133.088C868.323 136.028 865.94 138.412 863 138.412C860.06 138.412 857.677 136.028 857.677 133.088C857.677 130.148 860.06 127.765 863 127.765C865.94 127.765 868.323 130.148 868.323 133.088Z" fill="#F8FAFC"/>
<path d="M900.258 133.088C900.258 136.028 897.875 138.412 894.935 138.412C891.996 138.412 889.613 136.028 889.613 133.088C889.613 130.148 891.996 127.765 894.935 127.765C897.875 127.765 900.258 130.148 900.258 133.088Z" fill="#F8FAFC"/>
<path d="M932.194 133.088C932.194 136.028 929.811 138.412 926.871 138.412C923.931 138.412 921.548 136.028 921.548 133.088C921.548 130.148 923.931 127.765 926.871 127.765C929.811 127.765 932.194 130.148 932.194 133.088Z" fill="#F8FAFC"/>
<path d="M964.129 133.088C964.129 136.028 961.746 138.412 958.806 138.412C955.867 138.412 953.484 136.028 953.484 133.088C953.484 130.148 955.867 127.765 958.806 127.765C961.746 127.765 964.129 130.148 964.129 133.088Z" fill="#F8FAFC"/>
<path d="M996.065 133.088C996.065 136.028 993.682 138.412 990.742 138.412C987.802 138.412 985.419 136.028 985.419 133.088C985.419 130.148 987.802 127.765 990.742 127.765C993.682 127.765 996.065 130.148 996.065 133.088Z" fill="#F8FAFC"/>
<path d="M1028 133.088C1028 136.028 1025.62 138.412 1022.68 138.412C1019.74 138.412 1017.35 136.028 1017.35 133.088C1017.35 130.148 1019.74 127.765 1022.68 127.765C1025.62 127.765 1028 130.148 1028 133.088Z" fill="#F8FAFC"/>
<path d="M708.645 165.029C708.645 167.97 706.262 170.353 703.323 170.353C700.383 170.353 698 167.97 698 165.029C698 162.089 700.383 159.706 703.323 159.706C706.262 159.706 708.645 162.089 708.645 165.029Z" fill="#F8FAFC"/>
<path d="M740.581 165.029C740.581 167.97 738.198 170.353 735.258 170.353C732.318 170.353 729.935 167.97 729.935 165.029C729.935 162.089 732.318 159.706 735.258 159.706C738.198 159.706 740.581 162.089 740.581 165.029Z" fill="#F8FAFC"/>
<path d="M772.516 165.029C772.516 167.97 770.133 170.353 767.194 170.353C764.254 170.353 761.871 167.97 761.871 165.029C761.871 162.089 764.254 159.706 767.194 159.706C770.133 159.706 772.516 162.089 772.516 165.029Z" fill="#F8FAFC"/>
<path d="M804.452 165.029C804.452 167.97 802.069 170.353 799.129 170.353C796.189 170.353 793.806 167.97 793.806 165.029C793.806 162.089 796.189 159.706 799.129 159.706C802.069 159.706 804.452 162.089 804.452 165.029Z" fill="#F8FAFC"/>
<path d="M836.387 165.029C836.387 167.97 834.004 170.353 831.065 170.353C828.125 170.353 825.742 167.97 825.742 165.029C825.742 162.089 828.125 159.706 831.065 159.706C834.004 159.706 836.387 162.089 836.387 165.029Z" fill="#F8FAFC"/>
<path d="M868.323 165.029C868.323 167.97 865.94 170.353 863 170.353C860.06 170.353 857.677 167.97 857.677 165.029C857.677 162.089 860.06 159.706 863 159.706C865.94 159.706 868.323 162.089 868.323 165.029Z" fill="#F8FAFC"/>
<path d="M900.258 165.029C900.258 167.97 897.875 170.353 894.935 170.353C891.996 170.353 889.613 167.97 889.613 165.029C889.613 162.089 891.996 159.706 894.935 159.706C897.875 159.706 900.258 162.089 900.258 165.029Z" fill="#F8FAFC"/>
<path d="M932.194 165.029C932.194 167.97 929.811 170.353 926.871 170.353C923.931 170.353 921.548 167.97 921.548 165.029C921.548 162.089 923.931 159.706 926.871 159.706C929.811 159.706 932.194 162.089 932.194 165.029Z" fill="#F8FAFC"/>
<path d="M964.129 165.029C964.129 167.97 961.746 170.353 958.806 170.353C955.867 170.353 953.484 167.97 953.484 165.029C953.484 162.089 955.867 159.706 958.806 159.706C961.746 159.706 964.129 162.089 964.129 165.029Z" fill="#F8FAFC"/>
<path d="M996.065 165.029C996.065 167.97 993.682 170.353 990.742 170.353C987.802 170.353 985.419 167.97 985.419 165.029C985.419 162.089 987.802 159.706 990.742 159.706C993.682 159.706 996.065 162.089 996.065 165.029Z" fill="#F8FAFC"/>
<path d="M1028 165.029C1028 167.97 1025.62 170.353 1022.68 170.353C1019.74 170.353 1017.35 167.97 1017.35 165.029C1017.35 162.089 1019.74 159.706 1022.68 159.706C1025.62 159.706 1028 162.089 1028 165.029Z" fill="#F8FAFC"/>
<path d="M708.645 196.971C708.645 199.911 706.262 202.294 703.323 202.294C700.383 202.294 698 199.911 698 196.971C698 194.03 700.383 191.647 703.323 191.647C706.262 191.647 708.645 194.03 708.645 196.971Z" fill="#F8FAFC"/>
<path d="M740.581 196.971C740.581 199.911 738.198 202.294 735.258 202.294C732.318 202.294 729.935 199.911 729.935 196.971C729.935 194.03 732.318 191.647 735.258 191.647C738.198 191.647 740.581 194.03 740.581 196.971Z" fill="#F8FAFC"/>
<path d="M772.516 196.971C772.516 199.911 770.133 202.294 767.194 202.294C764.254 202.294 761.871 199.911 761.871 196.971C761.871 194.03 764.254 191.647 767.194 191.647C770.133 191.647 772.516 194.03 772.516 196.971Z" fill="#F8FAFC"/>
<path d="M804.452 196.971C804.452 199.911 802.069 202.294 799.129 202.294C796.189 202.294 793.806 199.911 793.806 196.971C793.806 194.03 796.189 191.647 799.129 191.647C802.069 191.647 804.452 194.03 804.452 196.971Z" fill="#F8FAFC"/>
<path d="M836.387 196.971C836.387 199.911 834.004 202.294 831.065 202.294C828.125 202.294 825.742 199.911 825.742 196.971C825.742 194.03 828.125 191.647 831.065 191.647C834.004 191.647 836.387 194.03 836.387 196.971Z" fill="#F8FAFC"/>
<path d="M868.323 196.971C868.323 199.911 865.94 202.294 863 202.294C860.06 202.294 857.677 199.911 857.677 196.971C857.677 194.03 860.06 191.647 863 191.647C865.94 191.647 868.323 194.03 868.323 196.971Z" fill="#F8FAFC"/>
<path d="M900.258 196.971C900.258 199.911 897.875 202.294 894.935 202.294C891.996 202.294 889.613 199.911 889.613 196.971C889.613 194.03 891.996 191.647 894.935 191.647C897.875 191.647 900.258 194.03 900.258 196.971Z" fill="#F8FAFC"/>
<path d="M932.194 196.971C932.194 199.911 929.811 202.294 926.871 202.294C923.931 202.294 921.548 199.911 921.548 196.971C921.548 194.03 923.931 191.647 926.871 191.647C929.811 191.647 932.194 194.03 932.194 196.971Z" fill="#F8FAFC"/>
<path d="M964.129 196.971C964.129 199.911 961.746 202.294 958.806 202.294C955.867 202.294 953.484 199.911 953.484 196.971C953.484 194.03 955.867 191.647 958.806 191.647C961.746 191.647 964.129 194.03 964.129 196.971Z" fill="#F8FAFC"/>
<path d="M996.065 196.971C996.065 199.911 993.682 202.294 990.742 202.294C987.802 202.294 985.419 199.911 985.419 196.971C985.419 194.03 987.802 191.647 990.742 191.647C993.682 191.647 996.065 194.03 996.065 196.971Z" fill="#F8FAFC"/>
<path d="M1028 196.971C1028 199.911 1025.62 202.294 1022.68 202.294C1019.74 202.294 1017.35 199.911 1017.35 196.971C1017.35 194.03 1019.74 191.647 1022.68 191.647C1025.62 191.647 1028 194.03 1028 196.971Z" fill="#F8FAFC"/>
<path d="M708.645 228.912C708.645 231.852 706.262 234.235 703.323 234.235C700.383 234.235 698 231.852 698 228.912C698 225.972 700.383 223.588 703.323 223.588C706.262 223.588 708.645 225.972 708.645 228.912Z" fill="#F8FAFC"/>
<path d="M740.581 228.912C740.581 231.852 738.198 234.235 735.258 234.235C732.318 234.235 729.935 231.852 729.935 228.912C729.935 225.972 732.318 223.588 735.258 223.588C738.198 223.588 740.581 225.972 740.581 228.912Z" fill="#F8FAFC"/>
<path d="M772.516 228.912C772.516 231.852 770.133 234.235 767.194 234.235C764.254 234.235 761.871 231.852 761.871 228.912C761.871 225.972 764.254 223.588 767.194 223.588C770.133 223.588 772.516 225.972 772.516 228.912Z" fill="#F8FAFC"/>
<path d="M804.452 228.912C804.452 231.852 802.069 234.235 799.129 234.235C796.189 234.235 793.806 231.852 793.806 228.912C793.806 225.972 796.189 223.588 799.129 223.588C802.069 223.588 804.452 225.972 804.452 228.912Z" fill="#F8FAFC"/>
<path d="M836.387 228.912C836.387 231.852 834.004 234.235 831.065 234.235C828.125 234.235 825.742 231.852 825.742 228.912C825.742 225.972 828.125 223.588 831.065 223.588C834.004 223.588 836.387 225.972 836.387 228.912Z" fill="#F8FAFC"/>
<path d="M868.323 228.912C868.323 231.852 865.94 234.235 863 234.235C860.06 234.235 857.677 231.852 857.677 228.912C857.677 225.972 860.06 223.588 863 223.588C865.94 223.588 868.323 225.972 868.323 228.912Z" fill="#F8FAFC"/>
<path d="M900.258 228.912C900.258 231.852 897.875 234.235 894.935 234.235C891.996 234.235 889.613 231.852 889.613 228.912C889.613 225.972 891.996 223.588 894.935 223.588C897.875 223.588 900.258 225.972 900.258 228.912Z" fill="#F8FAFC"/>
<path d="M932.194 228.912C932.194 231.852 929.811 234.235 926.871 234.235C923.931 234.235 921.548 231.852 921.548 228.912C921.548 225.972 923.931 223.588 926.871 223.588C929.811 223.588 932.194 225.972 932.194 228.912Z" fill="#F8FAFC"/>
<path d="M964.129 228.912C964.129 231.852 961.746 234.235 958.806 234.235C955.867 234.235 953.484 231.852 953.484 228.912C953.484 225.972 955.867 223.588 958.806 223.588C961.746 223.588 964.129 225.972 964.129 228.912Z" fill="#F8FAFC"/>
<path d="M996.065 228.912C996.065 231.852 993.682 234.235 990.742 234.235C987.802 234.235 985.419 231.852 985.419 228.912C985.419 225.972 987.802 223.588 990.742 223.588C993.682 223.588 996.065 225.972 996.065 228.912Z" fill="#F8FAFC"/>
<path d="M1028 228.912C1028 231.852 1025.62 234.235 1022.68 234.235C1019.74 234.235 1017.35 231.852 1017.35 228.912C1017.35 225.972 1019.74 223.588 1022.68 223.588C1025.62 223.588 1028 225.972 1028 228.912Z" fill="#F8FAFC"/>
<path d="M708.645 260.853C708.645 263.793 706.262 266.176 703.323 266.176C700.383 266.176 698 263.793 698 260.853C698 257.913 700.383 255.529 703.323 255.529C706.262 255.529 708.645 257.913 708.645 260.853Z" fill="#F8FAFC"/>
<path d="M740.581 260.853C740.581 263.793 738.198 266.176 735.258 266.176C732.318 266.176 729.935 263.793 729.935 260.853C729.935 257.913 732.318 255.529 735.258 255.529C738.198 255.529 740.581 257.913 740.581 260.853Z" fill="#F8FAFC"/>
<path d="M772.516 260.853C772.516 263.793 770.133 266.176 767.194 266.176C764.254 266.176 761.871 263.793 761.871 260.853C761.871 257.913 764.254 255.529 767.194 255.529C770.133 255.529 772.516 257.913 772.516 260.853Z" fill="#F8FAFC"/>
<path d="M804.452 260.853C804.452 263.793 802.069 266.176 799.129 266.176C796.189 266.176 793.806 263.793 793.806 260.853C793.806 257.913 796.189 255.529 799.129 255.529C802.069 255.529 804.452 257.913 804.452 260.853Z" fill="#F8FAFC"/>
<path d="M836.387 260.853C836.387 263.793 834.004 266.176 831.065 266.176C828.125 266.176 825.742 263.793 825.742 260.853C825.742 257.913 828.125 255.529 831.065 255.529C834.004 255.529 836.387 257.913 836.387 260.853Z" fill="#F8FAFC"/>
<path d="M868.323 260.853C868.323 263.793 865.94 266.176 863 266.176C860.06 266.176 857.677 263.793 857.677 260.853C857.677 257.913 860.06 255.529 863 255.529C865.94 255.529 868.323 257.913 868.323 260.853Z" fill="#F8FAFC"/>
<path d="M900.258 260.853C900.258 263.793 897.875 266.176 894.935 266.176C891.996 266.176 889.613 263.793 889.613 260.853C889.613 257.913 891.996 255.529 894.935 255.529C897.875 255.529 900.258 257.913 900.258 260.853Z" fill="#F8FAFC"/>
<path d="M932.194 260.853C932.194 263.793 929.811 266.176 926.871 266.176C923.931 266.176 921.548 263.793 921.548 260.853C921.548 257.913 923.931 255.529 926.871 255.529C929.811 255.529 932.194 257.913 932.194 260.853Z" fill="#F8FAFC"/>
<path d="M964.129 260.853C964.129 263.793 961.746 266.176 958.806 266.176C955.867 266.176 953.484 263.793 953.484 260.853C953.484 257.913 955.867 255.529 958.806 255.529C961.746 255.529 964.129 257.913 964.129 260.853Z" fill="#F8FAFC"/>
<path d="M996.065 260.853C996.065 263.793 993.682 266.176 990.742 266.176C987.802 266.176 985.419 263.793 985.419 260.853C985.419 257.913 987.802 255.529 990.742 255.529C993.682 255.529 996.065 257.913 996.065 260.853Z" fill="#F8FAFC"/>
<path d="M1028 260.853C1028 263.793 1025.62 266.176 1022.68 266.176C1019.74 266.176 1017.35 263.793 1017.35 260.853C1017.35 257.913 1019.74 255.529 1022.68 255.529C1025.62 255.529 1028 257.913 1028 260.853Z" fill="#F8FAFC"/>
<path d="M708.645 292.794C708.645 295.734 706.262 298.118 703.323 298.118C700.383 298.118 698 295.734 698 292.794C698 289.854 700.383 287.471 703.323 287.471C706.262 287.471 708.645 289.854 708.645 292.794Z" fill="#F8FAFC"/>
<path d="M740.581 292.794C740.581 295.734 738.198 298.118 735.258 298.118C732.318 298.118 729.935 295.734 729.935 292.794C729.935 289.854 732.318 287.471 735.258 287.471C738.198 287.471 740.581 289.854 740.581 292.794Z" fill="#F8FAFC"/>
<path d="M772.516 292.794C772.516 295.734 770.133 298.118 767.194 298.118C764.254 298.118 761.871 295.734 761.871 292.794C761.871 289.854 764.254 287.471 767.194 287.471C770.133 287.471 772.516 289.854 772.516 292.794Z" fill="#F8FAFC"/>
<path d="M804.452 292.794C804.452 295.734 802.069 298.118 799.129 298.118C796.189 298.118 793.806 295.734 793.806 292.794C793.806 289.854 796.189 287.471 799.129 287.471C802.069 287.471 804.452 289.854 804.452 292.794Z" fill="#F8FAFC"/>
<path d="M836.387 292.794C836.387 295.734 834.004 298.118 831.065 298.118C828.125 298.118 825.742 295.734 825.742 292.794C825.742 289.854 828.125 287.471 831.065 287.471C834.004 287.471 836.387 289.854 836.387 292.794Z" fill="#F8FAFC"/>
<path d="M868.323 292.794C868.323 295.734 865.94 298.118 863 298.118C860.06 298.118 857.677 295.734 857.677 292.794C857.677 289.854 860.06 287.471 863 287.471C865.94 287.471 868.323 289.854 868.323 292.794Z" fill="#F8FAFC"/>
<path d="M900.258 292.794C900.258 295.734 897.875 298.118 894.935 298.118C891.996 298.118 889.613 295.734 889.613 292.794C889.613 289.854 891.996 287.471 894.935 287.471C897.875 287.471 900.258 289.854 900.258 292.794Z" fill="#F8FAFC"/>
<path d="M932.194 292.794C932.194 295.734 929.811 298.118 926.871 298.118C923.931 298.118 921.548 295.734 921.548 292.794C921.548 289.854 923.931 287.471 926.871 287.471C929.811 287.471 932.194 289.854 932.194 292.794Z" fill="#F8FAFC"/>
<path d="M964.129 292.794C964.129 295.734 961.746 298.118 958.806 298.118C955.867 298.118 953.484 295.734 953.484 292.794C953.484 289.854 955.867 287.471 958.806 287.471C961.746 287.471 964.129 289.854 964.129 292.794Z" fill="#F8FAFC"/>
<path d="M996.065 292.794C996.065 295.734 993.682 298.118 990.742 298.118C987.802 298.118 985.419 295.734 985.419 292.794C985.419 289.854 987.802 287.471 990.742 287.471C993.682 287.471 996.065 289.854 996.065 292.794Z" fill="#F8FAFC"/>
<path d="M1028 292.794C1028 295.734 1025.62 298.118 1022.68 298.118C1019.74 298.118 1017.35 295.734 1017.35 292.794C1017.35 289.854 1019.74 287.471 1022.68 287.471C1025.62 287.471 1028 289.854 1028 292.794Z" fill="#F8FAFC"/>
<path d="M708.645 324.735C708.645 327.675 706.262 330.059 703.323 330.059C700.383 330.059 698 327.675 698 324.735C698 321.795 700.383 319.412 703.323 319.412C706.262 319.412 708.645 321.795 708.645 324.735Z" fill="#F8FAFC"/>
<path d="M740.581 324.735C740.581 327.675 738.198 330.059 735.258 330.059C732.318 330.059 729.935 327.675 729.935 324.735C729.935 321.795 732.318 319.412 735.258 319.412C738.198 319.412 740.581 321.795 740.581 324.735Z" fill="#F8FAFC"/>
<path d="M772.516 324.735C772.516 327.675 770.133 330.059 767.194 330.059C764.254 330.059 761.871 327.675 761.871 324.735C761.871 321.795 764.254 319.412 767.194 319.412C770.133 319.412 772.516 321.795 772.516 324.735Z" fill="#F8FAFC"/>
<path d="M804.452 324.735C804.452 327.675 802.069 330.059 799.129 330.059C796.189 330.059 793.806 327.675 793.806 324.735C793.806 321.795 796.189 319.412 799.129 319.412C802.069 319.412 804.452 321.795 804.452 324.735Z" fill="#F8FAFC"/>
<path d="M836.387 324.735C836.387 327.675 834.004 330.059 831.065 330.059C828.125 330.059 825.742 327.675 825.742 324.735C825.742 321.795 828.125 319.412 831.065 319.412C834.004 319.412 836.387 321.795 836.387 324.735Z" fill="#F8FAFC"/>
<path d="M868.323 324.735C868.323 327.675 865.94 330.059 863 330.059C860.06 330.059 857.677 327.675 857.677 324.735C857.677 321.795 860.06 319.412 863 319.412C865.94 319.412 868.323 321.795 868.323 324.735Z" fill="#F8FAFC"/>
<path d="M900.258 324.735C900.258 327.675 897.875 330.059 894.935 330.059C891.996 330.059 889.613 327.675 889.613 324.735C889.613 321.795 891.996 319.412 894.935 319.412C897.875 319.412 900.258 321.795 900.258 324.735Z" fill="#F8FAFC"/>
<path d="M932.194 324.735C932.194 327.675 929.811 330.059 926.871 330.059C923.931 330.059 921.548 327.675 921.548 324.735C921.548 321.795 923.931 319.412 926.871 319.412C929.811 319.412 932.194 321.795 932.194 324.735Z" fill="#F8FAFC"/>
<path d="M964.129 324.735C964.129 327.675 961.746 330.059 958.806 330.059C955.867 330.059 953.484 327.675 953.484 324.735C953.484 321.795 955.867 319.412 958.806 319.412C961.746 319.412 964.129 321.795 964.129 324.735Z" fill="#F8FAFC"/>
<path d="M996.065 324.735C996.065 327.675 993.682 330.059 990.742 330.059C987.802 330.059 985.419 327.675 985.419 324.735C985.419 321.795 987.802 319.412 990.742 319.412C993.682 319.412 996.065 321.795 996.065 324.735Z" fill="#F8FAFC"/>
<path d="M1028 324.735C1028 327.675 1025.62 330.059 1022.68 330.059C1019.74 330.059 1017.35 327.675 1017.35 324.735C1017.35 321.795 1019.74 319.412 1022.68 319.412C1025.62 319.412 1028 321.795 1028 324.735Z" fill="#F8FAFC"/>
<path d="M708.645 356.676C708.645 359.617 706.262 362 703.323 362C700.383 362 698 359.617 698 356.676C698 353.736 700.383 351.353 703.323 351.353C706.262 351.353 708.645 353.736 708.645 356.676Z" fill="#F8FAFC"/>
<path d="M740.581 356.676C740.581 359.617 738.198 362 735.258 362C732.318 362 729.935 359.617 729.935 356.676C729.935 353.736 732.318 351.353 735.258 351.353C738.198 351.353 740.581 353.736 740.581 356.676Z" fill="#F8FAFC"/>
<path d="M772.516 356.676C772.516 359.617 770.133 362 767.194 362C764.254 362 761.871 359.617 761.871 356.676C761.871 353.736 764.254 351.353 767.194 351.353C770.133 351.353 772.516 353.736 772.516 356.676Z" fill="#F8FAFC"/>
<path d="M804.452 356.676C804.452 359.617 802.069 362 799.129 362C796.189 362 793.806 359.617 793.806 356.676C793.806 353.736 796.189 351.353 799.129 351.353C802.069 351.353 804.452 353.736 804.452 356.676Z" fill="#F8FAFC"/>
<path d="M836.387 356.676C836.387 359.617 834.004 362 831.065 362C828.125 362 825.742 359.617 825.742 356.676C825.742 353.736 828.125 351.353 831.065 351.353C834.004 351.353 836.387 353.736 836.387 356.676Z" fill="#F8FAFC"/>
<path d="M868.323 356.676C868.323 359.617 865.94 362 863 362C860.06 362 857.677 359.617 857.677 356.676C857.677 353.736 860.06 351.353 863 351.353C865.94 351.353 868.323 353.736 868.323 356.676Z" fill="#F8FAFC"/>
<path d="M900.258 356.676C900.258 359.617 897.875 362 894.935 362C891.996 362 889.613 359.617 889.613 356.676C889.613 353.736 891.996 351.353 894.935 351.353C897.875 351.353 900.258 353.736 900.258 356.676Z" fill="#F8FAFC"/>
<path d="M932.194 356.676C932.194 359.617 929.811 362 926.871 362C923.931 362 921.548 359.617 921.548 356.676C921.548 353.736 923.931 351.353 926.871 351.353C929.811 351.353 932.194 353.736 932.194 356.676Z" fill="#F8FAFC"/>
<path d="M964.129 356.676C964.129 359.617 961.746 362 958.806 362C955.867 362 953.484 359.617 953.484 356.676C953.484 353.736 955.867 351.353 958.806 351.353C961.746 351.353 964.129 353.736 964.129 356.676Z" fill="#F8FAFC"/>
<path d="M996.065 356.676C996.065 359.617 993.682 362 990.742 362C987.802 362 985.419 359.617 985.419 356.676C985.419 353.736 987.802 351.353 990.742 351.353C993.682 351.353 996.065 353.736 996.065 356.676Z" fill="#F8FAFC"/>
<path d="M1028 356.676C1028 359.617 1025.62 362 1022.68 362C1019.74 362 1017.35 359.617 1017.35 356.676C1017.35 353.736 1019.74 351.353 1022.68 351.353C1025.62 351.353 1028 353.736 1028 356.676Z" fill="#F8FAFC"/>
<path d="M921 598.282L981 563.641L921 529L921 598.282Z" fill="#F8FAFC"/>
<path d="M1061 563.641L1001 598.282V529L1061 563.641Z" fill="#F8FAFC"/>
<path d="M1141 563.641L1081 598.282V529L1141 563.641Z" fill="#F8FAFC"/>
<path opacity="0.05" d="M1296 628C1337.42 628 1371 661.579 1371 703C1371 744.421 1337.42 778 1296 778" stroke="#2563EB" stroke-width="40"/>
<g opacity="0.25" filter="url(#filter0_f_646_1526)">
<circle cx="1100" cy="716" r="160" fill="#FEF08A"/>
</g>
<g opacity="0.3" filter="url(#filter1_f_646_1526)">
<circle cx="1358" cy="469" r="240" fill="#FEF08A"/>
</g>
<g opacity="0.3" filter="url(#filter2_f_646_1526)">
<circle cx="368" cy="469" r="240" fill="#BFDBFE"/>
</g>
<defs>
<filter id="filter0_f_646_1526" x="812" y="428" width="576" height="576" filterUnits="userSpaceOnUse" color-interpolation-filters="sRGB">
<feFlood flood-opacity="0" result="BackgroundImageFix"/>
<feBlend mode="normal" in="SourceGraphic" in2="BackgroundImageFix" result="shape"/>
<feGaussianBlur stdDeviation="64" result="effect1_foregroundBlur_646_1526"/>
</filter>
<filter id="filter1_f_646_1526" x="990" y="101" width="736" height="736" filterUnits="userSpaceOnUse" color-interpolation-filters="sRGB">
<feFlood flood-opacity="0" result="BackgroundImageFix"/>
<feBlend mode="normal" in="SourceGraphic" in2="BackgroundImageFix" result="shape"/>
<feGaussianBlur stdDeviation="64" result="effect1_foregroundBlur_646_1526"/>
</filter>
<filter id="filter2_f_646_1526" x="0" y="101" width="736" height="736" filterUnits="userSpaceOnUse" color-interpolation-filters="sRGB">
<feFlood flood-opacity="0" result="BackgroundImageFix"/>
<feBlend mode="normal" in="SourceGraphic" in2="BackgroundImageFix" result="shape"/>
<feGaussianBlur stdDeviation="64" result="effect1_foregroundBlur_646_1526"/>
</filter>
</defs>
</svg>
