<svg width="192" height="48" viewBox="0 0 192 48" fill="none" xmlns="http://www.w3.org/2000/svg">
<path d="M70.1591 25.8636V41H62.8977V6.09091H69.9545V19.4375H70.2614C70.8523 17.892 71.8068 16.6818 73.125 15.8068C74.4432 14.9205 76.0966 14.4773 78.0852 14.4773C79.9034 14.4773 81.4886 14.875 82.8409 15.6705C84.2045 16.4545 85.2614 17.5852 86.0114 19.0625C86.7727 20.5284 87.1477 22.2841 87.1364 24.3295V41H79.875V25.625C79.8864 24.0114 79.4773 22.7557 78.6477 21.858C77.8295 20.9602 76.6818 20.5114 75.2045 20.5114C74.2159 20.5114 73.3409 20.7216 72.5795 21.142C71.8295 21.5625 71.2386 22.1761 70.8068 22.983C70.3864 23.7784 70.1705 24.7386 70.1591 25.8636ZM100.317 41.4943C98.6463 41.4943 97.1577 41.2045 95.8509 40.625C94.544 40.0341 93.5099 39.1648 92.7486 38.017C91.9986 36.858 91.6236 35.4148 91.6236 33.6875C91.6236 32.233 91.8906 31.0114 92.4247 30.0227C92.9588 29.0341 93.6861 28.2386 94.6065 27.6364C95.527 27.0341 96.5724 26.5795 97.7429 26.2727C98.9247 25.9659 100.163 25.75 101.459 25.625C102.982 25.4659 104.209 25.3182 105.141 25.1818C106.072 25.0341 106.749 24.8182 107.169 24.5341C107.589 24.25 107.8 23.8295 107.8 23.2727V23.1705C107.8 22.0909 107.459 21.2557 106.777 20.6648C106.107 20.0739 105.152 19.7784 103.913 19.7784C102.607 19.7784 101.567 20.0682 100.794 20.6477C100.021 21.2159 99.5099 21.9318 99.2599 22.7955L92.544 22.25C92.8849 20.6591 93.5554 19.2841 94.5554 18.125C95.5554 16.9545 96.8452 16.0568 98.4247 15.4318C100.016 14.7955 101.857 14.4773 103.947 14.4773C105.402 14.4773 106.794 14.6477 108.124 14.9886C109.464 15.3295 110.652 15.858 111.686 16.5739C112.732 17.2898 113.555 18.2102 114.158 19.3352C114.76 20.4489 115.061 21.7841 115.061 23.3409V41H108.175V37.3693H107.97C107.55 38.1875 106.987 38.9091 106.283 39.5341C105.578 40.1477 104.732 40.6307 103.743 40.983C102.754 41.3239 101.612 41.4943 100.317 41.4943ZM102.396 36.483C103.464 36.483 104.408 36.2727 105.226 35.8523C106.044 35.4205 106.686 34.8409 107.152 34.1136C107.618 33.3864 107.851 32.5625 107.851 31.642V28.8636C107.624 29.0114 107.311 29.1477 106.913 29.2727C106.527 29.3864 106.089 29.4943 105.601 29.5966C105.112 29.6875 104.624 29.7727 104.135 29.8523C103.646 29.9205 103.203 29.983 102.805 30.0398C101.953 30.1648 101.209 30.3636 100.572 30.6364C99.9361 30.9091 99.4418 31.2784 99.0895 31.7443C98.7372 32.1989 98.5611 32.767 98.5611 33.4489C98.5611 34.4375 98.919 35.1932 99.6349 35.7159C100.362 36.2273 101.283 36.483 102.396 36.483ZM128.161 41.4943C126.49 41.4943 125.001 41.2045 123.695 40.625C122.388 40.0341 121.354 39.1648 120.592 38.017C119.842 36.858 119.467 35.4148 119.467 33.6875C119.467 32.233 119.734 31.0114 120.268 30.0227C120.803 29.0341 121.53 28.2386 122.45 27.6364C123.371 27.0341 124.416 26.5795 125.587 26.2727C126.768 25.9659 128.007 25.75 129.303 25.625C130.825 25.4659 132.053 25.3182 132.984 25.1818C133.916 25.0341 134.592 24.8182 135.013 24.5341C135.433 24.25 135.643 23.8295 135.643 23.2727V23.1705C135.643 22.0909 135.303 21.2557 134.621 20.6648C133.95 20.0739 132.996 19.7784 131.757 19.7784C130.45 19.7784 129.411 20.0682 128.638 20.6477C127.865 21.2159 127.354 21.9318 127.104 22.7955L120.388 22.25C120.729 20.6591 121.399 19.2841 122.399 18.125C123.399 16.9545 124.689 16.0568 126.268 15.4318C127.859 14.7955 129.7 14.4773 131.791 14.4773C133.246 14.4773 134.638 14.6477 135.967 14.9886C137.308 15.3295 138.496 15.858 139.53 16.5739C140.575 17.2898 141.399 18.2102 142.001 19.3352C142.604 20.4489 142.905 21.7841 142.905 23.3409V41H136.018V37.3693H135.814C135.393 38.1875 134.831 38.9091 134.126 39.5341C133.422 40.1477 132.575 40.6307 131.587 40.983C130.598 41.3239 129.456 41.4943 128.161 41.4943ZM130.24 36.483C131.308 36.483 132.251 36.2727 133.07 35.8523C133.888 35.4205 134.53 34.8409 134.996 34.1136C135.462 33.3864 135.695 32.5625 135.695 31.642V28.8636C135.467 29.0114 135.155 29.1477 134.757 29.2727C134.371 29.3864 133.933 29.4943 133.445 29.5966C132.956 29.6875 132.467 29.7727 131.979 29.8523C131.49 29.9205 131.047 29.983 130.649 30.0398C129.797 30.1648 129.053 30.3636 128.416 30.6364C127.78 30.9091 127.286 31.2784 126.933 31.7443C126.581 32.1989 126.405 32.767 126.405 33.4489C126.405 34.4375 126.763 35.1932 127.479 35.7159C128.206 36.2273 129.126 36.483 130.24 36.483ZM148.538 41V14.8182H155.8V41H148.538ZM152.186 11.4432C151.107 11.4432 150.18 11.0852 149.408 10.3693C148.646 9.64204 148.266 8.77273 148.266 7.76136C148.266 6.76136 148.646 5.90341 149.408 5.1875C150.18 4.46023 151.107 4.09659 152.186 4.09659C153.266 4.09659 154.186 4.46023 154.947 5.1875C155.72 5.90341 156.107 6.76136 156.107 7.76136C156.107 8.77273 155.72 9.64204 154.947 10.3693C154.186 11.0852 153.266 11.4432 152.186 11.4432Z" fill="#1D4ED8"/>
<rect width="48" height="48" rx="24" fill="#1D4ED8"/>
<g clip-path="url(#clip0_751_2414)">
<path d="M19 19C19 19 18.2598 17.719 16.9665 17.4616C15.6733 17.2042 14.3327 17.3361 13.1144 17.8406C11.8962 18.3451 10.8548 19.1996 10.1222 20.296C9.38958 21.3924 8.99854 22.6814 8.99854 24C8.99854 25.3186 9.38958 26.6076 10.1222 27.704C10.8548 28.8004 11.8962 29.6549 13.1144 30.1594C14.3327 30.6639 15.6733 30.7958 16.9665 30.5384C18.2598 30.281 19.4477 29.6459 20.38 28.7133C21.8593 27.3718 23.0854 25.7753 24 24C24.9145 22.2247 26.1407 20.6282 27.62 19.2867C28.5522 18.3541 29.7401 17.719 31.0334 17.4616C32.3266 17.2042 33.6672 17.3361 34.8855 17.8406C36.1038 18.3451 37.1451 19.1996 37.8777 20.296C38.6103 21.3924 39.0014 22.6814 39.0014 24C39.0014 25.3186 38.6103 26.6076 37.8777 27.704C37.1451 28.8004 36.1038 29.6549 34.8855 30.1594C33.6672 30.6639 32.3266 30.7958 31.0334 30.5384C29.7401 30.281 29 29.5 29 29.5" stroke="white" stroke-width="3.6" stroke-linecap="round" stroke-linejoin="round"/>
</g>
<path d="M165.413 28L166.862 19.2727H170.058C170.678 19.2727 171.173 19.375 171.545 19.5795C171.92 19.7812 172.179 20.0554 172.321 20.402C172.463 20.7457 172.497 21.1335 172.423 21.5653C172.364 21.929 172.246 22.2344 172.07 22.4815C171.896 22.7287 171.686 22.9276 171.439 23.0781C171.192 23.2287 170.932 23.3381 170.659 23.4062L170.642 23.4915C170.926 23.5057 171.192 23.5994 171.439 23.7727C171.689 23.9432 171.879 24.1861 172.01 24.5014C172.141 24.8168 172.17 25.2003 172.099 25.652C172.023 26.098 171.849 26.4986 171.58 26.8537C171.313 27.206 170.945 27.4858 170.476 27.6932C170.007 27.8977 169.435 28 168.759 28H165.413ZM166.918 26.8707H168.818C169.449 26.8707 169.92 26.7486 170.233 26.5043C170.548 26.2599 170.739 25.9545 170.804 25.5881C170.847 25.3125 170.817 25.0597 170.714 24.8295C170.615 24.5994 170.447 24.4162 170.212 24.2798C169.979 24.1435 169.686 24.0753 169.334 24.0753H167.386L166.918 26.8707ZM167.561 23.0483H169.321C169.616 23.0483 169.892 22.9915 170.148 22.8778C170.406 22.7642 170.621 22.6037 170.791 22.3963C170.964 22.1889 171.072 21.946 171.115 21.6676C171.178 21.304 171.102 21.0014 170.889 20.7599C170.679 20.5156 170.314 20.3935 169.794 20.3935H167.996L167.561 23.0483ZM175.967 28.1321C175.325 28.1321 174.793 27.9943 174.373 27.7188C173.955 27.4403 173.663 27.0497 173.495 26.5469C173.327 26.0412 173.3 25.4489 173.414 24.7699C173.525 24.0994 173.748 23.5085 174.083 22.9972C174.418 22.4858 174.836 22.0866 175.336 21.7997C175.839 21.5128 176.394 21.3693 177.002 21.3693C177.371 21.3693 177.719 21.4304 178.046 21.5526C178.376 21.6747 178.656 21.8665 178.886 22.1278C179.116 22.3892 179.275 22.7287 179.363 23.1463C179.454 23.5611 179.451 24.0653 179.354 24.6591L179.282 25.1108H174.075L174.224 24.1562H178.178C178.238 23.821 178.222 23.5241 178.131 23.2656C178.04 23.0043 177.884 22.7983 177.663 22.6477C177.444 22.4972 177.168 22.4219 176.836 22.4219C176.495 22.4219 176.177 22.5114 175.881 22.6903C175.586 22.8693 175.339 23.098 175.14 23.3764C174.944 23.652 174.82 23.9361 174.769 24.2287L174.62 25.1023C174.546 25.5795 174.559 25.9631 174.658 26.2528C174.761 26.5426 174.94 26.7528 175.195 26.8835C175.451 27.0142 175.771 27.0795 176.154 27.0795C176.401 27.0795 176.63 27.0455 176.84 26.9773C177.053 26.9062 177.242 26.8026 177.407 26.6662C177.572 26.527 177.71 26.3537 177.82 26.1463L178.988 26.3636C178.832 26.7187 178.607 27.0298 178.315 27.2969C178.022 27.5611 177.677 27.767 177.279 27.9148C176.884 28.0597 176.447 28.1321 175.967 28.1321ZM184.375 21.4545L184.209 22.4773H180.634L180.8 21.4545H184.375ZM182.015 19.8864H183.289L182.257 26.0781C182.218 26.3253 182.225 26.5114 182.279 26.6364C182.333 26.7585 182.415 26.8423 182.526 26.8878C182.64 26.9304 182.766 26.9517 182.905 26.9517C183.007 26.9517 183.097 26.9446 183.174 26.9304C183.25 26.9162 183.311 26.9048 183.357 26.8963L183.425 27.9489C183.34 27.9773 183.225 28.0057 183.08 28.0341C182.938 28.0653 182.765 28.0824 182.56 28.0852C182.225 28.0909 181.922 28.0312 181.652 27.9062C181.382 27.7784 181.181 27.5852 181.047 27.3267C180.914 27.0653 180.881 26.7372 180.949 26.3423L182.015 19.8864ZM186.582 28.1449C186.167 28.1449 185.805 28.0682 185.495 27.9148C185.185 27.7585 184.957 27.5327 184.809 27.2372C184.661 26.9418 184.623 26.5795 184.694 26.1506C184.756 25.7812 184.879 25.4773 185.06 25.2386C185.245 25 185.469 24.8111 185.734 24.6719C185.998 24.5298 186.285 24.4233 186.594 24.3523C186.904 24.2812 187.217 24.2287 187.532 24.1946C187.93 24.1491 188.252 24.1108 188.499 24.0795C188.749 24.0483 188.937 24 189.062 23.9347C189.187 23.8665 189.262 23.7557 189.288 23.6023V23.5724C189.347 23.2031 189.293 22.9162 189.126 22.7116C188.961 22.5043 188.674 22.4006 188.265 22.4006C187.839 22.4006 187.481 22.4943 187.191 22.6818C186.904 22.8693 186.692 23.0795 186.556 23.3125L185.414 23.0398C185.619 22.642 185.879 22.321 186.194 22.0767C186.512 21.8295 186.86 21.6506 187.238 21.5398C187.616 21.4261 188.002 21.3693 188.397 21.3693C188.658 21.3693 188.93 21.4006 189.211 21.4631C189.492 21.5227 189.748 21.6335 189.978 21.7955C190.211 21.9574 190.384 22.1889 190.498 22.4901C190.612 22.7884 190.629 23.1761 190.549 23.6534L189.829 28H188.585L188.738 27.1051H188.687C188.579 27.2699 188.428 27.4318 188.235 27.5909C188.045 27.75 187.812 27.8821 187.536 27.9872C187.261 28.0923 186.942 28.1449 186.582 28.1449ZM187.016 27.1222C187.371 27.1222 187.685 27.0526 187.958 26.9134C188.234 26.7741 188.457 26.5923 188.627 26.3679C188.798 26.1406 188.904 25.8977 188.947 25.6392L189.087 24.7955C189.033 24.8409 188.938 24.8821 188.802 24.919C188.668 24.956 188.518 24.9886 188.35 25.017C188.183 25.0455 188.018 25.0696 187.856 25.0895C187.697 25.1094 187.565 25.1278 187.46 25.1449C187.21 25.1761 186.975 25.2287 186.756 25.3026C186.54 25.3764 186.36 25.483 186.215 25.6222C186.07 25.7585 185.979 25.9403 185.942 26.1676C185.891 26.483 185.967 26.7216 186.168 26.8835C186.373 27.0426 186.656 27.1222 187.016 27.1222Z" fill="#94A3B8"/>
<defs>
<clipPath id="clip0_751_2414">
<rect width="40" height="40" fill="white" transform="translate(4 4)"/>
</clipPath>
</defs>
</svg>
