<svg width="48" height="48" viewBox="0 0 48 48" fill="none" xmlns="http://www.w3.org/2000/svg">
<rect width="48" height="48" rx="8" fill="#DDD6FE"/>
<g clip-path="url(#clip0_359_5)">
<path d="M18.6667 25.3333V14C18.6667 13.4696 18.8774 12.9609 19.2524 12.5858C19.6275 12.2107 20.1362 12 20.6667 12C21.1971 12 21.7058 12.2107 22.0809 12.5858C22.4559 12.9609 22.6667 13.4696 22.6667 14V24" stroke="#7C3AED" stroke-width="2" stroke-linecap="round" stroke-linejoin="round"/>
<path d="M22.6667 23.3333V20.6667C22.6667 20.1362 22.8774 19.6275 23.2524 19.2524C23.6275 18.8774 24.1362 18.6667 24.6667 18.6667C25.1971 18.6667 25.7058 18.8774 26.0809 19.2524C26.4559 19.6275 26.6667 20.1362 26.6667 20.6667V24" stroke="#7C3AED" stroke-width="2" stroke-linecap="round" stroke-linejoin="round"/>
<path d="M26.6667 22C26.6667 21.4696 26.8774 20.9609 27.2524 20.5858C27.6275 20.2107 28.1362 20 28.6667 20C29.1971 20 29.7058 20.2107 30.0809 20.5858C30.4559 20.9609 30.6667 21.4696 30.6667 22V24" stroke="#7C3AED" stroke-width="2" stroke-linecap="round" stroke-linejoin="round"/>
<path d="M30.6667 23.3333C30.6667 22.8029 30.8774 22.2942 31.2525 21.9191C31.6275 21.5441 32.1362 21.3333 32.6667 21.3333C33.1971 21.3333 33.7058 21.5441 34.0809 21.9191C34.456 22.2942 34.6667 22.8029 34.6667 23.3333V29.3333C34.6667 31.4551 33.8238 33.4899 32.3235 34.9902C30.8232 36.4905 28.7884 37.3333 26.6667 37.3333H24H24.2773C22.9524 37.3336 21.6482 37.0047 20.4818 36.3764C19.3154 35.748 18.3234 34.8398 17.5947 33.7333L17.3333 33.3333C16.9173 32.6947 15.4573 30.1493 12.952 25.696C12.6966 25.2421 12.6284 24.7064 12.7618 24.2029C12.8953 23.6994 13.2199 23.2678 13.6667 23C14.1425 22.7145 14.7001 22.5962 15.2509 22.6638C15.8017 22.7314 16.3141 22.9812 16.7067 23.3733L18.6667 25.3333" stroke="#7C3AED" stroke-width="2" stroke-linecap="round" stroke-linejoin="round"/>
<path d="M14.6667 12L13.3333 10.6667" stroke="#7C3AED" stroke-width="2" stroke-linecap="round" stroke-linejoin="round"/>
<path d="M13.3333 17.3333H12" stroke="#7C3AED" stroke-width="2" stroke-linecap="round" stroke-linejoin="round"/>
<path d="M26.6667 12L28 10.6667" stroke="#7C3AED" stroke-width="2" stroke-linecap="round" stroke-linejoin="round"/>
<path d="M28 16H29.3333" stroke="#7C3AED" stroke-width="2" stroke-linecap="round" stroke-linejoin="round"/>
</g>
<defs>
<clipPath id="clip0_359_5">
<rect width="32" height="32" fill="white" transform="translate(8 8)"/>
</clipPath>
</defs>
</svg>
