<svg width="1280" height="393" viewBox="0 0 1280 393" fill="none" xmlns="http://www.w3.org/2000/svg">
<path d="M289.287 162.77C290.118 164.209 290.927 165.662 291.714 167.129C290.285 166.194 289.33 164.595 289.287 162.77Z" fill="#F8FAFC"/>
<path d="M259.954 125.785C262.451 128.128 264.872 130.549 267.215 133.046C266.309 134.72 264.537 135.857 262.5 135.857C259.541 135.857 257.143 133.459 257.143 130.5C257.143 128.463 258.28 126.691 259.954 125.785Z" fill="#F8FAFC"/>
<path d="M225.871 101.286C227.338 102.073 228.791 102.882 230.23 103.713C228.405 103.67 226.806 102.715 225.871 101.286Z" fill="#F8FAFC"/>
<path d="M69.7703 103.713C71.2093 102.882 72.6623 102.073 74.129 101.286C73.1942 102.715 71.5951 103.67 69.7703 103.713Z" fill="#F8FAFC"/>
<path d="M32.7852 133.046C35.1279 130.549 37.5494 128.128 40.0457 125.785C41.72 126.691 42.8571 128.463 42.8571 130.5C42.8571 133.459 40.4587 135.857 37.5 135.857C35.4628 135.857 33.6911 134.72 32.7852 133.046Z" fill="#F8FAFC"/>
<path d="M8.28625 167.129C9.07314 165.662 9.88214 164.209 10.7128 162.77C10.6702 164.595 9.71517 166.194 8.28625 167.129Z" fill="#F8FAFC"/>
<path d="M291.714 318.871C290.927 320.338 290.118 321.791 289.287 323.23C289.33 321.405 290.285 319.806 291.714 318.871Z" fill="#F8FAFC"/>
<path d="M267.215 352.954C266.309 351.28 264.537 350.143 262.5 350.143C259.541 350.143 257.143 352.541 257.143 355.5C257.143 357.537 258.28 359.309 259.954 360.215C262.451 357.872 264.872 355.451 267.215 352.954Z" fill="#F8FAFC"/>
<path d="M230.23 382.287C228.405 382.33 226.806 383.285 225.871 384.714C227.338 383.927 228.791 383.118 230.23 382.287Z" fill="#F8FAFC"/>
<path d="M74.129 384.714C73.1942 383.285 71.5951 382.33 69.7703 382.287C71.2093 383.118 72.6623 383.927 74.129 384.714Z" fill="#F8FAFC"/>
<path d="M40.0457 360.215C41.72 359.309 42.8571 357.537 42.8571 355.5C42.8571 352.541 40.4587 350.143 37.5 350.143C35.4628 350.143 33.6911 351.28 32.7852 352.954C35.1279 355.451 37.5494 357.872 40.0457 360.215Z" fill="#F8FAFC"/>
<path d="M10.7128 323.23C10.6702 321.405 9.71517 319.806 8.28625 318.871C9.07314 320.338 9.88214 321.791 10.7128 323.23Z" fill="#F8FAFC"/>
<path d="M107.143 98.3571C107.143 101.316 104.744 103.714 101.786 103.714C98.827 103.714 96.4286 101.316 96.4286 98.3571C96.4286 95.3985 98.827 93 101.786 93C104.744 93 107.143 95.3985 107.143 98.3571Z" fill="#F8FAFC"/>
<path d="M139.286 98.3571C139.286 101.316 136.887 103.714 133.929 103.714C130.97 103.714 128.571 101.316 128.571 98.3571C128.571 95.3985 130.97 93 133.929 93C136.887 93 139.286 95.3985 139.286 98.3571Z" fill="#F8FAFC"/>
<path d="M171.429 98.3571C171.429 101.316 169.03 103.714 166.071 103.714C163.113 103.714 160.714 101.316 160.714 98.3571C160.714 95.3985 163.113 93 166.071 93C169.03 93 171.429 95.3985 171.429 98.3571Z" fill="#F8FAFC"/>
<path d="M203.571 98.3571C203.571 101.316 201.173 103.714 198.214 103.714C195.256 103.714 192.857 101.316 192.857 98.3571C192.857 95.3985 195.256 93 198.214 93C201.173 93 203.571 95.3985 203.571 98.3571Z" fill="#F8FAFC"/>
<path d="M75 130.5C75 133.459 72.6015 135.857 69.6429 135.857C66.6842 135.857 64.2857 133.459 64.2857 130.5C64.2857 127.541 66.6842 125.143 69.6429 125.143C72.6015 125.143 75 127.541 75 130.5Z" fill="#F8FAFC"/>
<path d="M107.143 130.5C107.143 133.459 104.744 135.857 101.786 135.857C98.827 135.857 96.4286 133.459 96.4286 130.5C96.4286 127.541 98.827 125.143 101.786 125.143C104.744 125.143 107.143 127.541 107.143 130.5Z" fill="#F8FAFC"/>
<path d="M139.286 130.5C139.286 133.459 136.887 135.857 133.929 135.857C130.97 135.857 128.571 133.459 128.571 130.5C128.571 127.541 130.97 125.143 133.929 125.143C136.887 125.143 139.286 127.541 139.286 130.5Z" fill="#F8FAFC"/>
<path d="M171.429 130.5C171.429 133.459 169.03 135.857 166.071 135.857C163.113 135.857 160.714 133.459 160.714 130.5C160.714 127.541 163.113 125.143 166.071 125.143C169.03 125.143 171.429 127.541 171.429 130.5Z" fill="#F8FAFC"/>
<path d="M203.571 130.5C203.571 133.459 201.173 135.857 198.214 135.857C195.256 135.857 192.857 133.459 192.857 130.5C192.857 127.541 195.256 125.143 198.214 125.143C201.173 125.143 203.571 127.541 203.571 130.5Z" fill="#F8FAFC"/>
<path d="M235.714 130.5C235.714 133.459 233.316 135.857 230.357 135.857C227.398 135.857 225 133.459 225 130.5C225 127.541 227.398 125.143 230.357 125.143C233.316 125.143 235.714 127.541 235.714 130.5Z" fill="#F8FAFC"/>
<path d="M42.8571 162.643C42.8571 165.602 40.4587 168 37.5 168C34.5413 168 32.1429 165.602 32.1429 162.643C32.1429 159.684 34.5413 157.286 37.5 157.286C40.4587 157.286 42.8571 159.684 42.8571 162.643Z" fill="#F8FAFC"/>
<path d="M75 162.643C75 165.602 72.6015 168 69.6429 168C66.6842 168 64.2857 165.602 64.2857 162.643C64.2857 159.684 66.6842 157.286 69.6429 157.286C72.6015 157.286 75 159.684 75 162.643Z" fill="#F8FAFC"/>
<path d="M107.143 162.643C107.143 165.602 104.744 168 101.786 168C98.827 168 96.4286 165.602 96.4286 162.643C96.4286 159.684 98.827 157.286 101.786 157.286C104.744 157.286 107.143 159.684 107.143 162.643Z" fill="#F8FAFC"/>
<path d="M139.286 162.643C139.286 165.602 136.887 168 133.929 168C130.97 168 128.571 165.602 128.571 162.643C128.571 159.684 130.97 157.286 133.929 157.286C136.887 157.286 139.286 159.684 139.286 162.643Z" fill="#F8FAFC"/>
<path d="M171.429 162.643C171.429 165.602 169.03 168 166.071 168C163.113 168 160.714 165.602 160.714 162.643C160.714 159.684 163.113 157.286 166.071 157.286C169.03 157.286 171.429 159.684 171.429 162.643Z" fill="#F8FAFC"/>
<path d="M203.571 162.643C203.571 165.602 201.173 168 198.214 168C195.256 168 192.857 165.602 192.857 162.643C192.857 159.684 195.256 157.286 198.214 157.286C201.173 157.286 203.571 159.684 203.571 162.643Z" fill="#F8FAFC"/>
<path d="M235.714 162.643C235.714 165.602 233.316 168 230.357 168C227.398 168 225 165.602 225 162.643C225 159.684 227.398 157.286 230.357 157.286C233.316 157.286 235.714 159.684 235.714 162.643Z" fill="#F8FAFC"/>
<path d="M267.857 162.643C267.857 165.602 265.459 168 262.5 168C259.541 168 257.143 165.602 257.143 162.643C257.143 159.684 259.541 157.286 262.5 157.286C265.459 157.286 267.857 159.684 267.857 162.643Z" fill="#F8FAFC"/>
<path d="M10.7143 194.786C10.7143 197.744 8.31581 200.143 5.35714 200.143C2.39847 200.143 0 197.744 0 194.786C0 191.827 2.39847 189.429 5.35714 189.429C8.31581 189.429 10.7143 191.827 10.7143 194.786Z" fill="#F8FAFC"/>
<path d="M42.8571 194.786C42.8571 197.744 40.4587 200.143 37.5 200.143C34.5413 200.143 32.1429 197.744 32.1429 194.786C32.1429 191.827 34.5413 189.429 37.5 189.429C40.4587 189.429 42.8571 191.827 42.8571 194.786Z" fill="#F8FAFC"/>
<path d="M75 194.786C75 197.744 72.6015 200.143 69.6429 200.143C66.6842 200.143 64.2857 197.744 64.2857 194.786C64.2857 191.827 66.6842 189.429 69.6429 189.429C72.6015 189.429 75 191.827 75 194.786Z" fill="#F8FAFC"/>
<path d="M107.143 194.786C107.143 197.744 104.744 200.143 101.786 200.143C98.827 200.143 96.4286 197.744 96.4286 194.786C96.4286 191.827 98.827 189.429 101.786 189.429C104.744 189.429 107.143 191.827 107.143 194.786Z" fill="#F8FAFC"/>
<path d="M139.286 194.786C139.286 197.744 136.887 200.143 133.929 200.143C130.97 200.143 128.571 197.744 128.571 194.786C128.571 191.827 130.97 189.429 133.929 189.429C136.887 189.429 139.286 191.827 139.286 194.786Z" fill="#F8FAFC"/>
<path d="M171.429 194.786C171.429 197.744 169.03 200.143 166.071 200.143C163.113 200.143 160.714 197.744 160.714 194.786C160.714 191.827 163.113 189.429 166.071 189.429C169.03 189.429 171.429 191.827 171.429 194.786Z" fill="#F8FAFC"/>
<path d="M203.571 194.786C203.571 197.744 201.173 200.143 198.214 200.143C195.256 200.143 192.857 197.744 192.857 194.786C192.857 191.827 195.256 189.429 198.214 189.429C201.173 189.429 203.571 191.827 203.571 194.786Z" fill="#F8FAFC"/>
<path d="M235.714 194.786C235.714 197.744 233.316 200.143 230.357 200.143C227.398 200.143 225 197.744 225 194.786C225 191.827 227.398 189.429 230.357 189.429C233.316 189.429 235.714 191.827 235.714 194.786Z" fill="#F8FAFC"/>
<path d="M267.857 194.786C267.857 197.744 265.459 200.143 262.5 200.143C259.541 200.143 257.143 197.744 257.143 194.786C257.143 191.827 259.541 189.429 262.5 189.429C265.459 189.429 267.857 191.827 267.857 194.786Z" fill="#F8FAFC"/>
<path d="M300 194.786C300 197.744 297.602 200.143 294.643 200.143C291.684 200.143 289.286 197.744 289.286 194.786C289.286 191.827 291.684 189.429 294.643 189.429C297.602 189.429 300 191.827 300 194.786Z" fill="#F8FAFC"/>
<path d="M10.7143 226.929C10.7143 229.887 8.31581 232.286 5.35714 232.286C2.39847 232.286 0 229.887 0 226.929C0 223.97 2.39847 221.571 5.35714 221.571C8.31581 221.571 10.7143 223.97 10.7143 226.929Z" fill="#F8FAFC"/>
<path d="M42.8571 226.929C42.8571 229.887 40.4587 232.286 37.5 232.286C34.5413 232.286 32.1429 229.887 32.1429 226.929C32.1429 223.97 34.5413 221.571 37.5 221.571C40.4587 221.571 42.8571 223.97 42.8571 226.929Z" fill="#F8FAFC"/>
<path d="M75 226.929C75 229.887 72.6015 232.286 69.6429 232.286C66.6842 232.286 64.2857 229.887 64.2857 226.929C64.2857 223.97 66.6842 221.571 69.6429 221.571C72.6015 221.571 75 223.97 75 226.929Z" fill="#F8FAFC"/>
<path d="M107.143 226.929C107.143 229.887 104.744 232.286 101.786 232.286C98.827 232.286 96.4286 229.887 96.4286 226.929C96.4286 223.97 98.827 221.571 101.786 221.571C104.744 221.571 107.143 223.97 107.143 226.929Z" fill="#F8FAFC"/>
<path d="M139.286 226.929C139.286 229.887 136.887 232.286 133.929 232.286C130.97 232.286 128.571 229.887 128.571 226.929C128.571 223.97 130.97 221.571 133.929 221.571C136.887 221.571 139.286 223.97 139.286 226.929Z" fill="#F8FAFC"/>
<path d="M171.429 226.929C171.429 229.887 169.03 232.286 166.071 232.286C163.113 232.286 160.714 229.887 160.714 226.929C160.714 223.97 163.113 221.571 166.071 221.571C169.03 221.571 171.429 223.97 171.429 226.929Z" fill="#F8FAFC"/>
<path d="M203.571 226.929C203.571 229.887 201.173 232.286 198.214 232.286C195.256 232.286 192.857 229.887 192.857 226.929C192.857 223.97 195.256 221.571 198.214 221.571C201.173 221.571 203.571 223.97 203.571 226.929Z" fill="#F8FAFC"/>
<path d="M235.714 226.929C235.714 229.887 233.316 232.286 230.357 232.286C227.398 232.286 225 229.887 225 226.929C225 223.97 227.398 221.571 230.357 221.571C233.316 221.571 235.714 223.97 235.714 226.929Z" fill="#F8FAFC"/>
<path d="M267.857 226.929C267.857 229.887 265.459 232.286 262.5 232.286C259.541 232.286 257.143 229.887 257.143 226.929C257.143 223.97 259.541 221.571 262.5 221.571C265.459 221.571 267.857 223.97 267.857 226.929Z" fill="#F8FAFC"/>
<path d="M300 226.929C300 229.887 297.602 232.286 294.643 232.286C291.684 232.286 289.286 229.887 289.286 226.929C289.286 223.97 291.684 221.571 294.643 221.571C297.602 221.571 300 223.97 300 226.929Z" fill="#F8FAFC"/>
<path d="M10.7143 259.071C10.7143 262.03 8.31581 264.429 5.35714 264.429C2.39847 264.429 0 262.03 0 259.071C0 256.113 2.39847 253.714 5.35714 253.714C8.31581 253.714 10.7143 256.113 10.7143 259.071Z" fill="#F8FAFC"/>
<path d="M42.8571 259.071C42.8571 262.03 40.4587 264.429 37.5 264.429C34.5413 264.429 32.1429 262.03 32.1429 259.071C32.1429 256.113 34.5413 253.714 37.5 253.714C40.4587 253.714 42.8571 256.113 42.8571 259.071Z" fill="#F8FAFC"/>
<path d="M75 259.071C75 262.03 72.6015 264.429 69.6429 264.429C66.6842 264.429 64.2857 262.03 64.2857 259.071C64.2857 256.113 66.6842 253.714 69.6429 253.714C72.6015 253.714 75 256.113 75 259.071Z" fill="#F8FAFC"/>
<path d="M107.143 259.071C107.143 262.03 104.744 264.429 101.786 264.429C98.827 264.429 96.4286 262.03 96.4286 259.071C96.4286 256.113 98.827 253.714 101.786 253.714C104.744 253.714 107.143 256.113 107.143 259.071Z" fill="#F8FAFC"/>
<path d="M139.286 259.071C139.286 262.03 136.887 264.429 133.929 264.429C130.97 264.429 128.571 262.03 128.571 259.071C128.571 256.113 130.97 253.714 133.929 253.714C136.887 253.714 139.286 256.113 139.286 259.071Z" fill="#F8FAFC"/>
<path d="M171.429 259.071C171.429 262.03 169.03 264.429 166.071 264.429C163.113 264.429 160.714 262.03 160.714 259.071C160.714 256.113 163.113 253.714 166.071 253.714C169.03 253.714 171.429 256.113 171.429 259.071Z" fill="#F8FAFC"/>
<path d="M203.571 259.071C203.571 262.03 201.173 264.429 198.214 264.429C195.256 264.429 192.857 262.03 192.857 259.071C192.857 256.113 195.256 253.714 198.214 253.714C201.173 253.714 203.571 256.113 203.571 259.071Z" fill="#F8FAFC"/>
<path d="M235.714 259.071C235.714 262.03 233.316 264.429 230.357 264.429C227.398 264.429 225 262.03 225 259.071C225 256.113 227.398 253.714 230.357 253.714C233.316 253.714 235.714 256.113 235.714 259.071Z" fill="#F8FAFC"/>
<path d="M267.857 259.071C267.857 262.03 265.459 264.429 262.5 264.429C259.541 264.429 257.143 262.03 257.143 259.071C257.143 256.113 259.541 253.714 262.5 253.714C265.459 253.714 267.857 256.113 267.857 259.071Z" fill="#F8FAFC"/>
<path d="M300 259.071C300 262.03 297.602 264.429 294.643 264.429C291.684 264.429 289.286 262.03 289.286 259.071C289.286 256.113 291.684 253.714 294.643 253.714C297.602 253.714 300 256.113 300 259.071Z" fill="#F8FAFC"/>
<path d="M10.7143 291.214C10.7143 294.173 8.31581 296.571 5.35714 296.571C2.39847 296.571 0 294.173 0 291.214C0 288.256 2.39847 285.857 5.35714 285.857C8.31581 285.857 10.7143 288.256 10.7143 291.214Z" fill="#F8FAFC"/>
<path d="M42.8571 291.214C42.8571 294.173 40.4587 296.571 37.5 296.571C34.5413 296.571 32.1429 294.173 32.1429 291.214C32.1429 288.256 34.5413 285.857 37.5 285.857C40.4587 285.857 42.8571 288.256 42.8571 291.214Z" fill="#F8FAFC"/>
<path d="M75 291.214C75 294.173 72.6015 296.571 69.6429 296.571C66.6842 296.571 64.2857 294.173 64.2857 291.214C64.2857 288.256 66.6842 285.857 69.6429 285.857C72.6015 285.857 75 288.256 75 291.214Z" fill="#F8FAFC"/>
<path d="M107.143 291.214C107.143 294.173 104.744 296.571 101.786 296.571C98.827 296.571 96.4286 294.173 96.4286 291.214C96.4286 288.256 98.827 285.857 101.786 285.857C104.744 285.857 107.143 288.256 107.143 291.214Z" fill="#F8FAFC"/>
<path d="M139.286 291.214C139.286 294.173 136.887 296.571 133.929 296.571C130.97 296.571 128.571 294.173 128.571 291.214C128.571 288.256 130.97 285.857 133.929 285.857C136.887 285.857 139.286 288.256 139.286 291.214Z" fill="#F8FAFC"/>
<path d="M171.429 291.214C171.429 294.173 169.03 296.571 166.071 296.571C163.113 296.571 160.714 294.173 160.714 291.214C160.714 288.256 163.113 285.857 166.071 285.857C169.03 285.857 171.429 288.256 171.429 291.214Z" fill="#F8FAFC"/>
<path d="M203.571 291.214C203.571 294.173 201.173 296.571 198.214 296.571C195.256 296.571 192.857 294.173 192.857 291.214C192.857 288.256 195.256 285.857 198.214 285.857C201.173 285.857 203.571 288.256 203.571 291.214Z" fill="#F8FAFC"/>
<path d="M235.714 291.214C235.714 294.173 233.316 296.571 230.357 296.571C227.398 296.571 225 294.173 225 291.214C225 288.256 227.398 285.857 230.357 285.857C233.316 285.857 235.714 288.256 235.714 291.214Z" fill="#F8FAFC"/>
<path d="M267.857 291.214C267.857 294.173 265.459 296.571 262.5 296.571C259.541 296.571 257.143 294.173 257.143 291.214C257.143 288.256 259.541 285.857 262.5 285.857C265.459 285.857 267.857 288.256 267.857 291.214Z" fill="#F8FAFC"/>
<path d="M300 291.214C300 294.173 297.602 296.571 294.643 296.571C291.684 296.571 289.286 294.173 289.286 291.214C289.286 288.256 291.684 285.857 294.643 285.857C297.602 285.857 300 288.256 300 291.214Z" fill="#F8FAFC"/>
<path d="M42.8571 323.357C42.8571 326.316 40.4587 328.714 37.5 328.714C34.5413 328.714 32.1429 326.316 32.1429 323.357C32.1429 320.398 34.5413 318 37.5 318C40.4587 318 42.8571 320.398 42.8571 323.357Z" fill="#F8FAFC"/>
<path d="M75 323.357C75 326.316 72.6015 328.714 69.6429 328.714C66.6842 328.714 64.2857 326.316 64.2857 323.357C64.2857 320.398 66.6842 318 69.6429 318C72.6015 318 75 320.398 75 323.357Z" fill="#F8FAFC"/>
<path d="M107.143 323.357C107.143 326.316 104.744 328.714 101.786 328.714C98.827 328.714 96.4286 326.316 96.4286 323.357C96.4286 320.398 98.827 318 101.786 318C104.744 318 107.143 320.398 107.143 323.357Z" fill="#F8FAFC"/>
<path d="M139.286 323.357C139.286 326.316 136.887 328.714 133.929 328.714C130.97 328.714 128.571 326.316 128.571 323.357C128.571 320.398 130.97 318 133.929 318C136.887 318 139.286 320.398 139.286 323.357Z" fill="#F8FAFC"/>
<path d="M171.429 323.357C171.429 326.316 169.03 328.714 166.071 328.714C163.113 328.714 160.714 326.316 160.714 323.357C160.714 320.398 163.113 318 166.071 318C169.03 318 171.429 320.398 171.429 323.357Z" fill="#F8FAFC"/>
<path d="M203.571 323.357C203.571 326.316 201.173 328.714 198.214 328.714C195.256 328.714 192.857 326.316 192.857 323.357C192.857 320.398 195.256 318 198.214 318C201.173 318 203.571 320.398 203.571 323.357Z" fill="#F8FAFC"/>
<path d="M235.714 323.357C235.714 326.316 233.316 328.714 230.357 328.714C227.398 328.714 225 326.316 225 323.357C225 320.398 227.398 318 230.357 318C233.316 318 235.714 320.398 235.714 323.357Z" fill="#F8FAFC"/>
<path d="M267.857 323.357C267.857 326.316 265.459 328.714 262.5 328.714C259.541 328.714 257.143 326.316 257.143 323.357C257.143 320.398 259.541 318 262.5 318C265.459 318 267.857 320.398 267.857 323.357Z" fill="#F8FAFC"/>
<path d="M75 355.5C75 358.459 72.6015 360.857 69.6429 360.857C66.6842 360.857 64.2857 358.459 64.2857 355.5C64.2857 352.541 66.6842 350.143 69.6429 350.143C72.6015 350.143 75 352.541 75 355.5Z" fill="#F8FAFC"/>
<path d="M107.143 355.5C107.143 358.459 104.744 360.857 101.786 360.857C98.827 360.857 96.4286 358.459 96.4286 355.5C96.4286 352.541 98.827 350.143 101.786 350.143C104.744 350.143 107.143 352.541 107.143 355.5Z" fill="#F8FAFC"/>
<path d="M139.286 355.5C139.286 358.459 136.887 360.857 133.929 360.857C130.97 360.857 128.571 358.459 128.571 355.5C128.571 352.541 130.97 350.143 133.929 350.143C136.887 350.143 139.286 352.541 139.286 355.5Z" fill="#F8FAFC"/>
<path d="M171.429 355.5C171.429 358.459 169.03 360.857 166.071 360.857C163.113 360.857 160.714 358.459 160.714 355.5C160.714 352.541 163.113 350.143 166.071 350.143C169.03 350.143 171.429 352.541 171.429 355.5Z" fill="#F8FAFC"/>
<path d="M203.571 355.5C203.571 358.459 201.173 360.857 198.214 360.857C195.256 360.857 192.857 358.459 192.857 355.5C192.857 352.541 195.256 350.143 198.214 350.143C201.173 350.143 203.571 352.541 203.571 355.5Z" fill="#F8FAFC"/>
<path d="M235.714 355.5C235.714 358.459 233.316 360.857 230.357 360.857C227.398 360.857 225 358.459 225 355.5C225 352.541 227.398 350.143 230.357 350.143C233.316 350.143 235.714 352.541 235.714 355.5Z" fill="#F8FAFC"/>
<path d="M107.143 387.643C107.143 390.602 104.744 393 101.786 393C98.827 393 96.4286 390.602 96.4286 387.643C96.4286 384.684 98.827 382.286 101.786 382.286C104.744 382.286 107.143 384.684 107.143 387.643Z" fill="#F8FAFC"/>
<path d="M139.286 387.643C139.286 390.602 136.887 393 133.929 393C130.97 393 128.571 390.602 128.571 387.643C128.571 384.684 130.97 382.286 133.929 382.286C136.887 382.286 139.286 384.684 139.286 387.643Z" fill="#F8FAFC"/>
<path d="M171.429 387.643C171.429 390.602 169.03 393 166.071 393C163.113 393 160.714 390.602 160.714 387.643C160.714 384.684 163.113 382.286 166.071 382.286C169.03 382.286 171.429 384.684 171.429 387.643Z" fill="#F8FAFC"/>
<path d="M203.571 387.643C203.571 390.602 201.173 393 198.214 393C195.256 393 192.857 390.602 192.857 387.643C192.857 384.684 195.256 382.286 198.214 382.286C201.173 382.286 203.571 384.684 203.571 387.643Z" fill="#F8FAFC"/>
<path d="M1269.29 69.7703C1270.12 71.2093 1270.93 72.6623 1271.71 74.129C1270.28 73.1942 1269.33 71.5951 1269.29 69.7703Z" fill="#F8FAFC"/>
<path d="M1239.95 32.7852C1242.45 35.1279 1244.87 37.5494 1247.21 40.0457C1246.31 41.72 1244.54 42.8571 1242.5 42.8571C1239.54 42.8571 1237.14 40.4587 1237.14 37.5C1237.14 35.4628 1238.28 33.6911 1239.95 32.7852Z" fill="#F8FAFC"/>
<path d="M1205.87 8.28625C1207.34 9.07314 1208.79 9.88214 1210.23 10.7128C1208.4 10.6702 1206.81 9.71517 1205.87 8.28625Z" fill="#F8FAFC"/>
<path d="M1049.77 10.7128C1051.21 9.88214 1052.66 9.07314 1054.13 8.28625C1053.19 9.71517 1051.6 10.6702 1049.77 10.7128Z" fill="#F8FAFC"/>
<path d="M1012.79 40.0457C1015.13 37.5494 1017.55 35.1279 1020.05 32.7852C1021.72 33.6911 1022.86 35.4628 1022.86 37.5C1022.86 40.4587 1020.46 42.8571 1017.5 42.8571C1015.46 42.8571 1013.69 41.72 1012.79 40.0457Z" fill="#F8FAFC"/>
<path d="M988.286 74.129C989.073 72.6623 989.882 71.2093 990.713 69.7703C990.67 71.5951 989.715 73.1942 988.286 74.129Z" fill="#F8FAFC"/>
<path d="M1271.71 225.871C1270.93 227.338 1270.12 228.791 1269.29 230.23C1269.33 228.405 1270.28 226.806 1271.71 225.871Z" fill="#F8FAFC"/>
<path d="M1247.21 259.954C1246.31 258.28 1244.54 257.143 1242.5 257.143C1239.54 257.143 1237.14 259.541 1237.14 262.5C1237.14 264.537 1238.28 266.309 1239.95 267.215C1242.45 264.872 1244.87 262.451 1247.21 259.954Z" fill="#F8FAFC"/>
<path d="M1210.23 289.287C1208.4 289.33 1206.81 290.285 1205.87 291.714C1207.34 290.927 1208.79 290.118 1210.23 289.287Z" fill="#F8FAFC"/>
<path d="M1054.13 291.714C1053.19 290.285 1051.6 289.33 1049.77 289.287C1051.21 290.118 1052.66 290.927 1054.13 291.714Z" fill="#F8FAFC"/>
<path d="M1020.05 267.215C1021.72 266.309 1022.86 264.537 1022.86 262.5C1022.86 259.541 1020.46 257.143 1017.5 257.143C1015.46 257.143 1013.69 258.28 1012.79 259.954C1015.13 262.451 1017.55 264.872 1020.05 267.215Z" fill="#F8FAFC"/>
<path d="M990.713 230.23C990.67 228.405 989.715 226.806 988.286 225.871C989.073 227.338 989.882 228.791 990.713 230.23Z" fill="#F8FAFC"/>
<path d="M1087.14 5.35714C1087.14 8.31581 1084.74 10.7143 1081.79 10.7143C1078.83 10.7143 1076.43 8.31581 1076.43 5.35714C1076.43 2.39847 1078.83 0 1081.79 0C1084.74 0 1087.14 2.39847 1087.14 5.35714Z" fill="#F8FAFC"/>
<path d="M1119.29 5.35714C1119.29 8.31581 1116.89 10.7143 1113.93 10.7143C1110.97 10.7143 1108.57 8.31581 1108.57 5.35714C1108.57 2.39847 1110.97 0 1113.93 0C1116.89 0 1119.29 2.39847 1119.29 5.35714Z" fill="#F8FAFC"/>
<path d="M1151.43 5.35714C1151.43 8.31581 1149.03 10.7143 1146.07 10.7143C1143.11 10.7143 1140.71 8.31581 1140.71 5.35714C1140.71 2.39847 1143.11 0 1146.07 0C1149.03 0 1151.43 2.39847 1151.43 5.35714Z" fill="#F8FAFC"/>
<path d="M1183.57 5.35714C1183.57 8.31581 1181.17 10.7143 1178.21 10.7143C1175.26 10.7143 1172.86 8.31581 1172.86 5.35714C1172.86 2.39847 1175.26 0 1178.21 0C1181.17 0 1183.57 2.39847 1183.57 5.35714Z" fill="#F8FAFC"/>
<path d="M1055 37.5C1055 40.4587 1052.6 42.8571 1049.64 42.8571C1046.68 42.8571 1044.29 40.4587 1044.29 37.5C1044.29 34.5413 1046.68 32.1429 1049.64 32.1429C1052.6 32.1429 1055 34.5413 1055 37.5Z" fill="#F8FAFC"/>
<path d="M1087.14 37.5C1087.14 40.4587 1084.74 42.8571 1081.79 42.8571C1078.83 42.8571 1076.43 40.4587 1076.43 37.5C1076.43 34.5413 1078.83 32.1429 1081.79 32.1429C1084.74 32.1429 1087.14 34.5413 1087.14 37.5Z" fill="#F8FAFC"/>
<path d="M1119.29 37.5C1119.29 40.4587 1116.89 42.8571 1113.93 42.8571C1110.97 42.8571 1108.57 40.4587 1108.57 37.5C1108.57 34.5413 1110.97 32.1429 1113.93 32.1429C1116.89 32.1429 1119.29 34.5413 1119.29 37.5Z" fill="#F8FAFC"/>
<path d="M1151.43 37.5C1151.43 40.4587 1149.03 42.8571 1146.07 42.8571C1143.11 42.8571 1140.71 40.4587 1140.71 37.5C1140.71 34.5413 1143.11 32.1429 1146.07 32.1429C1149.03 32.1429 1151.43 34.5413 1151.43 37.5Z" fill="#F8FAFC"/>
<path d="M1183.57 37.5C1183.57 40.4587 1181.17 42.8571 1178.21 42.8571C1175.26 42.8571 1172.86 40.4587 1172.86 37.5C1172.86 34.5413 1175.26 32.1429 1178.21 32.1429C1181.17 32.1429 1183.57 34.5413 1183.57 37.5Z" fill="#F8FAFC"/>
<path d="M1215.71 37.5C1215.71 40.4587 1213.32 42.8571 1210.36 42.8571C1207.4 42.8571 1205 40.4587 1205 37.5C1205 34.5413 1207.4 32.1429 1210.36 32.1429C1213.32 32.1429 1215.71 34.5413 1215.71 37.5Z" fill="#F8FAFC"/>
<path d="M1022.86 69.6429C1022.86 72.6015 1020.46 75 1017.5 75C1014.54 75 1012.14 72.6015 1012.14 69.6429C1012.14 66.6842 1014.54 64.2857 1017.5 64.2857C1020.46 64.2857 1022.86 66.6842 1022.86 69.6429Z" fill="#F8FAFC"/>
<path d="M1055 69.6429C1055 72.6015 1052.6 75 1049.64 75C1046.68 75 1044.29 72.6015 1044.29 69.6429C1044.29 66.6842 1046.68 64.2857 1049.64 64.2857C1052.6 64.2857 1055 66.6842 1055 69.6429Z" fill="#F8FAFC"/>
<path d="M1087.14 69.6429C1087.14 72.6015 1084.74 75 1081.79 75C1078.83 75 1076.43 72.6015 1076.43 69.6429C1076.43 66.6842 1078.83 64.2857 1081.79 64.2857C1084.74 64.2857 1087.14 66.6842 1087.14 69.6429Z" fill="#F8FAFC"/>
<path d="M1119.29 69.6429C1119.29 72.6015 1116.89 75 1113.93 75C1110.97 75 1108.57 72.6015 1108.57 69.6429C1108.57 66.6842 1110.97 64.2857 1113.93 64.2857C1116.89 64.2857 1119.29 66.6842 1119.29 69.6429Z" fill="#F8FAFC"/>
<path d="M1151.43 69.6429C1151.43 72.6015 1149.03 75 1146.07 75C1143.11 75 1140.71 72.6015 1140.71 69.6429C1140.71 66.6842 1143.11 64.2857 1146.07 64.2857C1149.03 64.2857 1151.43 66.6842 1151.43 69.6429Z" fill="#F8FAFC"/>
<path d="M1183.57 69.6429C1183.57 72.6015 1181.17 75 1178.21 75C1175.26 75 1172.86 72.6015 1172.86 69.6429C1172.86 66.6842 1175.26 64.2857 1178.21 64.2857C1181.17 64.2857 1183.57 66.6842 1183.57 69.6429Z" fill="#F8FAFC"/>
<path d="M1215.71 69.6429C1215.71 72.6015 1213.32 75 1210.36 75C1207.4 75 1205 72.6015 1205 69.6429C1205 66.6842 1207.4 64.2857 1210.36 64.2857C1213.32 64.2857 1215.71 66.6842 1215.71 69.6429Z" fill="#F8FAFC"/>
<path d="M1247.86 69.6429C1247.86 72.6015 1245.46 75 1242.5 75C1239.54 75 1237.14 72.6015 1237.14 69.6429C1237.14 66.6842 1239.54 64.2857 1242.5 64.2857C1245.46 64.2857 1247.86 66.6842 1247.86 69.6429Z" fill="#F8FAFC"/>
<path d="M990.714 101.786C990.714 104.744 988.316 107.143 985.357 107.143C982.398 107.143 980 104.744 980 101.786C980 98.827 982.398 96.4286 985.357 96.4286C988.316 96.4286 990.714 98.827 990.714 101.786Z" fill="#F8FAFC"/>
<path d="M1022.86 101.786C1022.86 104.744 1020.46 107.143 1017.5 107.143C1014.54 107.143 1012.14 104.744 1012.14 101.786C1012.14 98.827 1014.54 96.4286 1017.5 96.4286C1020.46 96.4286 1022.86 98.827 1022.86 101.786Z" fill="#F8FAFC"/>
<path d="M1055 101.786C1055 104.744 1052.6 107.143 1049.64 107.143C1046.68 107.143 1044.29 104.744 1044.29 101.786C1044.29 98.827 1046.68 96.4286 1049.64 96.4286C1052.6 96.4286 1055 98.827 1055 101.786Z" fill="#F8FAFC"/>
<path d="M1087.14 101.786C1087.14 104.744 1084.74 107.143 1081.79 107.143C1078.83 107.143 1076.43 104.744 1076.43 101.786C1076.43 98.827 1078.83 96.4286 1081.79 96.4286C1084.74 96.4286 1087.14 98.827 1087.14 101.786Z" fill="#F8FAFC"/>
<path d="M1119.29 101.786C1119.29 104.744 1116.89 107.143 1113.93 107.143C1110.97 107.143 1108.57 104.744 1108.57 101.786C1108.57 98.827 1110.97 96.4286 1113.93 96.4286C1116.89 96.4286 1119.29 98.827 1119.29 101.786Z" fill="#F8FAFC"/>
<path d="M1151.43 101.786C1151.43 104.744 1149.03 107.143 1146.07 107.143C1143.11 107.143 1140.71 104.744 1140.71 101.786C1140.71 98.827 1143.11 96.4286 1146.07 96.4286C1149.03 96.4286 1151.43 98.827 1151.43 101.786Z" fill="#F8FAFC"/>
<path d="M1183.57 101.786C1183.57 104.744 1181.17 107.143 1178.21 107.143C1175.26 107.143 1172.86 104.744 1172.86 101.786C1172.86 98.827 1175.26 96.4286 1178.21 96.4286C1181.17 96.4286 1183.57 98.827 1183.57 101.786Z" fill="#F8FAFC"/>
<path d="M1215.71 101.786C1215.71 104.744 1213.32 107.143 1210.36 107.143C1207.4 107.143 1205 104.744 1205 101.786C1205 98.827 1207.4 96.4286 1210.36 96.4286C1213.32 96.4286 1215.71 98.827 1215.71 101.786Z" fill="#F8FAFC"/>
<path d="M1247.86 101.786C1247.86 104.744 1245.46 107.143 1242.5 107.143C1239.54 107.143 1237.14 104.744 1237.14 101.786C1237.14 98.827 1239.54 96.4286 1242.5 96.4286C1245.46 96.4286 1247.86 98.827 1247.86 101.786Z" fill="#F8FAFC"/>
<path d="M1280 101.786C1280 104.744 1277.6 107.143 1274.64 107.143C1271.68 107.143 1269.29 104.744 1269.29 101.786C1269.29 98.827 1271.68 96.4286 1274.64 96.4286C1277.6 96.4286 1280 98.827 1280 101.786Z" fill="#F8FAFC"/>
<path d="M990.714 133.929C990.714 136.887 988.316 139.286 985.357 139.286C982.398 139.286 980 136.887 980 133.929C980 130.97 982.398 128.571 985.357 128.571C988.316 128.571 990.714 130.97 990.714 133.929Z" fill="#F8FAFC"/>
<path d="M1022.86 133.929C1022.86 136.887 1020.46 139.286 1017.5 139.286C1014.54 139.286 1012.14 136.887 1012.14 133.929C1012.14 130.97 1014.54 128.571 1017.5 128.571C1020.46 128.571 1022.86 130.97 1022.86 133.929Z" fill="#F8FAFC"/>
<path d="M1055 133.929C1055 136.887 1052.6 139.286 1049.64 139.286C1046.68 139.286 1044.29 136.887 1044.29 133.929C1044.29 130.97 1046.68 128.571 1049.64 128.571C1052.6 128.571 1055 130.97 1055 133.929Z" fill="#F8FAFC"/>
<path d="M1087.14 133.929C1087.14 136.887 1084.74 139.286 1081.79 139.286C1078.83 139.286 1076.43 136.887 1076.43 133.929C1076.43 130.97 1078.83 128.571 1081.79 128.571C1084.74 128.571 1087.14 130.97 1087.14 133.929Z" fill="#F8FAFC"/>
<path d="M1119.29 133.929C1119.29 136.887 1116.89 139.286 1113.93 139.286C1110.97 139.286 1108.57 136.887 1108.57 133.929C1108.57 130.97 1110.97 128.571 1113.93 128.571C1116.89 128.571 1119.29 130.97 1119.29 133.929Z" fill="#F8FAFC"/>
<path d="M1151.43 133.929C1151.43 136.887 1149.03 139.286 1146.07 139.286C1143.11 139.286 1140.71 136.887 1140.71 133.929C1140.71 130.97 1143.11 128.571 1146.07 128.571C1149.03 128.571 1151.43 130.97 1151.43 133.929Z" fill="#F8FAFC"/>
<path d="M1183.57 133.929C1183.57 136.887 1181.17 139.286 1178.21 139.286C1175.26 139.286 1172.86 136.887 1172.86 133.929C1172.86 130.97 1175.26 128.571 1178.21 128.571C1181.17 128.571 1183.57 130.97 1183.57 133.929Z" fill="#F8FAFC"/>
<path d="M1215.71 133.929C1215.71 136.887 1213.32 139.286 1210.36 139.286C1207.4 139.286 1205 136.887 1205 133.929C1205 130.97 1207.4 128.571 1210.36 128.571C1213.32 128.571 1215.71 130.97 1215.71 133.929Z" fill="#F8FAFC"/>
<path d="M1247.86 133.929C1247.86 136.887 1245.46 139.286 1242.5 139.286C1239.54 139.286 1237.14 136.887 1237.14 133.929C1237.14 130.97 1239.54 128.571 1242.5 128.571C1245.46 128.571 1247.86 130.97 1247.86 133.929Z" fill="#F8FAFC"/>
<path d="M1280 133.929C1280 136.887 1277.6 139.286 1274.64 139.286C1271.68 139.286 1269.29 136.887 1269.29 133.929C1269.29 130.97 1271.68 128.571 1274.64 128.571C1277.6 128.571 1280 130.97 1280 133.929Z" fill="#F8FAFC"/>
<path d="M990.714 166.071C990.714 169.03 988.316 171.429 985.357 171.429C982.398 171.429 980 169.03 980 166.071C980 163.113 982.398 160.714 985.357 160.714C988.316 160.714 990.714 163.113 990.714 166.071Z" fill="#F8FAFC"/>
<path d="M1022.86 166.071C1022.86 169.03 1020.46 171.429 1017.5 171.429C1014.54 171.429 1012.14 169.03 1012.14 166.071C1012.14 163.113 1014.54 160.714 1017.5 160.714C1020.46 160.714 1022.86 163.113 1022.86 166.071Z" fill="#F8FAFC"/>
<path d="M1055 166.071C1055 169.03 1052.6 171.429 1049.64 171.429C1046.68 171.429 1044.29 169.03 1044.29 166.071C1044.29 163.113 1046.68 160.714 1049.64 160.714C1052.6 160.714 1055 163.113 1055 166.071Z" fill="#F8FAFC"/>
<path d="M1087.14 166.071C1087.14 169.03 1084.74 171.429 1081.79 171.429C1078.83 171.429 1076.43 169.03 1076.43 166.071C1076.43 163.113 1078.83 160.714 1081.79 160.714C1084.74 160.714 1087.14 163.113 1087.14 166.071Z" fill="#F8FAFC"/>
<path d="M1119.29 166.071C1119.29 169.03 1116.89 171.429 1113.93 171.429C1110.97 171.429 1108.57 169.03 1108.57 166.071C1108.57 163.113 1110.97 160.714 1113.93 160.714C1116.89 160.714 1119.29 163.113 1119.29 166.071Z" fill="#F8FAFC"/>
<path d="M1151.43 166.071C1151.43 169.03 1149.03 171.429 1146.07 171.429C1143.11 171.429 1140.71 169.03 1140.71 166.071C1140.71 163.113 1143.11 160.714 1146.07 160.714C1149.03 160.714 1151.43 163.113 1151.43 166.071Z" fill="#F8FAFC"/>
<path d="M1183.57 166.071C1183.57 169.03 1181.17 171.429 1178.21 171.429C1175.26 171.429 1172.86 169.03 1172.86 166.071C1172.86 163.113 1175.26 160.714 1178.21 160.714C1181.17 160.714 1183.57 163.113 1183.57 166.071Z" fill="#F8FAFC"/>
<path d="M1215.71 166.071C1215.71 169.03 1213.32 171.429 1210.36 171.429C1207.4 171.429 1205 169.03 1205 166.071C1205 163.113 1207.4 160.714 1210.36 160.714C1213.32 160.714 1215.71 163.113 1215.71 166.071Z" fill="#F8FAFC"/>
<path d="M1247.86 166.071C1247.86 169.03 1245.46 171.429 1242.5 171.429C1239.54 171.429 1237.14 169.03 1237.14 166.071C1237.14 163.113 1239.54 160.714 1242.5 160.714C1245.46 160.714 1247.86 163.113 1247.86 166.071Z" fill="#F8FAFC"/>
<path d="M1280 166.071C1280 169.03 1277.6 171.429 1274.64 171.429C1271.68 171.429 1269.29 169.03 1269.29 166.071C1269.29 163.113 1271.68 160.714 1274.64 160.714C1277.6 160.714 1280 163.113 1280 166.071Z" fill="#F8FAFC"/>
<path d="M990.714 198.214C990.714 201.173 988.316 203.571 985.357 203.571C982.398 203.571 980 201.173 980 198.214C980 195.256 982.398 192.857 985.357 192.857C988.316 192.857 990.714 195.256 990.714 198.214Z" fill="#F8FAFC"/>
<path d="M1022.86 198.214C1022.86 201.173 1020.46 203.571 1017.5 203.571C1014.54 203.571 1012.14 201.173 1012.14 198.214C1012.14 195.256 1014.54 192.857 1017.5 192.857C1020.46 192.857 1022.86 195.256 1022.86 198.214Z" fill="#F8FAFC"/>
<path d="M1055 198.214C1055 201.173 1052.6 203.571 1049.64 203.571C1046.68 203.571 1044.29 201.173 1044.29 198.214C1044.29 195.256 1046.68 192.857 1049.64 192.857C1052.6 192.857 1055 195.256 1055 198.214Z" fill="#F8FAFC"/>
<path d="M1087.14 198.214C1087.14 201.173 1084.74 203.571 1081.79 203.571C1078.83 203.571 1076.43 201.173 1076.43 198.214C1076.43 195.256 1078.83 192.857 1081.79 192.857C1084.74 192.857 1087.14 195.256 1087.14 198.214Z" fill="#F8FAFC"/>
<path d="M1119.29 198.214C1119.29 201.173 1116.89 203.571 1113.93 203.571C1110.97 203.571 1108.57 201.173 1108.57 198.214C1108.57 195.256 1110.97 192.857 1113.93 192.857C1116.89 192.857 1119.29 195.256 1119.29 198.214Z" fill="#F8FAFC"/>
<path d="M1151.43 198.214C1151.43 201.173 1149.03 203.571 1146.07 203.571C1143.11 203.571 1140.71 201.173 1140.71 198.214C1140.71 195.256 1143.11 192.857 1146.07 192.857C1149.03 192.857 1151.43 195.256 1151.43 198.214Z" fill="#F8FAFC"/>
<path d="M1183.57 198.214C1183.57 201.173 1181.17 203.571 1178.21 203.571C1175.26 203.571 1172.86 201.173 1172.86 198.214C1172.86 195.256 1175.26 192.857 1178.21 192.857C1181.17 192.857 1183.57 195.256 1183.57 198.214Z" fill="#F8FAFC"/>
<path d="M1215.71 198.214C1215.71 201.173 1213.32 203.571 1210.36 203.571C1207.4 203.571 1205 201.173 1205 198.214C1205 195.256 1207.4 192.857 1210.36 192.857C1213.32 192.857 1215.71 195.256 1215.71 198.214Z" fill="#F8FAFC"/>
<path d="M1247.86 198.214C1247.86 201.173 1245.46 203.571 1242.5 203.571C1239.54 203.571 1237.14 201.173 1237.14 198.214C1237.14 195.256 1239.54 192.857 1242.5 192.857C1245.46 192.857 1247.86 195.256 1247.86 198.214Z" fill="#F8FAFC"/>
<path d="M1280 198.214C1280 201.173 1277.6 203.571 1274.64 203.571C1271.68 203.571 1269.29 201.173 1269.29 198.214C1269.29 195.256 1271.68 192.857 1274.64 192.857C1277.6 192.857 1280 195.256 1280 198.214Z" fill="#F8FAFC"/>
<path d="M1022.86 230.357C1022.86 233.316 1020.46 235.714 1017.5 235.714C1014.54 235.714 1012.14 233.316 1012.14 230.357C1012.14 227.398 1014.54 225 1017.5 225C1020.46 225 1022.86 227.398 1022.86 230.357Z" fill="#F8FAFC"/>
<path d="M1055 230.357C1055 233.316 1052.6 235.714 1049.64 235.714C1046.68 235.714 1044.29 233.316 1044.29 230.357C1044.29 227.398 1046.68 225 1049.64 225C1052.6 225 1055 227.398 1055 230.357Z" fill="#F8FAFC"/>
<path d="M1087.14 230.357C1087.14 233.316 1084.74 235.714 1081.79 235.714C1078.83 235.714 1076.43 233.316 1076.43 230.357C1076.43 227.398 1078.83 225 1081.79 225C1084.74 225 1087.14 227.398 1087.14 230.357Z" fill="#F8FAFC"/>
<path d="M1119.29 230.357C1119.29 233.316 1116.89 235.714 1113.93 235.714C1110.97 235.714 1108.57 233.316 1108.57 230.357C1108.57 227.398 1110.97 225 1113.93 225C1116.89 225 1119.29 227.398 1119.29 230.357Z" fill="#F8FAFC"/>
<path d="M1151.43 230.357C1151.43 233.316 1149.03 235.714 1146.07 235.714C1143.11 235.714 1140.71 233.316 1140.71 230.357C1140.71 227.398 1143.11 225 1146.07 225C1149.03 225 1151.43 227.398 1151.43 230.357Z" fill="#F8FAFC"/>
<path d="M1183.57 230.357C1183.57 233.316 1181.17 235.714 1178.21 235.714C1175.26 235.714 1172.86 233.316 1172.86 230.357C1172.86 227.398 1175.26 225 1178.21 225C1181.17 225 1183.57 227.398 1183.57 230.357Z" fill="#F8FAFC"/>
<path d="M1215.71 230.357C1215.71 233.316 1213.32 235.714 1210.36 235.714C1207.4 235.714 1205 233.316 1205 230.357C1205 227.398 1207.4 225 1210.36 225C1213.32 225 1215.71 227.398 1215.71 230.357Z" fill="#F8FAFC"/>
<path d="M1247.86 230.357C1247.86 233.316 1245.46 235.714 1242.5 235.714C1239.54 235.714 1237.14 233.316 1237.14 230.357C1237.14 227.398 1239.54 225 1242.5 225C1245.46 225 1247.86 227.398 1247.86 230.357Z" fill="#F8FAFC"/>
<path d="M1055 262.5C1055 265.459 1052.6 267.857 1049.64 267.857C1046.68 267.857 1044.29 265.459 1044.29 262.5C1044.29 259.541 1046.68 257.143 1049.64 257.143C1052.6 257.143 1055 259.541 1055 262.5Z" fill="#F8FAFC"/>
<path d="M1087.14 262.5C1087.14 265.459 1084.74 267.857 1081.79 267.857C1078.83 267.857 1076.43 265.459 1076.43 262.5C1076.43 259.541 1078.83 257.143 1081.79 257.143C1084.74 257.143 1087.14 259.541 1087.14 262.5Z" fill="#F8FAFC"/>
<path d="M1119.29 262.5C1119.29 265.459 1116.89 267.857 1113.93 267.857C1110.97 267.857 1108.57 265.459 1108.57 262.5C1108.57 259.541 1110.97 257.143 1113.93 257.143C1116.89 257.143 1119.29 259.541 1119.29 262.5Z" fill="#F8FAFC"/>
<path d="M1151.43 262.5C1151.43 265.459 1149.03 267.857 1146.07 267.857C1143.11 267.857 1140.71 265.459 1140.71 262.5C1140.71 259.541 1143.11 257.143 1146.07 257.143C1149.03 257.143 1151.43 259.541 1151.43 262.5Z" fill="#F8FAFC"/>
<path d="M1183.57 262.5C1183.57 265.459 1181.17 267.857 1178.21 267.857C1175.26 267.857 1172.86 265.459 1172.86 262.5C1172.86 259.541 1175.26 257.143 1178.21 257.143C1181.17 257.143 1183.57 259.541 1183.57 262.5Z" fill="#F8FAFC"/>
<path d="M1215.71 262.5C1215.71 265.459 1213.32 267.857 1210.36 267.857C1207.4 267.857 1205 265.459 1205 262.5C1205 259.541 1207.4 257.143 1210.36 257.143C1213.32 257.143 1215.71 259.541 1215.71 262.5Z" fill="#F8FAFC"/>
<path d="M1087.14 294.643C1087.14 297.602 1084.74 300 1081.79 300C1078.83 300 1076.43 297.602 1076.43 294.643C1076.43 291.684 1078.83 289.286 1081.79 289.286C1084.74 289.286 1087.14 291.684 1087.14 294.643Z" fill="#F8FAFC"/>
<path d="M1119.29 294.643C1119.29 297.602 1116.89 300 1113.93 300C1110.97 300 1108.57 297.602 1108.57 294.643C1108.57 291.684 1110.97 289.286 1113.93 289.286C1116.89 289.286 1119.29 291.684 1119.29 294.643Z" fill="#F8FAFC"/>
<path d="M1151.43 294.643C1151.43 297.602 1149.03 300 1146.07 300C1143.11 300 1140.71 297.602 1140.71 294.643C1140.71 291.684 1143.11 289.286 1146.07 289.286C1149.03 289.286 1151.43 291.684 1151.43 294.643Z" fill="#F8FAFC"/>
<path d="M1183.57 294.643C1183.57 297.602 1181.17 300 1178.21 300C1175.26 300 1172.86 297.602 1172.86 294.643C1172.86 291.684 1175.26 289.286 1178.21 289.286C1181.17 289.286 1183.57 291.684 1183.57 294.643Z" fill="#F8FAFC"/>
</svg>
