<svg width="159" height="48" viewBox="0 0 159 48" fill="none" xmlns="http://www.w3.org/2000/svg">
<path d="M70.1591 25.8636V41H62.8977V6.09091H69.9545V19.4375H70.2614C70.8523 17.892 71.8068 16.6818 73.125 15.8068C74.4432 14.9205 76.0966 14.4773 78.0852 14.4773C79.9034 14.4773 81.4886 14.875 82.8409 15.6705C84.2045 16.4545 85.2614 17.5852 86.0114 19.0625C86.7727 20.5284 87.1477 22.2841 87.1364 24.3295V41H79.875V25.625C79.8864 24.0114 79.4773 22.7557 78.6477 21.858C77.8295 20.9602 76.6818 20.5114 75.2045 20.5114C74.2159 20.5114 73.3409 20.7216 72.5795 21.142C71.8295 21.5625 71.2386 22.1761 70.8068 22.983C70.3864 23.7784 70.1705 24.7386 70.1591 25.8636ZM100.317 41.4943C98.6463 41.4943 97.1577 41.2045 95.8509 40.625C94.544 40.0341 93.5099 39.1648 92.7486 38.017C91.9986 36.858 91.6236 35.4148 91.6236 33.6875C91.6236 32.233 91.8906 31.0114 92.4247 30.0227C92.9588 29.0341 93.6861 28.2386 94.6065 27.6364C95.527 27.0341 96.5724 26.5795 97.7429 26.2727C98.9247 25.9659 100.163 25.75 101.459 25.625C102.982 25.4659 104.209 25.3182 105.141 25.1818C106.072 25.0341 106.749 24.8182 107.169 24.5341C107.589 24.25 107.8 23.8295 107.8 23.2727V23.1705C107.8 22.0909 107.459 21.2557 106.777 20.6648C106.107 20.0739 105.152 19.7784 103.913 19.7784C102.607 19.7784 101.567 20.0682 100.794 20.6477C100.021 21.2159 99.5099 21.9318 99.2599 22.7955L92.544 22.25C92.8849 20.6591 93.5554 19.2841 94.5554 18.125C95.5554 16.9545 96.8452 16.0568 98.4247 15.4318C100.016 14.7955 101.857 14.4773 103.947 14.4773C105.402 14.4773 106.794 14.6477 108.124 14.9886C109.464 15.3295 110.652 15.858 111.686 16.5739C112.732 17.2898 113.555 18.2102 114.158 19.3352C114.76 20.4489 115.061 21.7841 115.061 23.3409V41H108.175V37.3693H107.97C107.55 38.1875 106.987 38.9091 106.283 39.5341C105.578 40.1477 104.732 40.6307 103.743 40.983C102.754 41.3239 101.612 41.4943 100.317 41.4943ZM102.396 36.483C103.464 36.483 104.408 36.2727 105.226 35.8523C106.044 35.4205 106.686 34.8409 107.152 34.1136C107.618 33.3864 107.851 32.5625 107.851 31.642V28.8636C107.624 29.0114 107.311 29.1477 106.913 29.2727C106.527 29.3864 106.089 29.4943 105.601 29.5966C105.112 29.6875 104.624 29.7727 104.135 29.8523C103.646 29.9205 103.203 29.983 102.805 30.0398C101.953 30.1648 101.209 30.3636 100.572 30.6364C99.9361 30.9091 99.4418 31.2784 99.0895 31.7443C98.7372 32.1989 98.5611 32.767 98.5611 33.4489C98.5611 34.4375 98.919 35.1932 99.6349 35.7159C100.362 36.2273 101.283 36.483 102.396 36.483ZM128.161 41.4943C126.49 41.4943 125.001 41.2045 123.695 40.625C122.388 40.0341 121.354 39.1648 120.592 38.017C119.842 36.858 119.467 35.4148 119.467 33.6875C119.467 32.233 119.734 31.0114 120.268 30.0227C120.803 29.0341 121.53 28.2386 122.45 27.6364C123.371 27.0341 124.416 26.5795 125.587 26.2727C126.768 25.9659 128.007 25.75 129.303 25.625C130.825 25.4659 132.053 25.3182 132.984 25.1818C133.916 25.0341 134.592 24.8182 135.013 24.5341C135.433 24.25 135.643 23.8295 135.643 23.2727V23.1705C135.643 22.0909 135.303 21.2557 134.621 20.6648C133.95 20.0739 132.996 19.7784 131.757 19.7784C130.45 19.7784 129.411 20.0682 128.638 20.6477C127.865 21.2159 127.354 21.9318 127.104 22.7955L120.388 22.25C120.729 20.6591 121.399 19.2841 122.399 18.125C123.399 16.9545 124.689 16.0568 126.268 15.4318C127.859 14.7955 129.7 14.4773 131.791 14.4773C133.246 14.4773 134.638 14.6477 135.967 14.9886C137.308 15.3295 138.496 15.858 139.53 16.5739C140.575 17.2898 141.399 18.2102 142.001 19.3352C142.604 20.4489 142.905 21.7841 142.905 23.3409V41H136.018V37.3693H135.814C135.393 38.1875 134.831 38.9091 134.126 39.5341C133.422 40.1477 132.575 40.6307 131.587 40.983C130.598 41.3239 129.456 41.4943 128.161 41.4943ZM130.24 36.483C131.308 36.483 132.251 36.2727 133.07 35.8523C133.888 35.4205 134.53 34.8409 134.996 34.1136C135.462 33.3864 135.695 32.5625 135.695 31.642V28.8636C135.467 29.0114 135.155 29.1477 134.757 29.2727C134.371 29.3864 133.933 29.4943 133.445 29.5966C132.956 29.6875 132.467 29.7727 131.979 29.8523C131.49 29.9205 131.047 29.983 130.649 30.0398C129.797 30.1648 129.053 30.3636 128.416 30.6364C127.78 30.9091 127.286 31.2784 126.933 31.7443C126.581 32.1989 126.405 32.767 126.405 33.4489C126.405 34.4375 126.763 35.1932 127.479 35.7159C128.206 36.2273 129.126 36.483 130.24 36.483ZM148.538 41V14.8182H155.8V41H148.538ZM152.186 11.4432C151.107 11.4432 150.18 11.0852 149.408 10.3693C148.646 9.64204 148.266 8.77273 148.266 7.76136C148.266 6.76136 148.646 5.90341 149.408 5.1875C150.18 4.46023 151.107 4.09659 152.186 4.09659C153.266 4.09659 154.186 4.46023 154.947 5.1875C155.72 5.90341 156.107 6.76136 156.107 7.76136C156.107 8.77273 155.72 9.64204 154.947 10.3693C154.186 11.0852 153.266 11.4432 152.186 11.4432Z" fill="#1D4ED8"/>
<rect width="48" height="48" rx="24" fill="#1D4ED8"/>
<g clip-path="url(#clip0_420_3490)">
<path d="M19 19C19 19 18.2598 17.719 16.9666 17.4616C15.6733 17.2042 14.3328 17.3361 13.1145 17.8406C11.8962 18.3451 10.8549 19.1996 10.1222 20.296C9.38961 21.3924 8.99857 22.6814 8.99857 24C8.99857 25.3186 9.38961 26.6077 10.1222 27.704C10.8549 28.8004 11.8962 29.6549 13.1145 30.1594C14.3328 30.6639 15.6733 30.7958 16.9666 30.5384C18.2598 30.281 19.4477 29.6459 20.38 28.7133C21.8593 27.3718 23.0854 25.7753 24 24C24.9145 22.2247 26.1407 20.6282 27.62 19.2867C28.5523 18.3541 29.7401 17.719 31.0334 17.4616C32.3267 17.2042 33.6672 17.3361 34.8855 17.8406C36.1038 18.3451 37.1451 19.1996 37.8777 20.296C38.6104 21.3924 39.0014 22.6814 39.0014 24C39.0014 25.3186 38.6104 26.6077 37.8777 27.704C37.1451 28.8004 36.1038 29.6549 34.8855 30.1594C33.6672 30.6639 32.3267 30.7958 31.0334 30.5384C29.7401 30.281 29 29.5 29 29.5" stroke="white" stroke-width="3.6" stroke-linecap="round" stroke-linejoin="round"/>
</g>
<defs>
<clipPath id="clip0_420_3490">
<rect width="40" height="40" fill="white" transform="translate(4 4)"/>
</clipPath>
</defs>
</svg>
