<svg width="48" height="48" viewBox="0 0 48 48" fill="none" xmlns="http://www.w3.org/2000/svg">
<rect width="48" height="48" rx="8" fill="#FED7AA"/>
<g clip-path="url(#clip0_493_4388)">
<path d="M20 28L28 20" stroke="#EA580C" stroke-width="2" stroke-linecap="round" stroke-linejoin="round"/>
<path d="M20.6667 21.3333C21.0349 21.3333 21.3333 21.0349 21.3333 20.6667C21.3333 20.2985 21.0349 20 20.6667 20C20.2985 20 20 20.2985 20 20.6667C20 21.0349 20.2985 21.3333 20.6667 21.3333Z" fill="#EA580C" stroke="#EA580C" stroke-width="2" stroke-linecap="round" stroke-linejoin="round"/>
<path d="M27.3333 28C27.7015 28 28 27.7015 28 27.3333C28 26.9651 27.7015 26.6667 27.3333 26.6667C26.9651 26.6667 26.6667 26.9651 26.6667 27.3333C26.6667 27.7015 26.9651 28 27.3333 28Z" fill="#EA580C" stroke="#EA580C" stroke-width="2" stroke-linecap="round" stroke-linejoin="round"/>
<path d="M12 24C12 25.5759 12.3104 27.1363 12.9134 28.5922C13.5165 30.0481 14.4004 31.371 15.5147 32.4853C16.629 33.5996 17.9519 34.4835 19.4078 35.0866C20.8637 35.6896 22.4241 36 24 36C25.5759 36 27.1363 35.6896 28.5922 35.0866C30.0481 34.4835 31.371 33.5996 32.4853 32.4853C33.5996 31.371 34.4835 30.0481 35.0866 28.5922C35.6896 27.1363 36 25.5759 36 24C36 22.4241 35.6896 20.8637 35.0866 19.4078C34.4835 17.9519 33.5996 16.629 32.4853 15.5147C31.371 14.4004 30.0481 13.5165 28.5922 12.9134C27.1363 12.3104 25.5759 12 24 12C22.4241 12 20.8637 12.3104 19.4078 12.9134C17.9519 13.5165 16.629 14.4004 15.5147 15.5147C14.4004 16.629 13.5165 17.9519 12.9134 19.4078C12.3104 20.8637 12 22.4241 12 24Z" stroke="#EA580C" stroke-width="2" stroke-linecap="round" stroke-linejoin="round"/>
</g>
<defs>
<clipPath id="clip0_493_4388">
<rect width="32" height="32" fill="white" transform="translate(8 8)"/>
</clipPath>
</defs>
</svg>
